<?xml version="1.0" encoding="utf-8"?>
<!-- Generator: Adobe Illustrator 28.0.0, SVG Export Plug-In . SVG Version: 6.00 Build 0)  -->
<svg version="1.1"
	 id="Layer_1" xmlns:sodipodi="http://inkscape.sourceforge.net/DTD/sodipodi-0.dtd" xmlns:rdf="http://www.w3.org/1999/02/22-rdf-syntax-ns#" xmlns:svg="http://www.w3.org/2000/svg" xmlns:cc="http://web.resource.org/cc/" xmlns:dc="http://purl.org/dc/elements/1.1/" xmlns:inkscape="http://www.inkscape.org/namespaces/inkscape" sodipodi:docbase="F:\openclip\wmf\01" sodipodi:docname="texturelegno.svg" sodipodi:version="0.32"
	 xmlns="http://www.w3.org/2000/svg" xmlns:xlink="http://www.w3.org/1999/xlink" x="0px" y="0px" viewBox="0 0 418.7 133.9"
	 style="enable-background:new 0 0 418.7 133.9;" xml:space="preserve">
<style type="text/css">
	.st0{fill:none;}
	.st1{fill:#FADCA5;}
	.st2{fill:#D59758;}
	.st3{fill:#8B5C29;}
	.st4{opacity:0.2;}
	.st5{opacity:0.6;fill:url(#SVGID_1_);}
	.st6{opacity:0.5;fill:#3A2F13;}
	.st7{fill:#9B7B34;}
	.st8{fill:#493C17;}
</style>
<sodipodi:namedview  bordercolor="#666666" borderopacity="1.0" id="base" inkscape:current-layer="Layer_1" inkscape:cx="156.61301" inkscape:cy="210.39900" inkscape:pageopacity="0.0" inkscape:pageshadow="2" inkscape:window-height="510" inkscape:window-width="787" inkscape:window-x="88" inkscape:window-y="116" inkscape:zoom="0.85551737" pagecolor="#ffffff">
	</sodipodi:namedview>
<path class="st0" d="M190.5,64.4c13.8,3.3,26.5,10.9,39.8,14.1c0.1,0,0.2,0.1,0.3,0.1c-0.5-0.2-1-0.4-1.5-0.7
	c-0.1,0-0.1-0.1-0.2-0.1c-12.2-3.3-24-10-36.7-13.3c-0.2,0-0.4-0.1-0.6-0.1c0.1,0,0.3,0,0.4,0.1c-0.4-0.1-0.8-0.2-1.2-0.3
	C129.5,49.5,62.7,55.4,0.2,54.3c0,0.1,0,0.2-0.1,0.2C62.6,55.6,129.3,49.7,190.5,64.4z"/>
<path class="st0" d="M103.7,133.4c-23.3-1-45.8-5-68.5-8.7c-6.8-1.7-13.6-3.3-20.6-3.9c0.6,0.1,1.2,0.3,1.8,0.5
	c6.3,0.7,12.4,2.2,18.5,3.7c22.7,3.7,45.2,7.7,68.5,8.7c38.4,1.6,74.2-6.7,105.4-28.9c0,0,0,0,0,0C177.7,126.7,142,135,103.7,133.4z
	"/>
<path class="st0" d="M224,102.5c0.6,0.4,1.3,0.9,1.9,1.3c-0.7,0.9-1.5,1.7-2.2,2.5c-0.3,0.7-0.8,1.5-1.5,2.3
	c-2.5,3.3-5.6,6.2-9.1,8.6c3.7-2.5,6.9-5.5,9.5-8.9c0.6-0.8,1.1-1.6,1.5-2.3c0.8-0.8,1.5-1.6,2.2-2.5c-0.6-0.5-1.3-0.9-1.9-1.3
	c-1.2-2.6-5.6-4-10.4-6.1c-0.4-0.2-0.8-0.3-1.2-0.5C183.9,82,145,80.8,115.1,78.4C77,75.3,38.4,77.3,0.2,78.5c0,0.1,0,0.2,0,0.2
	c38.1-1.2,76.6-3.2,114.6-0.1c29.8,2.4,68.8,3.6,97.6,17.3c0.4,0.2,0.8,0.3,1.2,0.5C218.4,98.5,222.8,99.9,224,102.5z"/>
<path class="st1" d="M221.3,108.7c-5.3,5.2-11.3,9.5-17.7,13.1C211.3,118.3,218.4,113.9,221.3,108.7z"/>
<path class="st1" d="M331.8,53.4c-1.4-0.4-2.8-0.7-4.2-1.1c-1.2-0.2-2.5-0.5-3.8-0.7C326.5,52.2,329.1,52.8,331.8,53.4z"/>
<path class="st1" d="M405.2,126.1c-13,0.3-26,0.6-39,0.9c-33.8,0.7-68.6-0.8-102.2,3.8c-3.3,0.5-6.6,0.9-9.9,1.4
	c1.3-0.1,2.7-0.2,4.1-0.2c-3.7,0.4-7.4,1.1-11,1.9h172.2c0-3.4,0-6.7,0-10C418.2,128.1,409.4,126.1,405.2,126.1z"/>
<path class="st2" d="M406.8,63.8c-6.9-0.5-13.8-1.2-20.7-2c-4.6-0.5-9.1-1.1-13.6-1.7c14.9,2.2,29.9,3.9,44.8,4.3
	C414.5,63.3,409.6,64,406.8,63.8z"/>
<path class="st2" d="M313.9,49c-14.3-4.1-28.2-9.4-41.3-17c3.1,2.6,6.6,4.9,10.5,6.9C292.9,43.5,303.2,46.4,313.9,49z"/>
<path class="st2" d="M-0.3,42c-0.4,1.5-0.1,3.4,0,5.1C-0.3,45.4-0.3,43.7-0.3,42C-0.3,42-0.3,42-0.3,42z"/>
<path class="st2" d="M-0.3,56.2c0-0.3,0-0.7,0-1C-0.3,55.5-0.3,55.9-0.3,56.2z"/>
<path class="st2" d="M230.6,78.6c-0.1,0-0.2-0.1-0.3-0.1c-13.3-3.2-26-10.8-39.8-14.1C129.3,49.7,62.6,55.6,0.2,54.5
	c-2.3,8.4,24.3,5.3,29.3,5.7c23.2,0.8,46.3,1.6,69.5,2.4c29.2,1,60.4-0.5,89,5.8c14.6,3.2,27.5,9.1,41.5,13.8
	c14.5,4.9,30.1,7.3,45.2,9.8c32.6,5.5,65.3,3.7,98.3,3.7c11.2,0,22.3,0,33.5,0c2.1,0,10.6,1.3,12.7,0.1c0.1-0.1,0.1-0.1,0.2-0.2
	c0.5-0.5,0.4-0.9,0-1.2c-1.9-1.4-11-1.2-11.3-1.2c-9.9-0.1-19.7-0.2-29.6-0.3c-34-0.3-69,2.1-102.6-4.4c-13.1-2.6-26.1-5.4-39.2-8.5
	c11.3,4,24.9,5.5,35.5,8.3C258.9,85.2,243.1,84,230.6,78.6z"/>
<path class="st2" d="M-0.3,67.8c0-0.4,0-0.9,0-1.4C-0.4,66.9-0.4,67.3-0.3,67.8z"/>
<path class="st2" d="M-0.4,129.1c-0.2,0.8-0.1,1.4,0.1,2c0-0.6,0-1.3,0-1.9C-0.3,129.1-0.4,129.1-0.4,129.1z"/>
<path class="st2" d="M28.7,127.9c9.9,3.3,20.2,4.8,30.6,6c0.1,0,0.3,0,0.4,0h108.2c7.8-1.5,15.4-3.5,22.7-6.2
	c-3.7,1.1-7.4,2.1-10.8,2.8c5.3-1.8,15-4.7,23.8-8.7c6.4-3.6,12.3-7.9,17.7-13.1c0.4-0.6,0.7-1.3,0.9-2c3.2-9.7-26.2-15.5-34-17.7
	c8.1,1.7,16.4,3.5,24.2,6.9c-28.8-13.7-67.8-14.9-97.6-17.3c-38-3.1-76.5-1.1-114.6,0.1c0,1.1,0,2.4-0.2,3.6
	c16.7-4.2,36.5-1.8,53.5-1.2c17.9,0.6,35.7,1.5,53.5,2.4c34.1,1.6,71,6.1,102.1,21c-0.1,0.1-0.2,0.2-0.3,0.2c0,0,0,0,0,0
	c-31.2,22.2-67,30.5-105.4,28.9c-23.3-1-45.8-5-68.5-8.7c6.2,1.5,12.4,3.1,18.8,3.9c-11,0-22.3-3.2-33.1-6.2c-7-1-14-2-21.2-2.7
	c0,0.3,0,0.6,0,0.8c0,0.4,0.2,0.7,0.3,1c0-0.4,0-0.8,0-1.2C0.5,126.8,22.4,125.7,28.7,127.9z"/>
<path class="st2" d="M-0.3,82.5C-0.3,82.5-0.3,82.5-0.3,82.5c0-0.1,0-0.2,0-0.3C-0.3,82.3-0.3,82.4-0.3,82.5z"/>
<path class="st2" d="M224,102.5c0.5,1,0.4,2.3-0.3,3.8c0.8-0.8,1.5-1.6,2.2-2.5C225.3,103.3,224.6,102.9,224,102.5z"/>
<path class="st2" d="M254.1,132.2c3.3-0.5,6.6-1,9.9-1.4c33.6-4.6,68.4-3.1,102.2-3.8c13-0.3,26-0.6,39-0.9c4.2,0,13,2,14.2-2.2
	c0.2-0.6,0.2-1.4,0-2.2c-0.1-0.3-0.2-0.7-0.3-1.1c-31.7,0-63.5,0.2-95.2,1.1c-29.8,0.9-65.4-2-92.9,10.7c-1.1,0.5-2.2,1-3.4,1.5
	h15.7C246.9,133.1,250.5,132.5,254.1,132.2z"/>
<path class="st2" d="M-0.3,115.4C-0.3,115.4-0.3,115.4-0.3,115.4c0-1.2,0-2.4,0-3.6C-0.4,112.8-0.4,114-0.3,115.4z"/>
<path class="st2" d="M-0.3,99.3c0,0.1,0,0.1,0,0.2C-0.3,99.4-0.3,99.4-0.3,99.3C-0.3,99.3-0.3,99.3-0.3,99.3z"/>
<path class="st3" d="M323.8,51.6c1.3,0.3,2.5,0.5,3.8,0.7c-4.6-1.2-9.2-2.2-13.8-3.3c-10.6-2.6-20.9-5.4-30.8-10.1
	C295.3,45.3,310.7,49,323.8,51.6z"/>
<path class="st3" d="M337.4,54.9c25.7,7.4,54.8,9,81.4,10.7c0.1,0,0.1,0,0.2,0c0.1-0.4,0.1-0.7,0.2-1.1c-0.6,0-1.3,0-1.9-0.1
	c-14.9-0.4-29.9-2.1-44.8-4.3c-13.1-2-26.1-4.4-39-6.7c-1.9-0.3-3.8-0.7-5.9-1.1c1.4,0.3,2.8,0.7,4.2,1.1
	C333.6,53.9,335.5,54.4,337.4,54.9z"/>
<path class="st3" d="M192.2,64.5c0,0-0.1,0-0.1,0c-0.1,0-0.3,0-0.4-0.1C191.8,64.4,192,64.5,192.2,64.5z"/>
<path class="st3" d="M231,78.3c-0.1,0-0.2-0.1-0.3-0.1c-0.6-0.1-1.2-0.3-1.7-0.5c0.1,0,0.1,0.1,0.2,0.1c0.5,0.2,1,0.5,1.5,0.7
	c12.5,5.4,28.3,6.6,41.5,9.7c-10.6-2.8-24.2-4.3-35.5-8.3c-3.6-1.3-7.1-2.8-10-4.7c-6.8-4.4-15.4-6.9-23.8-8.8
	c9.2,2.8,18.3,7.2,26.6,11.1C229.9,77.9,230.5,78.1,231,78.3z"/>
<path class="st3" d="M213.1,117.2c3.5-2.5,6.7-5.3,9.1-8.6c0.6-0.8,1.1-1.6,1.5-2.3c0.7-1.5,0.8-2.8,0.3-3.8
	c-1.2-2.6-5.6-4-10.4-6.1c-0.4-0.2-0.8-0.3-1.2-0.5c-7.8-3.4-16.1-5.2-24.2-6.9c7.8,2.2,37.2,8,34,17.7c-0.2,0.7-0.5,1.3-0.9,2
	c-2.9,5.2-10,9.6-17.7,13.1c-8.8,4-18.5,6.9-23.8,8.7c3.4-0.8,7.1-1.7,10.8-2.8c0.7-0.3,1.4-0.5,2-0.8
	C199.8,124.6,207,121.4,213.1,117.2z"/>
<path class="st3" d="M258.2,132c-1.4,0-2.7,0.1-4.1,0.2c-3.7,0.3-7.2,0.9-10.7,1.7h3.8C250.8,133.1,254.5,132.4,258.2,132z"/>
<path class="st3" d="M34.9,124.9c-6.1-1.5-12.2-3-18.5-3.7c1.5,0.4,3,0.8,4.5,1.2c-0.9-0.1-1.8-0.3-2.7-0.4c0.8,0.2,1.6,0.4,2.4,0.6
	c10.9,2.9,22.2,6.2,33.1,6.2C47.3,128,41.1,126.4,34.9,124.9z"/>
<path class="st0" d="M316.3,28c31.8,15.7,67,25.2,102.8,24c-0.1,0.9-0.1,1.7-0.2,2.6c0.1,0,0.2,0,0.3,0c0.1-1,0.1-1.9,0.2-2.9
	c-35.8,1.2-71-8.3-102.8-24C316.6,27.9,316.4,27.9,316.3,28C316.3,28,316.3,28,316.3,28z"/>
<path class="st0" d="M308.9,27.8C331.8,12.6,357.4,4.4,384,0h-1.1C356.7,4.4,331.5,12.7,308.9,27.8
	C308.8,27.8,308.8,27.8,308.9,27.8z"/>
<path class="st0" d="M95.5,42c33.1,0.6,68-0.8,100.5,6.2c3.9,0.8,7.7,1.8,11.5,2.9c-1.3-0.5-2.7-1-4.1-1.5c-2.4-0.6-4.7-1.2-7.1-1.7
	c-32.5-7-67.4-5.6-100.5-6.2c-32-0.5-63.9,0.1-95.8,0c0,0.1,0,0.2,0,0.2C31.8,42.1,63.6,41.5,95.5,42z"/>
<path class="st0" d="M282.2,74.9c31.2,5,63.3,7.4,94.8,9.9c14,1.1,28,2.2,42,1.1c0,0.8,0,1.7,0,2.5c0.1,0,0.2,0,0.3,0
	c0-0.9,0-1.9,0-2.8c-14,1.1-28,0-42-1.1c-31.5-2.5-63.6-4.9-94.8-9.9c-2-0.3-4-0.7-5.9-1.1c-1.5-0.2-3-0.4-4.6-0.7
	C275.4,73.6,278.8,74.3,282.2,74.9z"/>
<path class="st0" d="M284.3,74.3c-28.7-5.1-54.4-18.2-82.2-25.4c1.5,0.5,3,1,4.6,1.6c24.6,7,47.9,18.1,73.2,23.3
	C281.4,73.9,282.9,74.1,284.3,74.3z"/>
<path class="st2" d="M0.2,48.8C16.1,48.3,32,47.7,48,47.7c32.6-0.1,65.3,0.3,97.8,2.9c16.3,1.3,32.5,2.7,48.7,4.8
	c13.1,1.7,26.8,8.8,40,12.1c60.6,15.3,122.1,19.3,184.5,21c0-0.8,0-1.7,0-2.5c-14,1.1-28,0-42-1.1c-31.5-2.5-63.6-4.9-94.8-9.9
	c-3.4-0.6-6.8-1.3-10.1-2.1c-13-2.2-25.8-5.5-38.1-10.3c-8.7-3.4-17.5-7.9-26.5-11.4c-3.8-1.1-7.6-2.1-11.5-2.9
	c-32.5-7-67.4-5.6-100.5-6.2C63.6,41.5,31.8,42.1,0,42C-0.4,44.1,0.1,46.6,0.2,48.8z"/>
<path class="st3" d="M234,62.5c12.2,4.8,25.1,8.2,38.1,10.3c1.5,0.3,3,0.5,4.6,0.7c-1.4-0.3-2.8-0.6-4.2-0.9c2.5,0.4,5,0.8,7.5,1.1
	c-25.4-5.2-48.6-16.2-73.2-23.3c0.4,0.1,0.8,0.3,1.2,0.4c-1.5-0.4-2.9-0.8-4.4-1.2c1.4,0.5,2.7,0.9,4.1,1.5
	C216.5,54.6,225.3,59.1,234,62.5z"/>
<path class="st0" d="M333.4,7.6c1.2-0.5,2.3-1,3.5-1.4c-8.8,3.4-20.7,7.4-29.6,13.5c0,0,0.1-0.1,0.1-0.1
	C315.2,14.3,325.2,10.7,333.4,7.6z"/>
<path class="st0" d="M202.1,48.8c-4-1.3-8-2.2-12.1-2.7C194.1,46.9,198.1,47.8,202.1,48.8z"/>
<path class="st0" d="M306.9,19.9c0,0,0.1,0,0.1-0.1c0.1-0.1,0.2-0.1,0.2-0.2c-0.2,0.1-0.4,0.2-0.6,0.3c0.7-0.5,1.4-1,2.1-1.5
	c-0.8,0.6-1.7,1.2-2.5,1.8C306.6,20.1,306.8,20,306.9,19.9z"/>
<path class="st0" d="M304.4,21.7c-2.3,1.9-4.3,4-6,6.3c9.3,6.7,19,11.9,29.2,15.8c6.9,2.5,14,4.5,21,6.3c3.7,0.8,7.5,1.6,11.4,2.2
	c11.3,1.8,22.5,3.2,33.9,4c5.2,0.4,23.9-0.8,24.9,3.1c0.1,0,0.3,0,0.4,0c-0.3-4.3-19.7-3-25-3.4c-11.4-0.8-22.6-2.2-33.9-4
	c-3.9-0.6-7.7-1.3-11.4-2.2c-7-1.8-14.1-3.8-21-6.3c-10.2-3.9-19.9-9-29.2-15.8c1.7-2.3,3.8-4.3,6-6.3c0.7-0.6,1.4-1.1,2.2-1.6
	c0,0,0,0,0,0C306.1,20.5,305.2,21.1,304.4,21.7z"/>
<path class="st0" d="M126.2,103.2c2.4,0.7,4.6,1.7,6.6,3.2c0.1-0.1,0.3-0.1,0.4-0.2c-1.9-1.5-4.2-2.5-6.6-3.3
	c-20.8-8.5-46.6-4.3-67.7-0.3c0.1,0,0.2,0.1,0.3,0.1C80.1,98.9,105.5,94.8,126.2,103.2z"/>
<path class="st0" d="M124.5,109.1c-6.5,2.7-13.7,3.9-20.7,4c0.9,0.1,1.9,0.1,2.9,0.1c6.4-0.4,12.8-1.8,18.7-4.4
	C125,109,124.7,109,124.5,109.1z"/>
<path class="st2" d="M125.6,108.6c-0.4,0.2-0.8,0.3-1.1,0.5c0.3-0.1,0.5-0.1,0.8-0.2c1.8-0.8,3.5-1.7,5.2-2.7
	c-4.3-1.9-8.6-3.7-13.1-4.8c2.8,0.4,5.9,0.9,8.8,1.8c-20.6-8.4-46.1-4.4-67.1-0.5C80.3,113.8,103.3,114.9,125.6,108.6z"/>
<path class="st3" d="M117.4,101.4c4.5,1.1,8.8,2.9,13.1,4.8c-1.7,1-3.4,1.9-5.2,2.7c-5.9,2.6-12.3,3.9-18.7,4.4
	c9.1,0,18.3-2.6,26.1-6.8c-1.9-1.5-4.2-2.5-6.6-3.2C123.3,102.3,120.2,101.8,117.4,101.4z"/>
<path class="st0" d="M12.3,65.5c32.8,0.1,65.6,1,98.3,3c26.7,1.6,57.5,1.6,84.3,8.8c2.4,0.6,4.8,1.3,7.1,2.2
	c2.4,0.8,4.8,1.7,7.1,2.6c0.5,0.2,0.9,0.4,1.4,0.6c14.6,4.9,28.9,10.8,43.5,15.5c8.9,2.3,17.9,4.3,26.9,6.1c1.4,0.2,2.9,0.4,4.4,0.5
	c-10.4-2-20.7-4.2-30.9-6.9c-14.6-4.6-28.9-10.6-43.5-15.5c-0.5-0.2-0.9-0.4-1.4-0.6c-2.3-0.9-4.7-1.8-7.1-2.6
	c-2.3-0.8-4.7-1.5-7.1-2.2c-26.8-7.3-57.6-7.2-84.3-8.8c-32.7-2-65.5-2.9-98.3-3c-3.7,0-7.4,0-11,0c-0.5,0-0.9,0.2-1.2,0.4
	c0.2-0.1,0.5-0.2,0.9-0.2C4.9,65.5,8.6,65.5,12.3,65.5z"/>
<path class="st0" d="M209.5,125.2c18.7-10.2,36.3-17.5,57.7-20.3c-0.3,0-0.6,0-0.8-0.1c-20.9,2.9-38.2,10.1-56.5,20.1
	c-6.6,3.6-13,6.5-19.4,8.9h0.3C196.9,131.5,203.1,128.7,209.5,125.2z"/>
<path class="st0" d="M29.4,133.9c-9.7-2.2-19.4-4.1-29.4-5c0,0.1,0,0.2,0,0.3c9.6,0.9,18.8,2.7,28,4.8H29.4z"/>
<path class="st0" d="M268.4,110.9c1.2-0.2,2.5-0.4,3.7-0.7c-2.2,0.3-4.5,0.6-6.8,0.9c-1.2,0.2-2.5,0.5-3.7,0.7
	C263.8,111.5,266.1,111.2,268.4,110.9z"/>
<path class="st0" d="M286.4,105.5c44.2-0.5,88.5-1,132.7-1.4c0.2,1.1-0.2,1.8-0.9,2.4c0.9-0.6,1.4-1.4,1.2-2.7
	c-44.2,0.5-88.5,1-132.7,1.4c-0.9-0.1-1.8-0.3-2.7-0.4c-4.7-0.5-9.3-1.3-13.9-2.4C275.5,103.8,280.9,104.8,286.4,105.5z"/>
<path class="st1" d="M248.6,96.7c6.6,2.1,13.3,3.9,20,5.5c-4.9-1.1-9.8-2.5-14.6-4.1C252.2,97.7,250.4,97.2,248.6,96.7z"/>
<path class="st2" d="M209.1,82.1c-2.3-0.9-4.7-1.8-7.1-2.6c2.3,0.8,4.6,1.7,6.9,2.7c0.5,0.2,1,0.3,1.5,0.5
	C210,82.5,209.6,82.3,209.1,82.1z"/>
<path class="st2" d="M229.1,120.9c4.6-1.7,9.2-3.3,13.9-4.7C238.3,117.5,233.6,119.1,229.1,120.9z"/>
<path class="st2" d="M-0.1,129.1c-0.5,3.3,3.4,4.4,8,4.8h20C18.7,131.8,9.5,130-0.1,129.1z"/>
<path class="st2" d="M209.5,125.2c-6.4,3.5-12.6,6.3-18.8,8.7h13.9c7.6-3.9,14.6-9,22.4-12.2c-0.3,0.1-0.6,0.3-0.8,0.4
	c0.4-0.2,0.8-0.4,1.3-0.6c0.1,0,0.2-0.1,0.2-0.1c0.2-0.1,0.5-0.2,0.7-0.3c10.4-4.8,21.7-7.5,33.1-9.3c1.2-0.3,2.5-0.5,3.7-0.7
	c-1.1,0.2-2.3,0.3-3.4,0.5c7-1.5,14.1-2.6,21.2-3.6c23-0.2,46-0.4,69-0.5c16.3-0.2,32.5-0.3,48.8-0.4c3.4,0,13.7,1.8,17.4-0.5
	c0.7-0.6,1.1-1.4,0.9-2.4c-44.2,0.5-88.5,1-132.7,1.4c-5.4-0.8-10.9-1.8-16.3-3c-0.5-0.1-1-0.2-1.5-0.3c-6.7-1.6-13.4-3.4-20-5.5
	c-5.7-1.6-11.3-3.3-16.9-5.2c-7.8-2.7-15.2-6.2-22.8-9.3c-8.6-2.8-17.3-5.2-26.2-6.7c4.2,0.2,8.3,0.8,12.2,1.8
	c-26.8-7.3-57.6-7.2-84.3-8.8c-32.7-2-65.5-2.9-98.3-3c-3.7,0-7.4,0-11,0c-0.3,0-0.6,0.1-0.9,0.2c-1,1-0.4,3.3,1.9,3.4
	c11.2,0.4,22.4,0.8,33.6,1.2C53,70.9,70,71.8,87.1,72.7c32.5,1.7,65.5,4.5,97.6,10.1c28.1,4.9,54.3,19.9,82.8,21.9
	c-0.4,0.1-0.8,0.1-1.2,0.2c0.3,0,0.6,0.1,0.8,0.1C245.8,107.7,228.2,115,209.5,125.2z"/>
<path class="st3" d="M268.6,102.2c0.5,0.1,1,0.2,1.5,0.3c4.6,1,9.2,1.8,13.9,2.4c-4.5-0.7-9.1-1.6-13.6-2.6c3.5,0.8,7,1.4,10.5,1.9
	c-9-1.8-18-3.8-26.9-6.1C258.8,99.7,263.7,101,268.6,102.2z"/>
<path class="st3" d="M210.5,82.7c-0.5-0.2-1-0.3-1.5-0.5c7.6,3.1,15,6.7,22.8,9.3c5.6,1.9,11.2,3.6,16.9,5.2c1.8,0.5,3.6,1,5.4,1.5
	C239.4,93.5,225.1,87.5,210.5,82.7z"/>
<path class="st3" d="M194.9,77.3c-3.9-1-8-1.7-12.2-1.8c8.9,1.5,17.6,3.8,26.2,6.7c-2.3-0.9-4.6-1.8-6.9-2.7
	C199.7,78.7,197.3,77.9,194.9,77.3z"/>
<path class="st3" d="M228.5,121.2c0.2-0.1,0.4-0.2,0.7-0.2c4.4-1.9,9.1-3.4,13.9-4.7c1.7-0.5,3.5-1,5.2-1.5
	c6.8-1.6,13.6-2.8,20.1-3.9c-2.3,0.3-4.6,0.6-6.8,1C250.2,113.6,238.9,116.4,228.5,121.2z"/>
<path class="st0" d="M38,101.8c0.4,0,0.8,0,1.1,0C27.2,97.9,12.4,99,0,99.1c0,0.1,0,0.2,0,0.2C12.1,99.2,26.4,98.2,38,101.8z"/>
<path class="st2" d="M38,101.8c-11.6-3.6-25.9-2.6-38-2.5C1.1,103.9,29.8,102,38,101.8z"/>
<path class="st0" d="M225.6,122.5c0,0-0.1,0-0.1,0.1c-3.1,1.5-6,3.2-8.7,5.2c0.1-0.1,0.2-0.1,0.3-0.2c1.8-1.3,3.7-2.5,5.7-3.5
	C223.7,123.5,224.6,123,225.6,122.5z"/>
<path class="st2" d="M226.2,122.1c-0.3,0.1-0.5,0.3-0.8,0.4c0,0,0.1,0,0.1-0.1C225.8,122.3,226,122.2,226.2,122.1z"/>
<path class="st3" d="M217,127.6c1.8-1.3,3.7-2.4,5.7-3.5C220.7,125.1,218.8,126.3,217,127.6z"/>
<path class="st0" d="M198.1,65.3c-2-0.5-4.1-0.9-6.1-1.1C193.9,64.5,196,64.9,198.1,65.3z"/>
<path class="st0" d="M84.3,88.2c24.8,1.1,51.9,1.1,76.5,7.7c8.4,1.7,16.5,4.3,23,8.8c0.1-0.1,0.2-0.2,0.4-0.2
	c-6.5-4.5-14.7-7.1-23-8.8C136.5,89,109.5,89,84.6,88c-28.4-1.2-56.1,1.6-84.4,1.9c0,0.1,0,0.2,0,0.2C28.4,89.8,56,87,84.3,88.2z"/>
<path class="st0" d="M15.2,107.7c5.2-0.1,10.5-0.6,15.7-0.3c-0.1,0-0.1,0-0.2,0c14.9,0.3,27.9,6.6,41.7,11.2
	c30.2,7.3,58.6,2.3,85.5-13.1c0,0,0,0-0.1,0c-26.8,15.2-55,20.1-85.1,12.9C58.9,113.8,46,107.4,31,107.2c0.1,0,0.1,0,0.2,0
	c-5.2-0.3-10.5,0.2-15.7,0.3c-6.1,0.1-11.2-1.3-13.8,0.7C4.4,106.5,9.3,107.8,15.2,107.7z"/>
<path class="st1" d="M61.8,94.5c-5,0.6-10,1-15,0.9c0.1,0,0.1,0.1,0.2,0.1C51.8,96,56.9,95.3,61.8,94.5z"/>
<path class="st2" d="M0,115.2c29.9-2.8,59.4,10,89.3,10.1c31.7,0.1,66.1-2.5,93.7-20.1c-11.2,6.8-23.6,11.2-36.3,14.4
	c-4.4,1.2-8.9,2.2-13.5,2.9c4.5-0.8,9-1.8,13.5-2.9c12-3.3,23.5-8.4,34.2-14.6c-12.4-7.2-27.9-9.6-41.8-12.4
	c6.8,0.9,14.3,1.8,21.7,3.3c-24.6-6.6-51.6-6.6-76.5-7.7C56,87,28.4,89.8,0.2,90.1c0,1.1,0,2.2,0,3.5c14.7-0.4,28.2,0.2,42.7,1.4
	c1.1,0.1,2.2,0.2,3.3,0.2c0.2,0.1,0.4,0.2,0.5,0.3c5,0.1,10-0.3,15-0.9c1.6-0.3,3.3-0.5,4.9-0.8c0,0,0,0,0,0c0.1,0,0.1,0,0.2,0
	c0.2,0,0.3-0.1,0.5-0.1c0,0-0.1,0-0.1,0c3.7-0.5,7.4-1,11.1-1.3c25.8-2.1,56.4,1.1,79.8,12.9c-0.1,0.1-0.3,0.1-0.4,0.2
	c0,0,0,0,0.1,0c-26.9,15.4-55.2,20.4-85.5,13.1c0.7,0.2,1.4,0.5,2.2,0.7c-14.8-3.6-28.5-10.1-43.7-11.9c-5.2-0.3-10.5,0.2-15.7,0.3
	c-5.9,0.1-10.8-1.2-13.5,0.5C0.4,109.3-0.3,111.3,0,115.2z"/>
<path class="st3" d="M146.7,119.6c-4.5,1.1-9,2.1-13.5,2.9C137.8,121.8,142.3,120.8,146.7,119.6z"/>
<path class="st3" d="M139.1,92.6c13.9,2.8,29.4,5.2,41.8,12.4c-10.7,6.2-22.2,11.3-34.2,14.6c12.7-3.2,25-7.6,36.3-14.4
	c0.3-0.2,0.5-0.3,0.8-0.5c-6.5-4.5-14.6-7.1-23-8.8C153.4,94.4,145.9,93.5,139.1,92.6z"/>
<path class="st3" d="M30.9,107.4c15.2,1.7,28.9,8.3,43.7,11.9c-0.7-0.2-1.4-0.5-2.2-0.7c-13.9-4.6-26.8-10.9-41.7-11.2
	C30.8,107.4,30.8,107.4,30.9,107.4z"/>
<path class="st3" d="M46.9,95.5c5.8,2.7,13.8,0.2,19.7-1.8c-1.6,0.3-3.2,0.5-4.9,0.8C56.9,95.3,51.8,96,46.9,95.5z"/>
<path class="st3" d="M67.4,93.6c-0.2,0-0.3,0.1-0.5,0.1C67,93.7,67.2,93.6,67.4,93.6C67.3,93.6,67.4,93.6,67.4,93.6z"/>
<path class="st0" d="M284.2,57.3c5.5,1.6,11.1,3.1,16.9,4.4C295.4,60.3,289.7,58.8,284.2,57.3z"/>
<path class="st0" d="M103.1,24.8c-24.3,0.4-48.7,0.8-73,1.2C24.6,26,7.2,23,1.6,27.4c6-4.1,22.7-1.1,28.2-1.2
	c24.3-0.4,48.7-0.8,73-1.2c27.9-0.5,55.8,1,83-6.4c18.7-5.1,36.7-12.1,54.8-18.6h-0.3c-17.9,6.5-35.7,13.4-54.1,18.4
	C158.9,25.8,131,24.3,103.1,24.8z"/>
<path class="st0" d="M386.8,12.3c-12.6,3.1-24.7,8-36.2,14.8c0,0,0,0,0,0c11.3-6.7,23.3-11.6,35.8-14.6c10.6-2.9,21.5-4.4,32.6-3.9
	c0,11.2,0,22.3,0,33.4c0.1,0,0.2,0,0.3,0c0-11.2,0-22.4,0-33.7C408.3,7.9,397.4,9.4,386.8,12.3z"/>
<path class="st0" d="M1,6.3C7.5,1.9,29.5,4,34.3,3.8C63.7,2.6,92.7,2,121.5,0h-3.5C90.5,1.8,62.7,2.4,34.6,3.6
	C29.8,3.8,7.1,1.6,1,6.3z"/>
<path class="st0" d="M237,28.4C256.4,16.4,276.8,7,297.9,0h-0.4C276.6,7,256.3,16.4,237,28.4C237,28.4,237,28.4,237,28.4z"/>
<path class="st0" d="M350,0h-0.6c-20.4,5-39.9,12.7-57,24.8C309.6,12.6,329.4,4.9,350,0z"/>
<path class="st0" d="M239.2,42.3c10.7,3.6,21,7.4,31.5,11c4.5,1.4,9,2.7,13.5,4c-15.1-4.5-29.4-10.1-44.6-15.2
	c-21.4-7.1-43.9-11-66.3-13.7c-0.3,0.1-0.6,0.1-0.8,0.2C195,31.2,217.6,35.1,239.2,42.3z"/>
<path class="st0" d="M295.2,60.6c-2.7-0.6-5.4-1.3-8.2-2c-19.3-4.7-37.6-11.2-56.1-17c-2.7-0.8-5.5-1.5-8.2-2.2
	c21.2,6.4,42,14.1,64,19.5c21.6,5.3,43.5,9.7,65.5,12.5c12.7,1.6,25.3,2.8,38,3.8c6.1,0.5,28.3-1.7,28.7,3.2c0.1,0,0.2,0,0.4,0
	c0.4-5.3-22.5-3-28.7-3.5c-12.7-1-25.3-2.2-38-3.8c-18.3-2.3-36.5-5.8-54.5-9.9c0.9,0.2,1.8,0.4,2.7,0.6
	C298.8,61.5,297,61.1,295.2,60.6z"/>
<path class="st3" d="M300.7,61.9c-0.9-0.2-1.8-0.4-2.7-0.6c-0.9-0.2-1.9-0.4-2.8-0.6C297,61.1,298.8,61.5,300.7,61.9z"/>
<path class="st0" d="M376.5,36.7C376.5,36.7,376.5,36.7,376.5,36.7L376.5,36.7C376.5,36.7,376.5,36.7,376.5,36.7z"/>
<path class="st0" d="M389.6,39.2c-1.8-0.4-3.6-0.7-5.4-1.1C386,38.5,387.8,38.9,389.6,39.2C389.6,39.2,389.6,39.2,389.6,39.2z"/>
<path class="st0" d="M374.5,36.1C374.5,36.1,374.5,36.1,374.5,36.1c-0.3-0.1-0.6-0.2-0.9-0.3C373.9,36,374.2,36.1,374.5,36.1z"/>
<polygon class="st0" points="372.1,35.4 372.1,35.4 372.1,35.4 "/>
<path class="st0" d="M379,36.8c1.7,0.4,3.5,0.9,5.2,1.3C382.5,37.7,380.7,37.3,379,36.8z"/>
<path class="st0" d="M373.7,35.4c1.4,0.4,2.8,0.8,4.3,1.1C376.6,36.2,375.1,35.8,373.7,35.4z"/>
<path class="st0" d="M368.3,33.8c0.3,0.2,0.7,0.3,1,0.5C368.9,34.1,368.6,34,368.3,33.8z"/>
<path class="st1" d="M372.1,35.4C372.1,35.4,372.1,35.4,372.1,35.4c0.3,0.1,0.7,0.2,1,0.3c0.2,0,0.3,0.1,0.5,0.1
	c0.3,0.1,0.6,0.2,0.9,0.3c0.4,0.1,0.8,0.2,1.2,0.3c0.3,0.1,0.5,0.1,0.8,0.2c0,0,0,0,0.1,0c4.3,1.1,8.7,2,13.1,2.5
	c-1.8-0.4-3.6-0.7-5.4-1.1c0,0,0,0,0,0c-1.7-0.4-3.5-0.8-5.2-1.3c-0.3-0.1-0.7-0.2-1-0.3c-1.4-0.4-2.8-0.7-4.3-1.1
	c-1.8-0.5-3.6-1.1-5.5-1.6c0.3,0.2,0.7,0.3,1,0.5C370.3,34.7,371.2,35.1,372.1,35.4z"/>
<path class="st2" d="M298.4,28c8.7,7.1,18.7,12,29.2,15.8C317.4,39.9,307.7,34.7,298.4,28z"/>
<path class="st2" d="M298.4,28c1.7-2.3,3.8-4.3,6-6.3C302.1,23.6,300,25.7,298.4,28z"/>
<path class="st2" d="M386.5,12.6c10.6-2.6,21.5-3.9,32.6-3.9C407.9,8.1,397,9.6,386.5,12.6z"/>
<path class="st2" d="M380.9,15.4c-5.5,1.7-19.1,10.7-26.7,12.2c4.4,1,9.6,4.1,14,6.2c1.8,0.6,3.6,1.1,5.5,1.6
	c1.4,0.4,2.8,0.8,4.3,1.1c0.3,0.1,0.7,0.2,1,0.3c1.7,0.4,3.5,0.9,5.2,1.3c0,0,0,0,0,0c1.8,0.4,3.6,0.8,5.4,1.1c1,0.1,2,0.2,3,0.3
	c8.7,1.6,17.5,2.5,26.4,2.6c0-11.1,0-22.2,0-33.4C406.2,10,393.3,11.4,380.9,15.4z"/>
<path class="st2" d="M368.3,33.8c1.8,0.6,3.6,1.1,5.5,1.6C371.9,34.9,370.1,34.4,368.3,33.8z"/>
<path class="st2" d="M384.2,38.1C384.2,38.1,384.2,38.1,384.2,38.1C384.2,38.1,384.2,38.1,384.2,38.1z"/>
<path class="st2" d="M378,36.6c0.3,0.1,0.7,0.2,1,0.3C378.7,36.8,378.3,36.7,378,36.6z"/>
<path class="st2" d="M232.4,10.4c3.3-1.4,6.5-3.2,9.7-5.1c-3.7,1.5-7.4,2.9-11.1,4.4c-6.3,2.7-12.7,5.3-19.2,7.4
	c-4.4,1.6-8.9,3.2-13.4,4.6C209.9,18.6,221.2,15,232.4,10.4z"/>
<path class="st3" d="M195.9,22.3c0.8-0.2,1.6-0.4,2.5-0.7c4.5-1.5,9-3,13.4-4.6c-1.5,0.5-3,0.9-4.5,1.4c-27.8,8-56.8,9.3-85.6,10.7
	c32.8,0,63.8,1.6,95.9,9.1c1.7,0.4,3.4,0.8,5.1,1.2c2.8,0.7,5.5,1.4,8.2,2.2c-2.6-0.8-5.3-1.6-7.9-2.4c16,4.1,31.8,9.2,47.6,14.1
	c-10.4-3.5-20.7-7.4-31.5-11c-21.6-7.2-44.2-11.1-66.8-13.8c0.3-0.1,0.6-0.1,0.8-0.2c-0.2,0-0.3,0-0.5-0.1
	C180.6,26.7,188.3,24.7,195.9,22.3z"/>
<path class="st3" d="M211.8,17c6.5-2.1,12.9-4.7,19.2-7.4C224.6,12.2,218.2,14.7,211.8,17z"/>
<path class="st3" d="M321.8,0.5c-20.6,5.3-42,12.8-56,27.7c5.6,4.5,11.3,7.9,17.2,10.7c-3.9-2-7.4-4.3-10.5-6.9
	c-1.4-1.2-2.7-2.5-3.9-3.9c0.1-0.1,0.2-0.2,0.3-0.2c0,0,0,0,0,0C285.3,16.3,302.8,6.5,321.8,0.5z"/>
<path class="st3" d="M306.9,19.9C307,19.9,307,19.9,306.9,19.9c0.1,0,0.1-0.1,0.1-0.1C307,19.8,307,19.9,306.9,19.9z"/>
<path class="st3" d="M307.4,19.6c8.4-4.5,17.1-8.3,25.9-12C325.2,10.7,315.2,14.3,307.4,19.6C307.4,19.6,307.4,19.6,307.4,19.6z"/>
<path class="st3" d="M298.4,28c1.6-2.3,3.7-4.4,6-6.3c0.8-0.6,1.6-1.3,2.5-1.9c-0.2,0.1-0.4,0.2-0.6,0.3c-8.4,4.5-12.9,5.9-4,12.4
	c13.9,10.1,32.8,16.1,49.7,18.3c-1.2-0.3-2.3-0.6-3.5-0.9c-7-1.8-14.1-3.8-21-6.3C317.1,40,307.1,35.1,298.4,28z"/>
<path class="st3" d="M316.6,27.8c13.4-8.1,28-14.2,42.9-19.1c0.3-0.1,0.7-0.2,1-0.3c-16.3,4.4-32.3,10.3-46.7,19.1
	c17.5,10.5,36.1,17.9,56.5,20.3c-19.2-3.2-37.4-9.4-54.1-19.7c0,0,0,0,0,0C316.4,27.9,316.6,27.9,316.6,27.8
	C316.7,27.8,316.7,27.8,316.6,27.8C316.6,27.8,316.6,27.8,316.6,27.8z"/>
<path class="st3" d="M372.1,35.4c-0.9-0.3-1.8-0.7-2.8-1.1c-0.3-0.2-0.7-0.3-1-0.5c-4.4-2.1-9.7-5.2-14-6.2
	c7.6-1.5,21.2-10.5,26.7-12.2c12.4-4,25.3-5.4,38.2-6.7c-11.2,0-22.1,1.3-32.6,3.9c-12.5,3-24.5,7.9-35.8,14.6
	C357.6,30.2,364.7,33.2,372.1,35.4C372.1,35.4,372.1,35.4,372.1,35.4z"/>
<path class="st3" d="M372.1,35.4c-0.9-0.3-1.8-0.7-2.8-1.1C370.3,34.7,371.2,35.1,372.1,35.4z"/>
<path class="st1" d="M253.1,0h-0.8c-2.1,0.8-4.1,1.8-6.1,3C248.5,2,250.8,1,253.1,0z"/>
<path class="st3" d="M231,9.7c3.7-1.5,7.4-2.9,11.1-4.4c0.2-0.1,0.4-0.2,0.6-0.3c4.3-1.7,8.6-3.3,12.9-4.9h-2.5c-2.3,1-4.6,2-6.9,3
	C241.1,5.2,236.1,7.5,231,9.7z"/>
<path class="st2" d="M355,46.4c21.2,4.1,42.4,6.4,63.9,8.3c0.1-0.9,0.1-1.7,0.2-2.6c-35.8,1.2-71-8.3-102.8-24c0,0,0,0,0,0
	c0,0,0,0,0,0c16.7,10.3,34.9,16.5,54.1,19.7c-20.4-2.4-39-9.8-56.5-20.3c14.4-8.8,30.4-14.7,46.7-19.1c2.3-0.7,4.6-1.4,6.8-2
	c4.5-1.3,24.4-3.8,38.1-6.3H384c-26.6,4.4-52.1,12.6-75.1,27.8C319.6,39.3,340.2,43.6,355,46.4z"/>
<path class="st2" d="M289.1,27.2c31.8,28.9,89.3,29.6,129.7,32.2c-1.1-4-19.8-2.7-24.9-3.1c-11.4-0.8-22.6-2.2-33.9-4
	c-3.9-0.6-7.7-1.3-11.4-2.2c1.2,0.3,2.3,0.6,3.5,0.9c-16.9-2.2-35.8-8.2-49.7-18.3c-8.9-6.5-4.5-7.9,4-12.4c0.8-0.6,1.6-1.2,2.5-1.8
	C321.5,9.7,339,5,352.4,2.1c2.2-0.5,7.7-1.2,14.8-2.1H350c-20.6,4.9-40.4,12.6-57.7,24.8C291.3,25.6,290.2,26.4,289.1,27.2z"/>
<path class="st2" d="M419.2,68.6c0-0.2,0.1-0.3,0.1-0.5c0.1-0.6,0.1-1.1,0-1.6c-0.1-0.4-0.2-0.7-0.4-1c-26.7-1.7-55.7-3.3-81.4-10.7
	c-1.9-0.5-3.8-1-5.6-1.5c-2.7-0.6-5.3-1.2-7.9-1.8c-13.1-2.6-28.5-6.3-40.8-12.7c-5.9-2.8-11.7-6.2-17.2-10.7
	c14-14.9,35.5-22.4,56-27.7c0.5-0.2,1-0.3,1.5-0.5h-25.4c-21,7-41.4,16.4-60.9,28.4C291.3,56.8,359.2,62,419.2,68.6z"/>
<path class="st2" d="M102.8,25c-24.3,0.4-48.7,0.8-73,1.2c-5.5,0.1-22.3-2.9-28.2,1.2c-1.5,1.2-2.2,2.9-1.5,5.5
	c6.2,0,12.3,0.1,18.5,0.1c70.2,0.4,142.6-4.9,211,13.7c15.6,4.2,30.1,10.9,45.7,15.2c15.9,4.4,32.4,6.4,48.6,8.8
	c31.4,4.7,63.4,6.3,95,7.8c-0.4-5-22.6-2.7-28.7-3.2c-12.7-1-25.3-2.2-38-3.8c-22-2.8-43.9-7.2-65.5-12.5c-22-5.4-42.8-13.1-64-19.5
	c-1.7-0.4-3.4-0.8-5.1-1.2c-32.1-7.5-63.1-9.1-95.9-9.1c28.8-1.4,57.8-2.7,85.6-10.7c1.5-0.4,3-0.9,4.5-1.4
	c6.4-2.4,12.8-4.9,19.2-7.4c5.1-2.2,10.1-4.5,15.2-6.7c2-1.1,4-2.1,6.1-3h-11.7c-18.2,6.5-36.1,13.5-54.8,18.6
	C158.6,26,130.7,24.5,102.8,25z"/>
<path class="st2" d="M-0.3,33.1C-0.3,33.1-0.3,33.1-0.3,33.1c0-1.2,0-2.3,0-3.5C-0.6,30.6-0.7,31.7-0.3,33.1z"/>
<path class="st2" d="M172.4,0h-50.8C92.7,2,63.7,2.6,34.3,3.8C29.5,4,7.5,1.9,1,6.3c-0.6,0.5-1,1-1.3,1.6c0-0.1,0-0.2,0-0.4
	c-0.1,0.2-0.3,0.4-0.3,0.6c-0.3,0.7-0.3,1.6,0,2.6c0.1,0,0.2,0,0.3,0c0-0.1,0-0.2,0-0.3C57.6,12.8,115.4,9.3,172.4,0z"/>
<path class="st1" d="M386.8,39c-0.5-0.1-0.9-0.2-1.4-0.3C385.8,38.9,386.3,38.9,386.8,39z"/>
<path class="st1" d="M392.2,39.8c-0.8-0.1-1.5-0.2-2.3-0.3C390.7,39.6,391.5,39.7,392.2,39.8z"/>
<path class="st1" d="M389.2,39.4c-0.5-0.1-1-0.1-1.5-0.2C388.2,39.2,388.7,39.3,389.2,39.4z"/>
<path class="st1" d="M384.4,38.6c-0.6-0.1-1.1-0.2-1.7-0.4C383.3,38.4,383.9,38.5,384.4,38.6z"/>
<path class="st1" d="M378.8,37.3c-0.2,0-0.4-0.1-0.6-0.1C378.4,37.2,378.6,37.2,378.8,37.3z"/>
<polygon class="st1" points="376.6,36.7 376.6,36.7 376.6,36.7 "/>
<path class="st1" d="M392.2,39.8c-0.9-0.2-1.7-0.3-2.6-0.5c0,0,0,0,0,0C390.5,39.4,391.4,39.6,392.2,39.8z"/>
<path class="st1" d="M381.1,37.9c-0.3-0.1-0.5-0.1-0.8-0.2C380.5,37.7,380.8,37.8,381.1,37.9z"/>
<path class="st1" d="M376.6,36.7C376.6,36.7,376.6,36.7,376.6,36.7c0.5,0.1,1.1,0.3,1.6,0.4c0.2,0,0.4,0.1,0.6,0.1
	c0.5,0.1,1,0.2,1.5,0.4c0.3,0.1,0.5,0.1,0.8,0.2c0.6,0.1,1.1,0.3,1.7,0.4c0.6,0.1,1.1,0.2,1.7,0.4c0.3,0.1,0.6,0.1,0.9,0.2
	c0.5,0.1,0.9,0.2,1.4,0.3c0.3,0.1,0.6,0.1,0.9,0.1c0.5,0.1,1,0.2,1.5,0.2c0.3,0,0.5,0.1,0.8,0.1c0.8,0.1,1.5,0.2,2.3,0.3
	c-0.9-0.2-1.7-0.3-2.6-0.5C385.2,38.7,380.9,37.9,376.6,36.7z"/>
<path class="st1" d="M307.4,19.6c0,0-0.1,0.1-0.1,0.1c-0.1,0.1-0.2,0.1-0.2,0.2C307.2,19.7,307.3,19.6,307.4,19.6z"/>
<path class="st1" d="M272.9,31.7c13.1,7.6,27,13,41.3,17c4.5,1.1,9.1,2.2,13.8,3.3c2,0.4,4,0.8,5.9,1.1c12.9,2.4,25.9,4.8,39,6.7
	c4.5,0.6,9.1,1.2,13.6,1.7c6.9,0.8,13.8,1.5,20.7,2c2.8,0.2,7.7-0.5,10.5,0.6c0.6,0,1.3,0,1.9,0.1c-0.1,0.4-0.1,0.7-0.2,1.1
	c-0.1,0-0.1,0-0.2,0c0.2,0.3,0.3,0.6,0.4,1c0-12.6-0.1-21.5-0.1-24.4c0-14,0-28,0-42h-13c-13.8,2.5-34.9,5.1-39.5,6.5
	c-2.6,0.8-5.2,1.5-7.9,2.4c-14.8,4.9-29.2,11-42.5,18.9c31.8,15.7,67,25.2,102.8,24c-0.1,1-0.1,1.9-0.2,2.9c-0.1,0-0.2,0-0.3,0
	c0,0.1,0,0.2,0,0.3c-21.6-1.9-42.9-4.2-64.2-8.3c-14.8-2.8-35.5-7.1-46.2-18.6c0.1-0.1,0.2-0.1,0.4-0.2c0,0,0,0,0,0
	c22.7-15,47.8-23.3,74-27.8h-14.1c-7.9,1-14.3,1.8-16.7,2.3c-13.3,2.9-30.6,7.5-43.2,16.1c-0.7,0.5-1.4,1-2.1,1.5
	c0.2-0.1,0.4-0.2,0.6-0.3c8.9-6.1,20.7-10.1,29.6-13.5c-1.2,0.5-2.3,1-3.5,1.4c1.1-0.4,2.1-0.8,3.1-1.2c-10,4.1-19.9,8.3-29.4,13.4
	c0,0-0.1,0-0.1,0.1c-0.8,0.5-1.5,1.1-2.2,1.6c-2.3,1.9-4.3,4-6,6.3c9.3,6.7,19,11.9,29.2,15.8c6.9,2.5,14,4.5,21,6.3
	c3.7,0.8,7.5,1.6,11.4,2.2c11.3,1.8,22.5,3.2,33.9,4c5.3,0.4,24.7-0.9,25,3.4c-0.1,0-0.3,0-0.4,0c0,0.1,0.1,0.2,0.1,0.3
	c-40.4-2.6-98.2-3.2-130.1-32.2c1.2-0.9,2.3-1.7,3.5-2.6C309.4,12.7,328.9,5,349.4,0h-25.7c-19.7,6-37.9,16-54.8,27.9
	C270.1,29.2,271.5,30.5,272.9,31.7z M419.4,42.2c-0.1,0-0.2,0-0.3,0c0,0.1,0,0.2,0,0.3c-9-0.1-18-1-26.8-2.6
	c-14.6-1.1-28.8-6.5-42-12.4c0.1-0.1,0.3-0.1,0.4-0.2c0,0,0,0,0,0c11.4-6.9,23.6-11.8,36.2-14.8c10.6-2.9,21.5-4.4,32.6-3.9
	C419.4,19.8,419.4,31,419.4,42.2z"/>
<path class="st1" d="M372.1,35.4c0.1,0,0.1,0.1,0.2,0.1C372.2,35.5,372.2,35.4,372.1,35.4C372.1,35.4,372.1,35.4,372.1,35.4z"/>
<path class="st1" d="M372.1,35.4c0.1,0,0.1,0.1,0.2,0.1c0.3,0.1,0.5,0.2,0.8,0.2C372.8,35.6,372.4,35.5,372.1,35.4z"/>
<path class="st1" d="M323.6,0L323.6,0c-0.5,0.1-0.9,0.2-1.4,0.3C322.7,0.2,323.2,0.1,323.6,0z"/>
<path class="st1" d="M389.6,39.2c0.9,0.2,1.7,0.4,2.6,0.5c0.2,0,0.3,0,0.5,0c-0.1,0-0.3,0-0.4,0c8.8,1.6,17.8,2.5,26.8,2.6
	c0-0.1,0-0.2,0-0.3c-8.9-0.1-17.7-1.1-26.4-2.6C391.7,39.5,390.6,39.4,389.6,39.2z"/>
<path class="st1" d="M321.8,0.5c-19,6.1-36.5,15.8-52.9,27.4c0,0,0,0,0,0C285.8,16,304,6,323.7,0h-0.1c-0.5,0.1-0.9,0.2-1.4,0.3
	C322.1,0.4,322,0.4,321.8,0.5z"/>
<path class="st1" d="M307.4,19.6c-0.1,0.1-0.3,0.2-0.4,0.2c0,0,0,0-0.1,0c0,0,0.1,0,0.1-0.1c9.5-5.1,19.4-9.3,29.4-13.4
	c-1,0.4-2.1,0.8-3.1,1.2C324.5,11.2,315.8,15,307.4,19.6C307.4,19.6,307.4,19.6,307.4,19.6z"/>
<path class="st1" d="M360.6,8.3c-0.3,0.1-0.7,0.2-1,0.3c-14.9,4.9-29.5,11.1-42.9,19.1c0,0,0,0,0,0c0,0,0,0,0,0
	c13.3-8,27.8-14,42.5-18.9c1-0.3,1.9-0.6,2.9-1C361.6,8,361.1,8.2,360.6,8.3z"/>
<path class="st1" d="M392.2,39.8c-0.8-0.1-1.5-0.2-2.3-0.3c-0.3,0-0.5-0.1-0.8-0.1c-0.5-0.1-1-0.1-1.5-0.2c-0.3,0-0.6-0.1-0.9-0.1
	c-0.5-0.1-0.9-0.2-1.4-0.3c-0.3-0.1-0.6-0.1-0.9-0.2c-0.6-0.1-1.1-0.2-1.7-0.4c-0.6-0.1-1.1-0.3-1.7-0.4c-0.3-0.1-0.5-0.1-0.8-0.2
	c-0.5-0.1-1-0.2-1.5-0.4c-0.2,0-0.4-0.1-0.6-0.1c-0.5-0.1-1.1-0.3-1.6-0.4c0,0,0,0,0,0c0,0,0,0-0.1,0c-0.7-0.2-1.3-0.4-2-0.6
	c0,0,0,0,0,0c-0.3-0.1-0.6-0.2-0.9-0.3c-0.4-0.1-0.9-0.3-1.3-0.4c-0.1,0-0.1-0.1-0.2-0.1c-7.4-2.3-14.5-5.2-21.4-8.2
	c-0.1,0.1-0.3,0.1-0.4,0.2C363.5,33.2,377.8,38.7,392.2,39.8c0.2,0,0.3,0,0.5,0C392.5,39.8,392.4,39.8,392.2,39.8z"/>
<path class="st1" d="M374.5,36.1c0.7,0.2,1.3,0.4,2,0.6c-0.3-0.1-0.5-0.1-0.8-0.2C375.3,36.4,374.9,36.3,374.5,36.1z"/>
<path class="st1" d="M389.9,39.5c-0.3,0-0.5-0.1-0.8-0.1C389.4,39.4,389.7,39.5,389.9,39.5z"/>
<path class="st1" d="M387.7,39.2c-0.3,0-0.6-0.1-0.9-0.1C387.1,39.1,387.4,39.1,387.7,39.2z"/>
<path class="st1" d="M382.8,38.2c-0.6-0.1-1.1-0.3-1.7-0.4C381.6,38,382.2,38.1,382.8,38.2z"/>
<path class="st1" d="M385.4,38.8c-0.3-0.1-0.6-0.1-0.9-0.2C384.7,38.7,385.1,38.7,385.4,38.8z"/>
<path class="st1" d="M372.3,35.5c0.4,0.1,0.9,0.3,1.3,0.4c-0.2,0-0.3-0.1-0.5-0.1C372.8,35.7,372.6,35.6,372.3,35.5z"/>
<path class="st1" d="M378.2,37.1c-0.5-0.1-1.1-0.3-1.6-0.4C377.1,36.9,377.7,37,378.2,37.1z"/>
<path class="st1" d="M380.3,37.7c-0.5-0.1-1-0.2-1.5-0.4C379.3,37.4,379.8,37.5,380.3,37.7z"/>
<path class="st1" d="M360.6,8.3c0.5-0.1,1-0.3,1.5-0.4c-1,0.3-1.9,0.6-2.9,1c2.6-0.8,5.3-1.6,7.9-2.4c4.6-1.4,25.7-4,39.5-6.5h-1
	c-13.8,2.5-33.7,4.9-38.1,6.3C365.2,6.9,362.9,7.6,360.6,8.3z"/>
<path class="st1" d="M308.9,27.8c-0.1,0.1-0.2,0.1-0.4,0.2c10.7,11.5,31.4,15.8,46.2,18.6c21.3,4.1,42.6,6.4,64.2,8.3
	c0-0.1,0-0.2,0-0.3c-21.5-1.9-42.7-4.2-63.9-8.3C340.2,43.6,319.6,39.3,308.9,27.8z"/>
<path class="st1" d="M292.3,24.8c-1.2,0.8-2.4,1.7-3.5,2.6c31.9,29,89.7,29.6,130.1,32.2c0-0.1,0-0.2-0.1-0.3
	c-40.4-2.6-97.9-3.3-129.7-32.2C290.2,26.4,291.3,25.6,292.3,24.8z"/>
<path class="st1" d="M308.9,18.4c12.6-8.6,29.9-13.2,43.2-16.1c2.4-0.5,8.8-1.3,16.7-2.3h-1.6c-7,0.9-12.6,1.6-14.8,2.1
	C339,5,321.5,9.7,308.9,18.4z"/>
<path class="st1" d="M322.3,0.3c0.4-0.1,0.8-0.2,1.3-0.3h-0.2c-0.5,0.2-1,0.3-1.5,0.5C322,0.4,322.1,0.4,322.3,0.3z"/>
<path class="st1" d="M1,6.3c6.1-4.7,28.8-2.5,33.6-2.7C62.7,2.4,90.5,1.8,118.1,0H-0.3c0,2.5,0,5,0,7.5C0,7,0.5,6.7,1,6.3z"/>
<path class="st1" d="M1,6.3C0.5,6.7,0,7-0.3,7.5c0,0.1,0,0.2,0,0.4C0,7.3,0.4,6.8,1,6.3z"/>
<path class="st1" d="M1.6,27.4C7.2,23,24.6,26,30.1,26c24.3-0.4,48.7-0.8,73-1.2c27.9-0.5,55.8,1,83-6.4c18.4-5,36.2-11.9,54.1-18.4
	h-66.7C116.2,9.5,58,13-0.3,10.7c0,6.3,0,12.6,0,18.9C0.1,28.7,0.7,28,1.6,27.4z"/>
<path class="st1" d="M0.4,65.7c0.3-0.3,0.7-0.4,1.2-0.4c3.6,0,7.3,0,11,0c32.8,0.1,65.6,1,98.3,3c26.7,1.6,57.5,1.6,84.3,8.8
	c2.4,0.6,4.8,1.3,7.1,2.2c2.4,0.8,4.8,1.7,7.1,2.6c0.5,0.2,0.9,0.4,1.4,0.6c14.6,4.9,28.9,10.8,43.5,15.5
	c10.2,2.7,20.5,4.9,30.9,6.9c-1.5-0.2-2.9-0.3-4.4-0.5c1.3,0.3,2.7,0.5,4,0.8c-0.3,0-0.6-0.1-0.9-0.1c0.9,0.1,1.8,0.3,2.7,0.4
	c44.2-0.5,88.5-1,132.7-1.4c0.2,1.2-0.3,2.1-1.2,2.7c-3.3,2.7-14.2,0.8-17.7,0.8c-16.3,0.1-32.5,0.2-48.8,0.4c-23,0.2-46,0.4-69,0.5
	c-5.8,0.8-11.6,1.8-17.4,2.9c2.3-0.3,4.5-0.6,6.8-0.9c-1.2,0.2-2.4,0.4-3.7,0.7c1.1-0.1,2.2-0.3,3.3-0.4c-7.5,1.4-15.7,2.7-23.7,4.6
	c-7,1.9-13.9,4-20.6,6.6c-0.1,0-0.2,0.1-0.2,0.1c-0.4,0.2-0.8,0.4-1.3,0.6c-3.3,1.6-6.5,3.5-9.5,5.6c0.2-0.1,0.4-0.3,0.6-0.4
	c-0.1,0.1-0.2,0.1-0.3,0.2c2.7-2,5.7-3.7,8.7-5.2c-7.2,3.1-13.7,7.7-20.7,11.4h22.7c1.3-0.6,2.6-1.1,3.9-1.7
	c27.5-12.7,63.1-9.8,92.9-10.7c31.7-0.9,63.5-1.1,95.2-1.1c0.1,0.4,0.2,0.7,0.3,1.1c0-9.1,0-17.8,0-26.1c-0.1,0.1-0.2,0.2-0.3,0.3
	c-0.1,0-0.1,0.1-0.2,0.1c-0.1,0-0.1,0.1-0.2,0.1c-1.8,1.4-10.7,0-12.9,0c-11.2,0-22.3,0-33.5,0c-33,0-65.7,1.8-98.3-3.7
	c-15.1-2.5-30.7-4.9-45.2-9.8c-14-4.7-26.9-10.6-41.5-13.8c-28.6-6.3-59.8-4.8-89-5.8c-23.2-0.8-46.3-1.6-69.5-2.4
	C24.5,60,0.8,62.7-0.3,56.2c0,3.4,0,6.8,0,10.2C-0.1,66.1,0.1,65.9,0.4,65.7z"/>
<path class="st1" d="M228.9,77.8c-9.7-4.6-20.4-9.8-31.2-12.3c-1.9-0.4-3.7-0.7-5.6-1C204.8,67.8,216.6,74.5,228.9,77.8z"/>
<path class="st1" d="M16.4,121.2c-0.6-0.2-1.2-0.3-1.8-0.5c7,0.6,13.8,2.2,20.6,3.9c22.7,3.7,45.2,7.7,68.5,8.7
	c38.3,1.6,73.9-6.6,105.1-28.7c-31.1-14.9-68-19.4-102.1-21c-17.8-0.9-35.6-1.8-53.5-2.4c-17-0.6-36.8-3-53.5,1.2
	c0,5.6,0,11.2,0,16.8c0.1,0,0.2,0,0.3,0c0-0.1,0-0.2,0-0.2c12.4-0.1,27.2-1.2,39.1,2.7c-0.3,0-0.7,0-1.1,0c0.3,0.1,0.5,0.1,0.8,0.2
	c-6.3,0-38.2,2.4-39.1-2.5c0,4.1,0,8.2,0,12.3c0.3-1.9,1-3,2-3.6c2.6-2,7.7-0.6,13.8-0.7c5.2-0.1,10.5-0.6,15.7-0.3
	c-0.1,0-0.1,0-0.2,0c14.9,0.3,27.9,6.6,41.7,11.2c30.1,7.2,58.3,2.3,85.1-12.9c-23.4-11.8-54-15-79.7-12.9
	c-3.9,0.3-7.8,0.8-11.7,1.4c-6.1,2.1-14.6,4.8-20.5,1.5c-1.1,0-2.2-0.1-3.3-0.2c-14.5-1.2-28-1.8-42.7-1.4c0-1.3,0-2.5,0-3.7
	c0.1,0,0.2,0,0.3,0c0-0.1,0-0.2,0-0.2c28.3-0.3,56-3.1,84.4-1.9c24.8,1.1,51.9,1.1,76.5,7.7c8.4,1.7,16.5,4.3,23,8.8
	c-0.1,0.1-0.2,0.2-0.4,0.2c0,0,0,0,0,0c-27.7,18.2-62.7,20.9-94.8,20.8c-29.9-0.1-59.4-12.9-89.3-10.1c0,1.4,0,2.8,0,4.3
	c6.2,0.7,12.3,1.5,18.4,2.3c-1.3-0.3-2.6-0.7-3.9-1C15,121.1,15.7,121.1,16.4,121.2z M58.8,102.7c21.1-4,46.8-8.2,67.7,0.3
	c2.4,0.7,4.7,1.8,6.6,3.3c-0.1,0.1-0.3,0.1-0.4,0.2c0,0,0,0,0.1,0c-8.8,4.7-19.3,7.6-29.4,6.9c1.1,0,2.1-0.1,3.2-0.1
	c-1,0-1.9,0-2.9-0.1c7-0.1,14.2-1.4,20.7-4c-22.1,6-44.9,4.8-66-6.2c0.2,0,0.4-0.1,0.6-0.1C59,102.7,58.9,102.7,58.8,102.7z"/>
<path class="st1" d="M-0.3,131.1c0,0.9,0,1.9,0,2.8h5.7C2.7,133.5,0.4,132.7-0.3,131.1z"/>
<path class="st1" d="M225.6,122.5c-1,0.5-2,1-2.9,1.6c1-0.6,2.1-1.1,3.2-1.7c0.3-0.1,0.6-0.3,0.8-0.4
	C226.4,122.1,226,122.3,225.6,122.5z"/>
<path class="st1" d="M0.2,78.7c0-0.1,0-0.2,0-0.2c38.2-1.2,76.8-3.2,114.9-0.1c29.8,2.4,68.8,3.6,97.6,17.3c0.4,0.2,0.8,0.3,1.2,0.5
	c4.8,2.1,9.2,3.5,10.4,6.1c0.6,0.4,1.3,0.9,1.9,1.3c-0.7,0.9-1.5,1.7-2.2,2.5c-0.3,0.7-0.8,1.5-1.5,2.3c-2.5,3.4-5.8,6.3-9.5,8.9
	c-6.1,4.3-13.5,7.5-20.8,9.9c-7.5,3-15.4,5.2-23.4,6.8h21.6c6.4-2.4,12.8-5.3,19.4-8.9c18.4-10,35.7-17.2,56.5-20.1
	c-28.2-2.2-54.1-17-82-21.8c-32.1-5.6-65.1-8.4-97.6-10.1c-17.1-0.9-34.1-1.8-51.2-2.4C24.4,70.1,13.2,69.7,2,69.3
	c-1.2,0-2-0.7-2.3-1.5c0,4.8,0,9.6,0,14.4c0.2-1.2,0.2-2.4,0.2-3.5C0,78.7,0.1,78.7,0.2,78.7z"/>
<path class="st1" d="M287,58.7c2.7,0.7,5.4,1.3,8.2,2c-3.9-1-7.6-2-11.4-3.1c-17.7-5-35.2-11-52.9-15.9
	C249.4,47.4,267.8,53.9,287,58.7z"/>
<path class="st1" d="M0.2,54.5c0-0.1,0-0.2,0.1-0.2c62.5,1.1,129.3-4.8,190.6,9.9c0.4,0.1,0.8,0.2,1.2,0.3c1.9,0.3,3.8,0.6,5.7,1
	c1.7,0.3,3.4,0.7,5.1,1c-1.6-0.5-3.2-0.9-4.8-1.3c-2.1-0.4-4.1-0.8-6.1-1.1c2,0.3,4.1,0.6,6.1,1.1c9.9,1.9,20.7,4.5,28.9,9.8
	c3,1.9,6.4,3.4,10,4.7c13,3.1,26.1,5.9,39.2,8.5c33.6,6.5,68.6,4.1,102.6,4.4c9.9,0.1,19.7,0.2,29.6,0.3c0.3,0,9.5-0.2,11.3,1.2
	c0-9.7,0-18.6-0.1-26.2c0,0.2-0.1,0.5-0.2,0.7c-0.1,0-0.2,0-0.3,0c0,0.1,0,0.2-0.1,0.3c-60-6.6-128.1-11.8-182.5-40.3
	c0.1-0.1,0.2-0.2,0.4-0.2c0,0,0,0,0,0C256.3,16.4,276.6,7,297.5,0h-41.6c-4.5,1.7-9.1,3.4-13.6,5.2c-3.4,2-6.7,4-10.2,5.4
	c-12,4.9-24.2,8.8-36.5,12c-7.3,2.3-14.7,4.2-22.3,5.8c22.4,2.7,44.9,6.6,66.3,13.7c15.2,5.1,29.5,10.7,44.6,15.2
	c5.6,1.6,11.2,3.1,16.9,4.4c-5.8-1.3-11.4-2.8-16.9-4.4c-4.5-1.3-9-2.6-13.5-4c4.4,1.5,8.7,2.9,13.2,4.2c4.7,1.3,9.5,2.6,14.2,3.8
	c18,4.1,36.2,7.6,54.5,9.9c12.7,1.6,25.3,2.8,38,3.8c6.2,0.5,29.1-1.8,28.7,3.5c-0.1,0-0.2,0-0.4,0c0,0.1,0,0.2,0,0.3
	c-31.8-1.5-63.9-3.1-95.4-7.8c-16.2-2.4-32.7-4.4-48.6-8.8c-15.6-4.3-30.1-11-45.7-15.2c-68.4-18.6-140.8-13.3-211-13.7
	c-6.2,0-12.3-0.1-18.5-0.1c0,3,0,5.9,0,8.9c0.1,0,0.2,0,0.3,0c0-0.1,0-0.2,0-0.2c31.9,0.1,63.8-0.5,95.8,0
	c33.1,0.6,68-0.8,100.5,6.2c2.4,0.5,4.8,1.1,7.1,1.7c-0.6-0.2-1.1-0.4-1.7-0.6c-4-1-8-1.9-12.1-2.7c4.1,0.5,8.1,1.4,12.1,2.7
	c1.6,0.4,3.3,0.9,4.9,1.3c-1.5-0.6-3-1.1-4.6-1.6c-4-1-8-1.9-12.1-2.7c4.1,0.5,8.1,1.4,12.1,2.7c27.8,7.2,53.5,20.3,82.2,25.4
	c-1.5-0.2-3-0.4-4.4-0.6c1.4,0.3,2.7,0.6,4.1,0.8c-2.5-0.3-4.9-0.6-7.4-1c2,0.4,3.9,0.8,5.9,1.1c31.2,5,63.3,7.4,94.8,9.9
	c14,1.1,28,2.2,42,1.1c0,0.9,0,1.9,0,2.8c-0.1,0-0.2,0-0.3,0c0,0.1,0,0.2,0,0.3c-62.5-1.7-124.1-5.7-184.8-21
	c-13.2-3.3-26.9-10.4-40-12.1c-16.2-2.1-32.4-3.5-48.7-4.8c-32.5-2.6-65.2-3-97.8-2.9c-16,0-31.9,0.6-47.8,1.1
	c0-0.6-0.1-1.2-0.2-1.9c0,2.7,0,5.4,0,8.1c0-0.2,0.1-0.4,0.2-0.7C0,54.5,0.1,54.5,0.2,54.5z"/>
<path class="st1" d="M-0.1,128.9c10,0.9,19.8,2.9,29.4,5h28c-9.8-1.2-19.6-2.7-28.9-5.8c-6-2-25.8-1.2-28.7-6.4c0,2.5,0,4.9,0,7.4
	c0.1,0,0.1,0,0.2,0C-0.1,129-0.1,129-0.1,128.9z"/>
<path class="st1" d="M46.9,95.5c-0.1,0-0.1,0-0.2-0.1c-0.3,0-0.6,0-0.8,0C46.3,95.4,46.6,95.5,46.9,95.5z"/>
<path class="st1" d="M47.7,47.9c32.6-0.1,65.3,0.3,97.8,2.9c16.3,1.3,32.5,2.7,48.7,4.8c13.1,1.7,26.8,8.8,40,12.1
	C294.9,83,356.5,87,419,88.7c0-0.1,0-0.2,0-0.3c-62.4-1.7-123.9-5.7-184.5-21c-13.2-3.3-26.9-10.4-40-12.1
	c-16.2-2.1-32.4-3.5-48.7-4.8c-32.5-2.6-65.2-3-97.8-2.9c-16,0-31.9,0.6-47.8,1.1C0.1,46.6-0.4,44.1,0,42c-0.1,0-0.2,0-0.3,0
	c0,1.7,0,3.4,0,5.1c0.1,0.7,0.1,1.3,0.2,1.9C15.8,48.5,31.7,47.9,47.7,47.9z"/>
<path class="st1" d="M29.1,60.4c23.2,0.8,46.3,1.6,69.5,2.4c29.2,1,60.4-0.5,89,5.8c14.6,3.2,27.5,9.1,41.5,13.8
	c14.5,4.9,30.1,7.3,45.2,9.8c32.6,5.5,65.3,3.7,98.3,3.7c11.2,0,22.3,0,33.5,0c2.2,0,11.1,1.4,12.9,0c0.1,0,0.1-0.1,0.2-0.1
	c-2.1,1.2-10.6-0.1-12.7-0.1c-11.2,0-22.3,0-33.5,0c-33,0-65.7,1.8-98.3-3.7c-15.1-2.5-30.7-4.9-45.2-9.8
	c-14-4.7-26.9-10.6-41.5-13.8c-28.6-6.3-59.8-4.8-89-5.8c-23.2-0.8-46.3-1.6-69.5-2.4c-5-0.4-31.5,2.7-29.3-5.7c-0.1,0-0.2,0-0.3,0
	c-0.1,0.2-0.1,0.5-0.2,0.7c0,0.3,0,0.7,0,1C0.8,62.7,24.5,60,29.1,60.4z"/>
<path class="st1" d="M229.1,120.9c-0.7,0.3-1.3,0.6-2,0.9c0.1,0,0.2-0.1,0.2-0.1c6.7-2.6,13.6-4.8,20.6-6.6
	c-1.6,0.4-3.3,0.8-4.9,1.2C238.4,117.7,233.7,119.2,229.1,120.9z"/>
<path class="st1" d="M400.8,107.1c-16.3,0.1-32.5,0.2-48.8,0.4c-23,0.2-46,0.4-69,0.5c-7.1,1-14.1,2.2-21.2,3.6
	c1.1-0.2,2.3-0.3,3.4-0.5c5.8-1.1,11.6-2.1,17.4-2.9c23-0.2,46-0.4,69-0.5c16.3-0.2,32.5-0.3,48.8-0.4c3.5,0,14.4,1.9,17.7-0.8
	C414.6,108.8,404.3,107.1,400.8,107.1z"/>
<path class="st1" d="M2,69.3c11.2,0.4,22.4,0.8,33.6,1.2c17.1,0.6,34.1,1.5,51.2,2.4c32.5,1.7,65.5,4.5,97.6,10.1
	c27.8,4.9,53.8,19.6,82,21.8c0.4-0.1,0.8-0.1,1.2-0.2c-28.5-2-54.7-17-82.8-21.9c-32.1-5.6-65.1-8.4-97.6-10.1
	C70,71.8,53,70.9,35.9,70.3c-11.2-0.4-22.4-0.8-33.6-1.2c-2.3-0.1-2.9-2.4-1.9-3.4c-0.3,0.2-0.6,0.4-0.7,0.7c0,0.4,0,0.9,0,1.4
	C0,68.6,0.8,69.3,2,69.3z"/>
<path class="st1" d="M226.7,122c0.6-0.3,1.2-0.5,1.7-0.8c-0.2,0.1-0.5,0.2-0.7,0.3c-0.1,0-0.2,0.1-0.2,0.1c-0.4,0.2-0.8,0.4-1.3,0.6
	c-0.2,0.1-0.4,0.2-0.6,0.3C226,122.3,226.4,122.1,226.7,122z"/>
<path class="st1" d="M5.5,133.9h2.5c-4.6-0.4-8.5-1.5-8-4.8c-0.1,0-0.1,0-0.2,0c0,0.6,0,1.3,0,1.9C0.4,132.7,2.7,133.5,5.5,133.9z"
	/>
<path class="st1" d="M226.2,122.1c0.3-0.1,0.6-0.3,0.8-0.4c-7.8,3.2-14.9,8.2-22.4,12.2h0.1c7-3.7,13.6-8.3,20.7-11.4
	C225.7,122.4,226,122.3,226.2,122.1z"/>
<path class="st1" d="M28.4,128.1c9.4,3.1,19.1,4.6,28.9,5.8h2.4c-0.1,0-0.3,0-0.4,0c-10.4-1.2-20.7-2.7-30.6-6
	c-6.3-2.1-28.2-1.1-29-7.4c0,0.4,0,0.8,0,1.2C2.6,126.9,22.4,126.1,28.4,128.1z"/>
<path class="st1" d="M192.3,127.1c-0.6,0.2-1.1,0.4-1.7,0.5c-7.3,2.8-14.9,4.8-22.7,6.2h1C176.9,132.3,184.8,130.1,192.3,127.1z"/>
<path class="st1" d="M53.2,81.3c17.9,0.6,35.7,1.5,53.5,2.4c34.1,1.6,71,6.1,102.1,21c0.1-0.1,0.2-0.2,0.3-0.2
	c-31.1-14.9-68-19.4-102.1-21c-17.8-0.9-35.6-1.8-53.5-2.4c-17-0.6-36.8-3-53.5,1.2c0.2-1.2,0.2-2.4,0.2-3.6c-0.1,0-0.2,0-0.3,0
	c0,1.1,0,2.3-0.2,3.5c0,0.1,0,0.2,0,0.3C16.4,78.3,36.2,80.7,53.2,81.3z"/>
<path class="st1" d="M66.7,93.7C66.7,93.7,66.7,93.7,66.7,93.7c0,0,0.1,0,0.2,0C66.8,93.7,66.8,93.7,66.7,93.7z"/>
<path class="st1" d="M89,125.5c32.1,0.1,67.1-2.6,94.8-20.8c-0.3,0.2-0.5,0.3-0.8,0.5c-27.5,17.5-62,20.2-93.7,20.1
	c-29.9-0.1-59.4-12.9-89.3-10.1c-0.3-3.8,0.3-5.9,1.7-7c-1,0.7-1.7,1.8-2,3.6c0,1.2,0,2.4,0,3.6C29.6,112.6,59.1,125.4,89,125.5z"/>
<path class="st1" d="M45.9,95.4c0.3,0,0.6,0,0.8,0c-0.2-0.1-0.4-0.2-0.5-0.3c-1.1,0-2.2-0.1-3.3-0.2c-14.5-1.2-28-1.8-42.7-1.4
	c0-1.2,0-2.3,0-3.5c-0.1,0-0.2,0-0.3,0c0,1.2,0,2.4,0,3.7c14.7-0.4,28.2,0.2,42.7,1.4C43.7,95.3,44.8,95.4,45.9,95.4
	C45.9,95.4,45.9,95.4,45.9,95.4C45.9,95.4,45.9,95.4,45.9,95.4z"/>
<path class="st1" d="M78.4,92.4c-3.7,0.3-7.4,0.8-11.1,1.3c-0.3,0.1-0.6,0.2-0.9,0.3c3.9-0.5,7.8-1,11.7-1.4
	c25.8-2.1,56.4,1.1,79.7,12.9c0.1-0.1,0.3-0.1,0.4-0.2C134.8,93.5,104.2,90.3,78.4,92.4z"/>
<path class="st1" d="M124.5,109.1c0.4-0.2,0.8-0.3,1.1-0.5c-22.3,6.3-45.3,5.2-66.5-5.9c-0.2,0-0.4,0.1-0.6,0.1
	C79.5,113.9,102.3,115.1,124.5,109.1z"/>
<path class="st1" d="M38.8,102c-0.2-0.1-0.5-0.1-0.8-0.2c-8.2,0.2-37,2.2-38-2.5c-0.1,0-0.2,0-0.3,0c0,0.1,0,0.1,0,0.2
	C0.6,104.4,32.5,102,38.8,102z"/>
<path class="st1" d="M298,61.3c-4.8-1.2-9.5-2.4-14.2-3.8c3.7,1.1,7.5,2.2,11.4,3.1C296.1,60.8,297.1,61,298,61.3z"/>
<path class="st1" d="M201.8,49.1c-4-1.3-8-2.2-12.1-2.7C193.8,47.1,197.8,48.1,201.8,49.1z"/>
<path class="st1" d="M276.6,73.5c2.5,0.4,4.9,0.7,7.4,1c-1.4-0.2-2.7-0.5-4.1-0.8c-2.5-0.3-5-0.7-7.5-1.1
	C273.8,72.9,275.2,73.2,276.6,73.5z"/>
<path class="st1" d="M206.6,50.4c-1.6-0.5-3.3-0.9-4.9-1.3c0.6,0.2,1.1,0.4,1.7,0.6c1.5,0.4,2.9,0.8,4.4,1.2
	C207.4,50.7,207,50.6,206.6,50.4z"/>
<path class="st1" d="M197.7,65.5c-1.9-0.4-3.8-0.8-5.7-1c0,0,0.1,0,0.1,0C194,64.8,195.8,65.1,197.7,65.5z"/>
<path class="st1" d="M228.9,77.8c0.6,0.2,1.2,0.3,1.7,0.5c0.1,0,0.2,0.1,0.3,0.1c-0.5-0.2-1-0.4-1.5-0.7c-8.3-4-17.4-8.4-26.6-11.1
	c-1.7-0.4-3.4-0.7-5.1-1C208.5,68,219.2,73.2,228.9,77.8z"/>
<path class="st1" d="M284,104.9c0.3,0,0.6,0.1,0.9,0.1c-1.3-0.3-2.7-0.5-4-0.8c-3.5-0.5-7-1.2-10.5-1.9
	C274.9,103.3,279.4,104.2,284,104.9z"/>
<path class="st1" d="M213.1,117.2c-6.1,4.2-13.3,7.3-20.4,9.6c-0.7,0.3-1.4,0.5-2,0.8c0.6-0.2,1.1-0.3,1.7-0.5
	C199.6,124.8,206.9,121.6,213.1,117.2z"/>
<path class="st1" d="M243.1,116.3c1.6-0.4,3.3-0.8,4.9-1.2c8.1-1.9,16.2-3.2,23.7-4.6c-1.1,0.1-2.2,0.3-3.3,0.4
	c-6.5,1.1-13.3,2.3-20.1,3.9C246.5,115.3,244.8,115.8,243.1,116.3z"/>
<path class="st1" d="M228.5,121.2c-0.6,0.3-1.2,0.5-1.7,0.8c-0.3,0.1-0.6,0.3-0.8,0.4c0.4-0.2,0.8-0.4,1.3-0.6
	c0.7-0.3,1.3-0.6,2-0.9C228.9,121,228.7,121.1,228.5,121.2z"/>
<path class="st1" d="M217,127.6c-0.2,0.1-0.4,0.3-0.6,0.4c3-2.1,6.2-4,9.5-5.6c-1.1,0.5-2.1,1.1-3.2,1.7
	C220.8,125.1,218.9,126.3,217,127.6z"/>
<path class="st1" d="M183.8,104.7C183.8,104.7,183.8,104.7,183.8,104.7c-0.3,0.2-0.5,0.3-0.8,0.5C183.3,105,183.5,104.9,183.8,104.7
	z"/>
<path class="st1" d="M106.6,113.3c-1.1,0.1-2.1,0.1-3.2,0.1c10.1,0.7,20.6-2.2,29.4-6.9c0,0,0,0-0.1,0
	C124.9,110.6,115.6,113.3,106.6,113.3z"/>
<path class="st1" d="M66.9,93.7c-0.1,0-0.1,0-0.2,0c-5.9,2-13.9,4.5-19.7,1.8c-0.3,0-0.7-0.1-1-0.1c0,0,0,0,0,0c0,0,0,0,0,0
	c5.9,3.3,14.3,0.6,20.5-1.5c0.3-0.1,0.6-0.2,0.9-0.3C67.2,93.6,67,93.7,66.9,93.7z"/>
<path class="st1" d="M16.4,121.2c-0.7-0.1-1.4-0.2-2.1-0.2c1.3,0.3,2.6,0.7,3.9,1c0.9,0.1,1.8,0.3,2.7,0.4
	C19.4,122,17.9,121.6,16.4,121.2z"/>
<path class="st1" d="M232.4,10.4c-11.2,4.6-22.5,8.3-34.1,11.3c-0.9,0.3-1.9,0.6-2.8,0.9c12.4-3.2,24.5-7,36.5-12
	c3.5-1.5,6.9-3.4,10.2-5.4c-0.1,0-0.2,0.1-0.2,0.1C238.9,7.1,235.8,9,232.4,10.4z"/>
<path class="st1" d="M230.9,41.6c17.7,4.9,35.1,10.8,52.9,15.9c-4.4-1.3-8.8-2.8-13.2-4.2c-15.9-4.8-31.6-10-47.6-14.1
	C225.7,40,228.3,40.8,230.9,41.6z"/>
<path class="st1" d="M195.9,22.3c-7.6,2.4-15.3,4.4-23.2,5.9c0.2,0,0.3,0,0.5,0.1c7.6-1.5,15-3.5,22.3-5.8c0.9-0.3,1.9-0.6,2.8-0.9
	C197.6,21.9,196.7,22.1,195.9,22.3z"/>
<path class="st1" d="M242.1,5.3c0.1,0,0.2-0.1,0.2-0.1c4.5-1.8,9-3.5,13.6-5.2h-0.3c-4.3,1.6-8.6,3.3-12.9,4.9
	C242.5,5.1,242.3,5.2,242.1,5.3z"/>
<path class="st1" d="M236.6,28.6C291,57.1,359.1,62.3,419.1,68.9c0-0.1,0-0.2,0.1-0.3C359.2,62,291.3,56.8,237,28.4
	C236.8,28.4,236.7,28.5,236.6,28.6z"/>
<path class="st1" d="M229.2,46.9c15.6,4.2,30.1,10.9,45.7,15.2c15.9,4.4,32.4,6.4,48.6,8.8c31.5,4.7,63.6,6.3,95.4,7.8
	c0-0.1,0-0.2,0-0.3c-31.7-1.5-63.7-3.1-95-7.8c-16.2-2.4-32.7-4.4-48.6-8.8c-15.6-4.3-30.1-11-45.7-15.2
	C161.1,28.1,88.7,33.4,18.5,33C12.3,33,6.2,32.9,0,32.9c-0.7-2.5,0-4.3,1.5-5.5c-0.9,0.6-1.5,1.3-1.8,2.3c0,1.2,0,2.3,0,3.5
	c6.2,0,12.3,0.1,18.5,0.1C88.4,33.6,160.8,28.3,229.2,46.9z"/>
<path class="st1" d="M173.6,0h-1.2C115.4,9.3,57.6,12.8-0.3,10.5c0,0.1,0,0.2,0,0.3C58,13,116.2,9.5,173.6,0z"/>
<g class="st4">
	<path class="st0" d="M190.5,66.5c13.8,3.3,26.5,10.9,39.8,14.1c0.1,0,0.2,0.1,0.3,0.1c-0.5-0.2-1-0.4-1.5-0.7
		c-0.1,0-0.1-0.1-0.2-0.1c-12.2-3.3-24-10-36.7-13.3c-0.2,0-0.4-0.1-0.6-0.1c0.1,0,0.3,0,0.4,0.1c-0.4-0.1-0.8-0.2-1.2-0.3
		C129.5,51.6,62.7,57.5,0.2,56.4c0,0.1,0,0.2-0.1,0.2C62.6,57.7,129.3,51.9,190.5,66.5z"/>
	<path class="st0" d="M103.7,135.5c-23.3-1-45.8-5-68.5-8.7c-6.8-1.7-13.6-3.3-20.6-3.9c0.6,0.1,1.2,0.3,1.8,0.5
		c6.3,0.7,12.4,2.2,18.5,3.7c22.7,3.7,45.2,7.7,68.5,8.7c38.4,1.6,74.2-6.7,105.4-28.9c0,0,0,0,0,0
		C177.7,128.9,142,137.1,103.7,135.5z"/>
	<path class="st0" d="M224,104.6c0.6,0.4,1.3,0.9,1.9,1.3c-0.7,0.9-1.5,1.7-2.2,2.5c-0.3,0.7-0.8,1.5-1.5,2.3
		c-2.5,3.3-5.6,6.2-9.1,8.6c3.7-2.5,6.9-5.5,9.5-8.9c0.6-0.8,1.1-1.6,1.5-2.3c0.8-0.8,1.5-1.6,2.2-2.5c-0.6-0.5-1.3-0.9-1.9-1.3
		c-1.2-2.6-5.6-4-10.4-6.1c-0.4-0.2-0.8-0.3-1.2-0.5c-28.8-13.7-67.8-14.9-97.6-17.3C77,77.4,38.4,79.4,0.2,80.6c0,0.1,0,0.2,0,0.2
		c38.1-1.2,76.6-3.2,114.6-0.1c29.8,2.4,68.8,3.6,97.6,17.3c0.4,0.2,0.8,0.3,1.2,0.5C218.4,100.6,222.8,102,224,104.6z"/>
	<path class="st1" d="M221.3,110.8c-5.3,5.2-11.3,9.5-17.7,13.1C211.3,120.4,218.4,116,221.3,110.8z"/>
	<path class="st1" d="M331.8,55.5c-1.4-0.4-2.8-0.7-4.2-1.1c-1.2-0.2-2.5-0.5-3.8-0.7C326.5,54.3,329.1,54.9,331.8,55.5z"/>
	<path class="st1" d="M405.2,128.2c-13,0.3-26,0.6-39,0.9c-33.8,0.7-68.6-0.8-102.2,3.8c-3.3,0.5-6.6,0.9-9.9,1.4
		c1.3-0.1,2.7-0.2,4.1-0.2c-3.7,0.4-7.4,1.1-11,1.9h172.2c0-3.4,0-6.7,0-10C418.2,130.3,409.4,128.2,405.2,128.2z"/>
	<path class="st2" d="M406.8,65.9c-6.9-0.5-13.8-1.2-20.7-2c-4.6-0.5-9.1-1.1-13.6-1.7c14.9,2.2,29.9,3.9,44.8,4.3
		C414.5,65.5,409.6,66.1,406.8,65.9z"/>
	<path class="st2" d="M313.9,51.1c-14.3-4.1-28.2-9.4-41.3-17c3.1,2.6,6.6,4.9,10.5,6.9C292.9,45.7,303.2,48.5,313.9,51.1z"/>
	<path class="st2" d="M-0.3,44.1c-0.4,1.5-0.1,3.4,0,5.1C-0.3,47.6-0.3,45.9-0.3,44.1C-0.3,44.1-0.3,44.1-0.3,44.1z"/>
	<path class="st2" d="M-0.3,58.4c0-0.3,0-0.7,0-1C-0.3,57.7-0.3,58-0.3,58.4z"/>
	<path class="st2" d="M230.6,80.7c-0.1,0-0.2-0.1-0.3-0.1c-13.3-3.2-26-10.8-39.8-14.1C129.3,51.9,62.6,57.7,0.2,56.7
		c-2.3,8.4,24.3,5.3,29.3,5.7c23.2,0.8,46.3,1.6,69.5,2.4c29.2,1,60.4-0.5,89,5.8c14.6,3.2,27.5,9.1,41.5,13.8
		c14.5,4.9,30.1,7.3,45.2,9.8c32.6,5.5,65.3,3.7,98.3,3.7c11.2,0,22.3,0,33.5,0c2.1,0,10.6,1.3,12.7,0.1c0.1-0.1,0.1-0.1,0.2-0.2
		c0.5-0.5,0.4-0.9,0-1.2c-1.9-1.4-11-1.2-11.3-1.2c-9.9-0.1-19.7-0.2-29.6-0.3c-34-0.3-69,2.1-102.6-4.4
		c-13.1-2.6-26.1-5.4-39.2-8.5c11.3,4,24.9,5.5,35.5,8.3C258.9,87.4,243.1,86.1,230.6,80.7z"/>
	<path class="st2" d="M-0.3,69.9c0-0.4,0-0.9,0-1.4C-0.4,69-0.4,69.5-0.3,69.9z"/>
	<path class="st2" d="M-0.4,131.2c-0.2,0.8-0.1,1.4,0.1,2c0-0.6,0-1.3,0-1.9C-0.3,131.3-0.4,131.3-0.4,131.2z"/>
	<path class="st2" d="M28.7,130c9.9,3.3,20.2,4.8,30.6,6c0.1,0,0.3,0,0.4,0h108.2c7.8-1.5,15.4-3.5,22.7-6.2
		c-3.7,1.1-7.4,2.1-10.8,2.8c5.3-1.8,15-4.7,23.8-8.7c6.4-3.6,12.3-7.9,17.7-13.1c0.4-0.6,0.7-1.3,0.9-2c3.2-9.7-26.2-15.5-34-17.7
		c8.1,1.7,16.4,3.5,24.2,6.9c-28.8-13.7-67.8-14.9-97.6-17.3c-38-3.1-76.5-1.1-114.6,0.1c0,1.1,0,2.4-0.2,3.6
		c16.7-4.2,36.5-1.8,53.5-1.2c17.9,0.6,35.7,1.5,53.5,2.4c34.1,1.6,71,6.1,102.1,21c-0.1,0.1-0.2,0.2-0.3,0.2c0,0,0,0,0,0
		c-31.2,22.2-67,30.5-105.4,28.9c-23.3-1-45.8-5-68.5-8.7c6.2,1.5,12.4,3.1,18.8,3.9c-11,0-22.3-3.2-33.1-6.2c-7-1-14-2-21.2-2.7
		c0,0.3,0,0.6,0,0.8c0,0.4,0.2,0.7,0.3,1c0-0.4,0-0.8,0-1.2C0.5,128.9,22.4,127.9,28.7,130z"/>
	<path class="st2" d="M-0.3,84.6C-0.3,84.6-0.3,84.6-0.3,84.6c0-0.1,0-0.2,0-0.3C-0.3,84.4-0.3,84.5-0.3,84.6z"/>
	<path class="st2" d="M224,104.6c0.5,1,0.4,2.3-0.3,3.8c0.8-0.8,1.5-1.6,2.2-2.5C225.3,105.5,224.6,105.1,224,104.6z"/>
	<path class="st2" d="M254.1,134.4c3.3-0.5,6.6-1,9.9-1.4c33.6-4.6,68.4-3.1,102.2-3.8c13-0.3,26-0.6,39-0.9c4.2,0,13,2,14.2-2.2
		c0.2-0.6,0.2-1.4,0-2.2c-0.1-0.3-0.2-0.7-0.3-1.1c-31.7,0-63.5,0.2-95.2,1.1c-29.8,0.9-65.4-2-92.9,10.7c-1.1,0.5-2.2,1-3.4,1.5
		h15.7C246.9,135.3,250.5,134.7,254.1,134.4z"/>
	<path class="st2" d="M-0.3,117.5C-0.3,117.5-0.3,117.5-0.3,117.5c0-1.2,0-2.4,0-3.6C-0.4,114.9-0.4,116.1-0.3,117.5z"/>
	<path class="st2" d="M-0.3,101.4c0,0.1,0,0.1,0,0.2C-0.3,101.6-0.3,101.5-0.3,101.4C-0.3,101.4-0.3,101.4-0.3,101.4z"/>
	<path class="st3" d="M323.8,53.7c1.3,0.3,2.5,0.5,3.8,0.7c-4.6-1.2-9.2-2.2-13.8-3.3c-10.6-2.6-20.9-5.4-30.8-10.1
		C295.3,47.4,310.7,51.1,323.8,53.7z"/>
	<path class="st3" d="M337.4,57c25.7,7.4,54.8,9,81.4,10.7c0.1,0,0.1,0,0.2,0c0.1-0.4,0.1-0.7,0.2-1.1c-0.6,0-1.3,0-1.9-0.1
		c-14.9-0.4-29.9-2.1-44.8-4.3c-13.1-2-26.1-4.4-39-6.7c-1.9-0.3-3.8-0.7-5.9-1.1c1.4,0.3,2.8,0.7,4.2,1.1
		C333.6,56,335.5,56.5,337.4,57z"/>
	<path class="st3" d="M192.2,66.6c0,0-0.1,0-0.1,0c-0.1,0-0.3,0-0.4-0.1C191.8,66.6,192,66.6,192.2,66.6z"/>
	<path class="st3" d="M231,80.5c-0.1,0-0.2-0.1-0.3-0.1c-0.6-0.1-1.2-0.3-1.7-0.5c0.1,0,0.1,0.1,0.2,0.1c0.5,0.2,1,0.5,1.5,0.7
		c12.5,5.4,28.3,6.6,41.5,9.7c-10.6-2.8-24.2-4.3-35.5-8.3c-3.6-1.3-7.1-2.8-10-4.7c-6.8-4.4-15.4-6.9-23.8-8.8
		c9.2,2.8,18.3,7.2,26.6,11.1C229.9,80,230.5,80.3,231,80.5z"/>
	<path class="st3" d="M213.1,119.4c3.5-2.5,6.7-5.3,9.1-8.6c0.6-0.8,1.1-1.6,1.5-2.3c0.7-1.5,0.8-2.8,0.3-3.8
		c-1.2-2.6-5.6-4-10.4-6.1c-0.4-0.2-0.8-0.3-1.2-0.5c-7.8-3.4-16.1-5.2-24.2-6.9c7.8,2.2,37.2,8,34,17.7c-0.2,0.7-0.5,1.3-0.9,2
		c-2.9,5.2-10,9.6-17.7,13.1c-8.8,4-18.5,6.9-23.8,8.7c3.4-0.8,7.1-1.7,10.8-2.8c0.7-0.3,1.4-0.5,2-0.8
		C199.8,126.7,207,123.6,213.1,119.4z"/>
	<path class="st3" d="M258.2,134.1c-1.4,0-2.7,0.1-4.1,0.2c-3.7,0.3-7.2,0.9-10.7,1.7h3.8C250.8,135.2,254.5,134.6,258.2,134.1z"/>
	<path class="st3" d="M34.9,127c-6.1-1.5-12.2-3-18.5-3.7c1.5,0.4,3,0.8,4.5,1.2c-0.9-0.1-1.8-0.3-2.7-0.4c0.8,0.2,1.6,0.4,2.4,0.6
		c10.9,2.9,22.2,6.2,33.1,6.2C47.3,130.1,41.1,128.6,34.9,127z"/>
	<path class="st0" d="M316.3,30.1c31.8,15.7,67,25.2,102.8,24c-0.1,0.9-0.1,1.7-0.2,2.6c0.1,0,0.2,0,0.3,0c0.1-1,0.1-1.9,0.2-2.9
		c-35.8,1.2-71-8.3-102.8-24C316.6,30,316.4,30.1,316.3,30.1C316.3,30.1,316.3,30.1,316.3,30.1z"/>
	<path class="st0" d="M308.9,29.9c23-15.2,48.5-23.4,75.1-27.8h-1.1C356.7,6.6,331.5,14.9,308.9,29.9
		C308.8,29.9,308.8,29.9,308.9,29.9z"/>
	<path class="st0" d="M95.5,44.1c33.1,0.6,68-0.8,100.5,6.2c3.9,0.8,7.7,1.8,11.5,2.9c-1.3-0.5-2.7-1-4.1-1.5
		c-2.4-0.6-4.7-1.2-7.1-1.7c-32.5-7-67.4-5.6-100.5-6.2c-32-0.5-63.9,0.1-95.8,0c0,0.1,0,0.2,0,0.2C31.8,44.2,63.6,43.7,95.5,44.1z"
		/>
	<path class="st0" d="M282.2,77c31.2,5,63.3,7.4,94.8,9.9c14,1.1,28,2.2,42,1.1c0,0.8,0,1.7,0,2.5c0.1,0,0.2,0,0.3,0
		c0-0.9,0-1.9,0-2.8c-14,1.1-28,0-42-1.1c-31.5-2.5-63.6-4.9-94.8-9.9c-2-0.3-4-0.7-5.9-1.1c-1.5-0.2-3-0.4-4.6-0.7
		C275.4,75.8,278.8,76.5,282.2,77z"/>
	<path class="st0" d="M284.3,76.4c-28.7-5.1-54.4-18.2-82.2-25.4c1.5,0.5,3,1,4.6,1.6c24.6,7,47.9,18.1,73.2,23.3
		C281.4,76,282.9,76.2,284.3,76.4z"/>
	<path class="st2" d="M0.2,50.9C16.1,50.4,32,49.8,48,49.8c32.6-0.1,65.3,0.3,97.8,2.9c16.3,1.3,32.5,2.7,48.7,4.8
		c13.1,1.7,26.8,8.8,40,12.1c60.6,15.3,122.1,19.3,184.5,21c0-0.8,0-1.7,0-2.5c-14,1.1-28,0-42-1.1c-31.5-2.5-63.6-4.9-94.8-9.9
		c-3.4-0.6-6.8-1.3-10.1-2.1c-13-2.2-25.8-5.5-38.1-10.3c-8.7-3.4-17.5-7.9-26.5-11.4c-3.8-1.1-7.6-2.1-11.5-2.9
		c-32.5-7-67.4-5.6-100.5-6.2c-31.9-0.5-63.7,0.1-95.5,0C-0.4,46.2,0.1,48.8,0.2,50.9z"/>
	<path class="st3" d="M234,64.6c12.2,4.8,25.1,8.2,38.1,10.3c1.5,0.3,3,0.5,4.6,0.7c-1.4-0.3-2.8-0.6-4.2-0.9c2.5,0.4,5,0.8,7.5,1.1
		c-25.4-5.2-48.6-16.2-73.2-23.3c0.4,0.1,0.8,0.3,1.2,0.4c-1.5-0.4-2.9-0.8-4.4-1.2c1.4,0.5,2.7,0.9,4.1,1.5
		C216.5,56.7,225.3,61.2,234,64.6z"/>
	<path class="st0" d="M333.4,9.7c1.2-0.5,2.3-1,3.5-1.4c-8.8,3.4-20.7,7.4-29.6,13.5c0,0,0.1-0.1,0.1-0.1
		C315.2,16.5,325.2,12.8,333.4,9.7z"/>
	<path class="st0" d="M202.1,51c-4-1.3-8-2.2-12.1-2.7C194.1,49.1,198.1,50,202.1,51z"/>
	<path class="st0" d="M306.9,22c0,0,0.1,0,0.1-0.1c0.1-0.1,0.2-0.1,0.2-0.2c-0.2,0.1-0.4,0.2-0.6,0.3c0.7-0.5,1.4-1,2.1-1.5
		c-0.8,0.6-1.7,1.2-2.5,1.8C306.6,22.2,306.8,22.1,306.9,22z"/>
	<path class="st0" d="M304.4,23.9c-2.3,1.9-4.3,4-6,6.3c9.3,6.7,19,11.9,29.2,15.8c6.9,2.5,14,4.5,21,6.3c3.7,0.8,7.5,1.6,11.4,2.2
		c11.3,1.8,22.5,3.2,33.9,4c5.2,0.4,23.9-0.8,24.9,3.1c0.1,0,0.3,0,0.4,0c-0.3-4.3-19.7-3-25-3.4c-11.4-0.8-22.6-2.2-33.9-4
		c-3.9-0.6-7.7-1.3-11.4-2.2c-7-1.8-14.1-3.8-21-6.3c-10.2-3.9-19.9-9-29.2-15.8c1.7-2.3,3.8-4.3,6-6.3c0.7-0.6,1.4-1.1,2.2-1.6
		c0,0,0,0,0,0C306.1,22.6,305.2,23.2,304.4,23.9z"/>
	<path class="st0" d="M126.2,105.4c2.4,0.7,4.6,1.7,6.6,3.2c0.1-0.1,0.3-0.1,0.4-0.2c-1.9-1.5-4.2-2.5-6.6-3.3
		c-20.8-8.5-46.6-4.3-67.7-0.3c0.1,0,0.2,0.1,0.3,0.1C80.1,101,105.5,97,126.2,105.4z"/>
	<path class="st0" d="M124.5,111.3c-6.5,2.7-13.7,3.9-20.7,4c0.9,0.1,1.9,0.1,2.9,0.1c6.4-0.4,12.8-1.8,18.7-4.4
		C125,111.1,124.7,111.2,124.5,111.3z"/>
	<path class="st2" d="M125.6,110.8c-0.4,0.2-0.8,0.3-1.1,0.5c0.3-0.1,0.5-0.1,0.8-0.2c1.8-0.8,3.5-1.7,5.2-2.7
		c-4.3-1.9-8.6-3.7-13.1-4.8c2.8,0.4,5.9,0.9,8.8,1.8c-20.6-8.4-46.1-4.4-67.1-0.5C80.3,116,103.3,117,125.6,110.8z"/>
	<path class="st3" d="M117.4,103.5c4.5,1.1,8.8,2.9,13.1,4.8c-1.7,1-3.4,1.9-5.2,2.7c-5.9,2.6-12.3,3.9-18.7,4.4
		c9.1,0,18.3-2.6,26.1-6.8c-1.9-1.5-4.2-2.5-6.6-3.2C123.3,104.5,120.2,104,117.4,103.5z"/>
	<path class="st0" d="M12.3,67.6c32.8,0.1,65.6,1,98.3,3c26.7,1.6,57.5,1.6,84.3,8.8c2.4,0.6,4.8,1.3,7.1,2.2
		c2.4,0.8,4.8,1.7,7.1,2.6c0.5,0.2,0.9,0.4,1.4,0.6c14.6,4.9,28.9,10.8,43.5,15.5c8.9,2.3,17.9,4.3,26.9,6.1
		c1.4,0.2,2.9,0.4,4.4,0.5c-10.4-2-20.7-4.2-30.9-6.9c-14.6-4.6-28.9-10.6-43.5-15.5c-0.5-0.2-0.9-0.4-1.4-0.6
		c-2.3-0.9-4.7-1.8-7.1-2.6c-2.3-0.8-4.7-1.5-7.1-2.2c-26.8-7.3-57.6-7.2-84.3-8.8c-32.7-2-65.5-2.9-98.3-3c-3.7,0-7.4,0-11,0
		c-0.5,0-0.9,0.2-1.2,0.4c0.2-0.1,0.5-0.2,0.9-0.2C4.9,67.6,8.6,67.6,12.3,67.6z"/>
	<path class="st0" d="M209.5,127.3c18.7-10.2,36.3-17.5,57.7-20.3c-0.3,0-0.6,0-0.8-0.1c-20.9,2.9-38.2,10.1-56.5,20.1
		c-6.6,3.6-13,6.5-19.4,8.9h0.3C196.9,133.7,203.1,130.8,209.5,127.3z"/>
	<path class="st0" d="M29.4,136c-9.7-2.2-19.4-4.1-29.4-5c0,0.1,0,0.2,0,0.3c9.6,0.9,18.8,2.7,28,4.8H29.4z"/>
	<path class="st0" d="M268.4,113.1c1.2-0.2,2.5-0.4,3.7-0.7c-2.2,0.3-4.5,0.6-6.8,0.9c-1.2,0.2-2.5,0.5-3.7,0.7
		C263.8,113.7,266.1,113.4,268.4,113.1z"/>
	<path class="st0" d="M286.4,107.7c44.2-0.5,88.5-1,132.7-1.4c0.2,1.1-0.2,1.8-0.9,2.4c0.9-0.6,1.4-1.4,1.2-2.7
		c-44.2,0.5-88.5,1-132.7,1.4c-0.9-0.1-1.8-0.3-2.7-0.4c-4.7-0.5-9.3-1.3-13.9-2.4C275.5,105.9,280.9,106.9,286.4,107.7z"/>
	<path class="st1" d="M248.6,98.8c6.6,2.1,13.3,3.9,20,5.5c-4.9-1.1-9.8-2.5-14.6-4.1C252.2,99.8,250.4,99.3,248.6,98.8z"/>
	<path class="st2" d="M209.1,84.2c-2.3-0.9-4.7-1.8-7.1-2.6c2.3,0.8,4.6,1.7,6.9,2.7c0.5,0.2,1,0.3,1.5,0.5
		C210,84.6,209.6,84.4,209.1,84.2z"/>
	<path class="st2" d="M229.1,123.1c4.6-1.7,9.2-3.3,13.9-4.7C238.3,119.7,233.6,121.2,229.1,123.1z"/>
	<path class="st2" d="M-0.1,131.3c-0.5,3.3,3.4,4.4,8,4.8h20C18.7,134,9.5,132.2-0.1,131.3z"/>
	<path class="st2" d="M209.5,127.3c-6.4,3.5-12.6,6.3-18.8,8.7h13.9c7.6-3.9,14.6-9,22.4-12.2c-0.3,0.1-0.6,0.3-0.8,0.4
		c0.4-0.2,0.8-0.4,1.3-0.6c0.1,0,0.2-0.1,0.2-0.1c0.2-0.1,0.5-0.2,0.7-0.3c10.4-4.8,21.7-7.5,33.1-9.3c1.2-0.3,2.5-0.5,3.7-0.7
		c-1.1,0.2-2.3,0.3-3.4,0.5c7-1.5,14.1-2.6,21.2-3.6c23-0.2,46-0.4,69-0.5c16.3-0.2,32.5-0.3,48.8-0.4c3.4,0,13.7,1.8,17.4-0.5
		c0.7-0.6,1.1-1.4,0.9-2.4c-44.2,0.5-88.5,1-132.7,1.4c-5.4-0.8-10.9-1.8-16.3-3c-0.5-0.1-1-0.2-1.5-0.3c-6.7-1.6-13.4-3.4-20-5.5
		c-5.7-1.6-11.3-3.3-16.9-5.2c-7.8-2.7-15.2-6.2-22.8-9.3c-8.6-2.8-17.3-5.2-26.2-6.7c4.2,0.2,8.3,0.8,12.2,1.8
		c-26.8-7.3-57.6-7.2-84.3-8.8c-32.7-2-65.5-2.9-98.3-3c-3.7,0-7.4,0-11,0c-0.3,0-0.6,0.1-0.9,0.2c-1,1-0.4,3.3,1.9,3.4
		c11.2,0.4,22.4,0.8,33.6,1.2C53,73,70,73.9,87.1,74.8c32.5,1.7,65.5,4.5,97.6,10.1c28.1,4.9,54.3,19.9,82.8,21.9
		c-0.4,0.1-0.8,0.1-1.2,0.2c0.3,0,0.6,0.1,0.8,0.1C245.8,109.8,228.2,117.1,209.5,127.3z"/>
	<path class="st3" d="M268.6,104.3c0.5,0.1,1,0.2,1.5,0.3c4.6,1,9.2,1.8,13.9,2.4c-4.5-0.7-9.1-1.6-13.6-2.6c3.5,0.8,7,1.4,10.5,1.9
		c-9-1.8-18-3.8-26.9-6.1C258.8,101.8,263.7,103.2,268.6,104.3z"/>
	<path class="st3" d="M210.5,84.8c-0.5-0.2-1-0.3-1.5-0.5c7.6,3.1,15,6.7,22.8,9.3c5.6,1.9,11.2,3.6,16.9,5.2c1.8,0.5,3.6,1,5.4,1.5
		C239.4,95.6,225.1,89.7,210.5,84.8z"/>
	<path class="st3" d="M194.9,79.5c-3.9-1-8-1.7-12.2-1.8c8.9,1.5,17.6,3.8,26.2,6.7c-2.3-0.9-4.6-1.8-6.9-2.7
		C199.7,80.8,197.3,80.1,194.9,79.5z"/>
	<path class="st3" d="M228.5,123.3c0.2-0.1,0.4-0.2,0.7-0.2c4.4-1.9,9.1-3.4,13.9-4.7c1.7-0.5,3.5-1,5.2-1.5
		c6.8-1.6,13.6-2.8,20.1-3.9c-2.3,0.3-4.6,0.6-6.8,1C250.2,115.8,238.9,118.6,228.5,123.3z"/>
	<path class="st0" d="M38,103.9c0.4,0,0.8,0,1.1,0c-11.9-3.9-26.7-2.8-39.1-2.7c0,0.1,0,0.2,0,0.2C12.1,101.3,26.4,100.3,38,103.9z"
		/>
	<path class="st2" d="M38,103.9c-11.6-3.6-25.9-2.6-38-2.5C1.1,106.1,29.8,104.1,38,103.9z"/>
	<path class="st0" d="M225.6,124.6c0,0-0.1,0-0.1,0.1c-3.1,1.5-6,3.2-8.7,5.2c0.1-0.1,0.2-0.1,0.3-0.2c1.8-1.3,3.7-2.5,5.7-3.5
		C223.7,125.6,224.6,125.1,225.6,124.6z"/>
	<path class="st2" d="M226.2,124.3c-0.3,0.1-0.5,0.3-0.8,0.4c0,0,0.1,0,0.1-0.1C225.8,124.5,226,124.4,226.2,124.3z"/>
	<path class="st3" d="M217,129.7c1.8-1.3,3.7-2.4,5.7-3.5C220.7,127.3,218.8,128.4,217,129.7z"/>
	<path class="st0" d="M198.1,67.4c-2-0.5-4.1-0.9-6.1-1.1C193.9,66.7,196,67,198.1,67.4z"/>
	<path class="st0" d="M84.3,90.3c24.8,1.1,51.9,1.1,76.5,7.7c8.4,1.7,16.5,4.3,23,8.8c0.1-0.1,0.2-0.2,0.4-0.2
		c-6.5-4.5-14.7-7.1-23-8.8c-24.6-6.6-51.6-6.6-76.5-7.7C56.2,88.9,28.5,91.7,0.2,92c0,0.1,0,0.2,0,0.2C28.4,91.9,56,89.2,84.3,90.3
		z"/>
	<path class="st0" d="M15.2,109.8c5.2-0.1,10.5-0.6,15.7-0.3c-0.1,0-0.1,0-0.2,0c14.9,0.3,27.9,6.6,41.7,11.2
		c30.2,7.3,58.6,2.3,85.5-13.1c0,0,0,0-0.1,0c-26.8,15.2-55,20.1-85.1,12.9C58.9,115.9,46,109.6,31,109.3c0.1,0,0.1,0,0.2,0
		c-5.2-0.3-10.5,0.2-15.7,0.3c-6.1,0.1-11.2-1.3-13.8,0.7C4.4,108.7,9.3,110,15.2,109.8z"/>
	<path class="st1" d="M61.8,96.7c-5,0.6-10,1-15,0.9c0.1,0,0.1,0.1,0.2,0.1C51.8,98.1,56.9,97.5,61.8,96.7z"/>
	<path class="st2" d="M0,117.3c29.9-2.8,59.4,10,89.3,10.1c31.7,0.1,66.1-2.5,93.7-20.1c-11.2,6.8-23.6,11.2-36.3,14.4
		c-4.4,1.2-8.9,2.2-13.5,2.9c4.5-0.8,9-1.8,13.5-2.9c12-3.3,23.5-8.4,34.2-14.6c-12.4-7.2-27.9-9.6-41.8-12.4
		c6.8,0.9,14.3,1.8,21.7,3.3c-24.6-6.6-51.6-6.6-76.5-7.7C56,89.2,28.4,91.9,0.2,92.2c0,1.1,0,2.2,0,3.5c14.7-0.4,28.2,0.2,42.7,1.4
		c1.1,0.1,2.2,0.2,3.3,0.2c0.2,0.1,0.4,0.2,0.5,0.3c5,0.1,10-0.3,15-0.9c1.6-0.3,3.3-0.5,4.9-0.8c0,0,0,0,0,0c0.1,0,0.1,0,0.2,0
		c0.2,0,0.3-0.1,0.5-0.1c0,0-0.1,0-0.1,0c3.7-0.5,7.4-1,11.1-1.3c25.8-2.1,56.4,1.1,79.8,12.9c-0.1,0.1-0.3,0.1-0.4,0.2
		c0,0,0,0,0.1,0C131,123,102.7,128,72.4,120.8c0.7,0.2,1.4,0.5,2.2,0.7c-14.8-3.6-28.5-10.1-43.7-11.9c-5.2-0.3-10.5,0.2-15.7,0.3
		c-5.9,0.1-10.8-1.2-13.5,0.5C0.4,111.4-0.3,113.5,0,117.3z"/>
	<path class="st3" d="M146.7,121.7c-4.5,1.1-9,2.1-13.5,2.9C137.8,123.9,142.3,123,146.7,121.7z"/>
	<path class="st3" d="M139.1,94.7c13.9,2.8,29.4,5.2,41.8,12.4c-10.7,6.2-22.2,11.3-34.2,14.6c12.7-3.2,25-7.6,36.3-14.4
		c0.3-0.2,0.5-0.3,0.8-0.5c-6.5-4.5-14.6-7.1-23-8.8C153.4,96.5,145.9,95.7,139.1,94.7z"/>
	<path class="st3" d="M30.9,109.6c15.2,1.7,28.9,8.3,43.7,11.9c-0.7-0.2-1.4-0.5-2.2-0.7c-13.9-4.6-26.8-10.9-41.7-11.2
		C30.8,109.6,30.8,109.6,30.9,109.6z"/>
	<path class="st3" d="M46.9,97.6c5.8,2.7,13.8,0.2,19.7-1.8c-1.6,0.3-3.2,0.5-4.9,0.8C56.9,97.5,51.8,98.1,46.9,97.6z"/>
	<path class="st3" d="M67.4,95.7c-0.2,0-0.3,0.1-0.5,0.1C67,95.8,67.2,95.8,67.4,95.7C67.3,95.8,67.4,95.8,67.4,95.7z"/>
	<path class="st0" d="M284.2,59.4c5.5,1.6,11.1,3.1,16.9,4.4C295.4,62.5,289.7,61,284.2,59.4z"/>
	<path class="st0" d="M103.1,26.9c-24.3,0.4-48.7,0.8-73,1.2c-5.6,0.1-22.9-3-28.6,1.4c6-4.1,22.7-1.1,28.2-1.2
		c24.3-0.4,48.7-0.8,73-1.2c27.9-0.5,55.8,1,83-6.4c18.7-5.1,36.7-12.1,54.8-18.6h-0.3c-17.9,6.5-35.7,13.4-54.1,18.4
		C158.9,27.9,131,26.4,103.1,26.9z"/>
	<path class="st0" d="M386.8,14.5c-12.6,3.1-24.7,8-36.2,14.8c0,0,0,0,0,0c11.3-6.7,23.3-11.6,35.8-14.6c10.6-2.9,21.5-4.4,32.6-3.9
		c0,11.2,0,22.3,0,33.4c0.1,0,0.2,0,0.3,0c0-11.2,0-22.4,0-33.7C408.3,10,397.4,11.6,386.8,14.5z"/>
	<path class="st0" d="M1,8.4C7.5,4,29.5,6.2,34.3,5.9c29.4-1.2,58.4-1.8,87.2-3.8h-3.5C90.5,4,62.7,4.5,34.6,5.7
		C29.8,6,7.1,3.7,1,8.4z"/>
	<path class="st0" d="M237,30.5c19.5-12,39.8-21.3,60.9-28.4h-0.4C276.6,9.2,256.3,18.5,237,30.5C237,30.5,237,30.5,237,30.5z"/>
	<path class="st0" d="M350,2.1h-0.6c-20.4,5-39.9,12.7-57,24.8C309.6,14.8,329.4,7.1,350,2.1z"/>
	<path class="st0" d="M239.2,44.4c10.7,3.6,21,7.4,31.5,11c4.5,1.4,9,2.7,13.5,4c-15.1-4.5-29.4-10.1-44.6-15.2
		c-21.4-7.1-43.9-11-66.3-13.7c-0.3,0.1-0.6,0.1-0.8,0.2C195,33.3,217.6,37.2,239.2,44.4z"/>
	<path class="st0" d="M295.2,62.8c-2.7-0.6-5.4-1.3-8.2-2c-19.3-4.7-37.6-11.2-56.1-17c-2.7-0.8-5.5-1.5-8.2-2.2
		c21.2,6.4,42,14.1,64,19.5c21.6,5.3,43.5,9.7,65.5,12.5c12.7,1.6,25.3,2.8,38,3.8c6.1,0.5,28.3-1.7,28.7,3.2c0.1,0,0.2,0,0.4,0
		c0.4-5.3-22.5-3-28.7-3.5c-12.7-1-25.3-2.2-38-3.8c-18.3-2.3-36.5-5.8-54.5-9.9c0.9,0.2,1.8,0.4,2.7,0.6
		C298.8,63.6,297,63.2,295.2,62.8z"/>
	<path class="st3" d="M300.7,64c-0.9-0.2-1.8-0.4-2.7-0.6c-0.9-0.2-1.9-0.4-2.8-0.6C297,63.2,298.8,63.6,300.7,64z"/>
	<path class="st0" d="M376.5,38.8C376.5,38.9,376.5,38.9,376.5,38.8L376.5,38.8C376.5,38.9,376.5,38.9,376.5,38.8z"/>
	<path class="st0" d="M389.6,41.4c-1.8-0.4-3.6-0.7-5.4-1.1C386,40.7,387.8,41,389.6,41.4C389.6,41.4,389.6,41.4,389.6,41.4z"/>
	<path class="st0" d="M374.5,38.3C374.5,38.3,374.5,38.3,374.5,38.3c-0.3-0.1-0.6-0.2-0.9-0.3C373.9,38.1,374.2,38.2,374.5,38.3z"/>
	<polygon class="st0" points="372.1,37.6 372.1,37.6 372.1,37.6 	"/>
	<path class="st0" d="M379,39c1.7,0.4,3.5,0.9,5.2,1.3C382.5,39.9,380.7,39.4,379,39z"/>
	<path class="st0" d="M373.7,37.6c1.4,0.4,2.8,0.8,4.3,1.1C376.6,38.4,375.1,38,373.7,37.6z"/>
	<path class="st0" d="M368.3,36c0.3,0.2,0.7,0.3,1,0.5C368.9,36.3,368.6,36.1,368.3,36z"/>
	<path class="st1" d="M372.1,37.6C372.1,37.6,372.1,37.6,372.1,37.6c0.3,0.1,0.7,0.2,1,0.3c0.2,0,0.3,0.1,0.5,0.1
		c0.3,0.1,0.6,0.2,0.9,0.3c0.4,0.1,0.8,0.2,1.2,0.3c0.3,0.1,0.5,0.1,0.8,0.2c0,0,0,0,0.1,0c4.3,1.1,8.7,2,13.1,2.5
		c-1.8-0.4-3.6-0.7-5.4-1.1c0,0,0,0,0,0c-1.7-0.4-3.5-0.8-5.2-1.3c-0.3-0.1-0.7-0.2-1-0.3c-1.4-0.4-2.8-0.7-4.3-1.1
		c-1.8-0.5-3.6-1.1-5.5-1.6c0.3,0.2,0.7,0.3,1,0.5C370.3,36.9,371.2,37.3,372.1,37.6z"/>
	<path class="st2" d="M298.4,30.1c8.7,7.1,18.7,12,29.2,15.8C317.4,42,307.7,36.9,298.4,30.1z"/>
	<path class="st2" d="M298.4,30.1c1.7-2.3,3.8-4.3,6-6.3C302.1,25.8,300,27.8,298.4,30.1z"/>
	<path class="st2" d="M386.5,14.7c10.6-2.6,21.5-3.9,32.6-3.9C407.9,10.3,397,11.8,386.5,14.7z"/>
	<path class="st2" d="M380.9,17.5c-5.5,1.7-19.1,10.7-26.7,12.2c4.4,1,9.6,4.1,14,6.2c1.8,0.6,3.6,1.1,5.5,1.6
		c1.4,0.4,2.8,0.8,4.3,1.1c0.3,0.1,0.7,0.2,1,0.3c1.7,0.4,3.5,0.9,5.2,1.3c0,0,0,0,0,0c1.8,0.4,3.6,0.8,5.4,1.1c1,0.1,2,0.2,3,0.3
		c8.7,1.6,17.5,2.5,26.4,2.6c0-11.1,0-22.2,0-33.4C406.2,12.1,393.3,13.5,380.9,17.5z"/>
	<path class="st2" d="M368.3,36c1.8,0.6,3.6,1.1,5.5,1.6C371.9,37.1,370.1,36.5,368.3,36z"/>
	<path class="st2" d="M384.2,40.2C384.2,40.2,384.2,40.2,384.2,40.2C384.2,40.2,384.2,40.2,384.2,40.2z"/>
	<path class="st2" d="M378,38.7c0.3,0.1,0.7,0.2,1,0.3C378.7,38.9,378.3,38.8,378,38.7z"/>
	<path class="st2" d="M232.4,12.5c3.3-1.4,6.5-3.2,9.7-5.1c-3.7,1.5-7.4,2.9-11.1,4.4c-6.3,2.7-12.7,5.3-19.2,7.4
		c-4.4,1.6-8.9,3.2-13.4,4.6C209.9,20.8,221.2,17.1,232.4,12.5z"/>
	<path class="st3" d="M195.9,24.5c0.8-0.2,1.6-0.4,2.5-0.7c4.5-1.5,9-3,13.4-4.6c-1.5,0.5-3,0.9-4.5,1.4c-27.8,8-56.8,9.3-85.6,10.7
		c32.8,0,63.8,1.6,95.9,9.1c1.7,0.4,3.4,0.8,5.1,1.2c2.8,0.7,5.5,1.4,8.2,2.2c-2.6-0.8-5.3-1.6-7.9-2.4c16,4.1,31.8,9.2,47.6,14.1
		c-10.4-3.5-20.7-7.4-31.5-11c-21.6-7.2-44.2-11.1-66.8-13.8c0.3-0.1,0.6-0.1,0.8-0.2c-0.2,0-0.3,0-0.5-0.1
		C180.6,28.9,188.3,26.8,195.9,24.5z"/>
	<path class="st3" d="M211.8,19.2c6.5-2.1,12.9-4.7,19.2-7.4C224.6,14.3,218.2,16.8,211.8,19.2z"/>
	<path class="st3" d="M321.8,2.6c-20.6,5.3-42,12.8-56,27.7c5.6,4.5,11.3,7.9,17.2,10.7c-3.9-2-7.4-4.3-10.5-6.9
		c-1.4-1.2-2.7-2.5-3.9-3.9c0.1-0.1,0.2-0.2,0.3-0.2c0,0,0,0,0,0C285.3,18.5,302.8,8.7,321.8,2.6z"/>
	<path class="st3" d="M306.9,22C307,22,307,22,306.9,22c0.1,0,0.1-0.1,0.1-0.1C307,22,307,22,306.9,22z"/>
	<path class="st3" d="M307.4,21.7c8.4-4.5,17.1-8.3,25.9-12C325.2,12.8,315.2,16.5,307.4,21.7C307.4,21.7,307.4,21.7,307.4,21.7z"/>
	<path class="st3" d="M298.4,30.1c1.6-2.3,3.7-4.4,6-6.3c0.8-0.6,1.6-1.3,2.5-1.9c-0.2,0.1-0.4,0.2-0.6,0.3
		c-8.4,4.5-12.9,5.9-4,12.4c13.9,10.1,32.8,16.1,49.7,18.3c-1.2-0.3-2.3-0.6-3.5-0.9c-7-1.8-14.1-3.8-21-6.3
		C317.1,42.1,307.1,37.2,298.4,30.1z"/>
	<path class="st3" d="M316.6,29.9c13.4-8.1,28-14.2,42.9-19.1c0.3-0.1,0.7-0.2,1-0.3c-16.3,4.4-32.3,10.3-46.7,19.1
		C331.4,40,350,47.4,370.4,49.8c-19.2-3.2-37.4-9.4-54.1-19.7c0,0,0,0,0,0C316.4,30.1,316.6,30,316.6,29.9
		C316.7,29.9,316.7,29.9,316.6,29.9C316.6,29.9,316.6,29.9,316.6,29.9z"/>
	<path class="st3" d="M372.1,37.6c-0.9-0.3-1.8-0.7-2.8-1.1c-0.3-0.2-0.7-0.3-1-0.5c-4.4-2.1-9.7-5.2-14-6.2
		c7.6-1.5,21.2-10.5,26.7-12.2c12.4-4,25.3-5.4,38.2-6.7c-11.2,0-22.1,1.3-32.6,3.9c-12.5,3-24.5,7.9-35.8,14.6
		C357.6,32.4,364.7,35.3,372.1,37.6C372.1,37.6,372.1,37.6,372.1,37.6z"/>
	<path class="st3" d="M372.1,37.6c-0.9-0.3-1.8-0.7-2.8-1.1C370.3,36.9,371.2,37.3,372.1,37.6z"/>
	<path class="st1" d="M253.1,2.1h-0.8c-2.1,0.8-4.1,1.8-6.1,3C248.5,4.1,250.8,3.1,253.1,2.1z"/>
	<path class="st3" d="M231,11.8c3.7-1.5,7.4-2.9,11.1-4.4c0.2-0.1,0.4-0.2,0.6-0.3c4.3-1.7,8.6-3.3,12.9-4.9h-2.5
		c-2.3,1-4.6,2-6.9,3C241.1,7.3,236.1,9.6,231,11.8z"/>
	<path class="st2" d="M355,48.5c21.2,4.1,42.4,6.4,63.9,8.3c0.1-0.9,0.1-1.7,0.2-2.6c-35.8,1.2-71-8.3-102.8-24c0,0,0,0,0,0
		c0,0,0,0,0,0c16.7,10.3,34.9,16.5,54.1,19.7c-20.4-2.4-39-9.8-56.5-20.3c14.4-8.8,30.4-14.7,46.7-19.1c2.3-0.7,4.6-1.4,6.8-2
		c4.5-1.3,24.4-3.8,38.1-6.3H384c-26.6,4.4-52.1,12.6-75.1,27.8C319.6,41.4,340.2,45.7,355,48.5z"/>
	<path class="st2" d="M289.1,29.3c31.8,28.9,89.3,29.6,129.7,32.2c-1.1-4-19.8-2.7-24.9-3.1c-11.4-0.8-22.6-2.2-33.9-4
		c-3.9-0.6-7.7-1.3-11.4-2.2c1.2,0.3,2.3,0.6,3.5,0.9c-16.9-2.2-35.8-8.2-49.7-18.3c-8.9-6.5-4.5-7.9,4-12.4
		c0.8-0.6,1.6-1.2,2.5-1.8c12.7-8.7,30.1-13.4,43.6-16.3c2.2-0.5,7.7-1.2,14.8-2.1H350c-20.6,4.9-40.4,12.6-57.7,24.8
		C291.3,27.7,290.2,28.5,289.1,29.3z"/>
	<path class="st2" d="M419.2,70.8c0-0.2,0.1-0.3,0.1-0.5c0.1-0.6,0.1-1.1,0-1.6c-0.1-0.4-0.2-0.7-0.4-1
		c-26.7-1.7-55.7-3.3-81.4-10.7c-1.9-0.5-3.8-1-5.6-1.5c-2.7-0.6-5.3-1.2-7.9-1.8c-13.1-2.6-28.5-6.3-40.8-12.7
		c-5.9-2.8-11.7-6.2-17.2-10.7c14-14.9,35.5-22.4,56-27.7c0.5-0.2,1-0.3,1.5-0.5h-25.4c-21,7-41.4,16.4-60.9,28.4
		C291.3,59,359.2,64.2,419.2,70.8z"/>
	<path class="st2" d="M102.8,27.1c-24.3,0.4-48.7,0.8-73,1.2c-5.5,0.1-22.3-2.9-28.2,1.2C0.1,30.7-0.6,32.5,0,35
		c6.2,0,12.3,0.1,18.5,0.1c70.2,0.4,142.6-4.9,211,13.7c15.6,4.2,30.1,10.9,45.7,15.2c15.9,4.4,32.4,6.4,48.6,8.8
		c31.4,4.7,63.4,6.3,95,7.8c-0.4-5-22.6-2.7-28.7-3.2c-12.7-1-25.3-2.2-38-3.8c-22-2.8-43.9-7.2-65.5-12.5
		c-22-5.4-42.8-13.1-64-19.5c-1.7-0.4-3.4-0.8-5.1-1.2c-32.1-7.5-63.1-9.1-95.9-9.1c28.8-1.4,57.8-2.7,85.6-10.7
		c1.5-0.4,3-0.9,4.5-1.4c6.4-2.4,12.8-4.9,19.2-7.4c5.1-2.2,10.1-4.5,15.2-6.7c2-1.1,4-2.1,6.1-3h-11.7
		c-18.2,6.5-36.1,13.5-54.8,18.6C158.6,28.1,130.7,26.6,102.8,27.1z"/>
	<path class="st2" d="M-0.3,35.2C-0.3,35.2-0.3,35.2-0.3,35.2c0-1.2,0-2.3,0-3.5C-0.6,32.7-0.7,33.9-0.3,35.2z"/>
	<path class="st2" d="M172.4,2.1h-50.8c-28.8,2-57.8,2.6-87.2,3.8C29.5,6.2,7.5,4,1,8.4c-0.6,0.5-1,1-1.3,1.6c0-0.1,0-0.2,0-0.4
		c-0.1,0.2-0.3,0.4-0.3,0.6c-0.3,0.7-0.3,1.6,0,2.6c0.1,0,0.2,0,0.3,0c0-0.1,0-0.2,0-0.3C57.6,14.9,115.4,11.5,172.4,2.1z"/>
	<path class="st1" d="M386.8,41.2c-0.5-0.1-0.9-0.2-1.4-0.3C385.8,41,386.3,41.1,386.8,41.2z"/>
	<path class="st1" d="M392.2,41.9c-0.8-0.1-1.5-0.2-2.3-0.3C390.7,41.7,391.5,41.8,392.2,41.9z"/>
	<path class="st1" d="M389.2,41.5c-0.5-0.1-1-0.1-1.5-0.2C388.2,41.4,388.7,41.5,389.2,41.5z"/>
	<path class="st1" d="M384.4,40.7c-0.6-0.1-1.1-0.2-1.7-0.4C383.3,40.5,383.9,40.6,384.4,40.7z"/>
	<path class="st1" d="M378.8,39.4c-0.2,0-0.4-0.1-0.6-0.1C378.4,39.3,378.6,39.4,378.8,39.4z"/>
	<polygon class="st1" points="376.6,38.9 376.6,38.9 376.6,38.9 	"/>
	<path class="st1" d="M392.2,41.9c-0.9-0.2-1.7-0.3-2.6-0.5c0,0,0,0,0,0C390.5,41.6,391.4,41.7,392.2,41.9z"/>
	<path class="st1" d="M381.1,40c-0.3-0.1-0.5-0.1-0.8-0.2C380.5,39.9,380.8,39.9,381.1,40z"/>
	<path class="st1" d="M376.6,38.9C376.6,38.9,376.6,38.9,376.6,38.9c0.5,0.1,1.1,0.3,1.6,0.4c0.2,0,0.4,0.1,0.6,0.1
		c0.5,0.1,1,0.2,1.5,0.4c0.3,0.1,0.5,0.1,0.8,0.2c0.6,0.1,1.1,0.3,1.7,0.4c0.6,0.1,1.1,0.2,1.7,0.4c0.3,0.1,0.6,0.1,0.9,0.2
		c0.5,0.1,0.9,0.2,1.4,0.3c0.3,0.1,0.6,0.1,0.9,0.1c0.5,0.1,1,0.2,1.5,0.2c0.3,0,0.5,0.1,0.8,0.1c0.8,0.1,1.5,0.2,2.3,0.3
		c-0.9-0.2-1.7-0.3-2.6-0.5C385.2,40.9,380.9,40,376.6,38.9z"/>
	<path class="st1" d="M307.4,21.7c0,0-0.1,0.1-0.1,0.1c-0.1,0.1-0.2,0.1-0.2,0.2C307.2,21.9,307.3,21.8,307.4,21.7z"/>
	<path class="st1" d="M272.9,33.9c13.1,7.6,27,13,41.3,17c4.5,1.1,9.1,2.2,13.8,3.3c2,0.4,4,0.8,5.9,1.1c12.9,2.4,25.9,4.8,39,6.7
		c4.5,0.6,9.1,1.2,13.6,1.7c6.9,0.8,13.8,1.5,20.7,2c2.8,0.2,7.7-0.5,10.5,0.6c0.6,0,1.3,0,1.9,0.1c-0.1,0.4-0.1,0.7-0.2,1.1
		c-0.1,0-0.1,0-0.2,0c0.2,0.3,0.3,0.6,0.4,1c0-12.6-0.1-21.5-0.1-24.4c0-14,0-28,0-42h-13c-13.8,2.5-34.9,5.1-39.5,6.5
		c-2.6,0.8-5.2,1.5-7.9,2.4c-14.8,4.9-29.2,11-42.5,18.9c31.8,15.7,67,25.2,102.8,24c-0.1,1-0.1,1.9-0.2,2.9c-0.1,0-0.2,0-0.3,0
		c0,0.1,0,0.2,0,0.3c-21.6-1.9-42.9-4.2-64.2-8.3c-14.8-2.8-35.5-7.1-46.2-18.6c0.1-0.1,0.2-0.1,0.4-0.2c0,0,0,0,0,0
		c22.7-15,47.8-23.3,74-27.8h-14.1c-7.9,1-14.3,1.8-16.7,2.3c-13.3,2.9-30.6,7.5-43.2,16.1c-0.7,0.5-1.4,1-2.1,1.5
		c0.2-0.1,0.4-0.2,0.6-0.3c8.9-6.1,20.7-10.1,29.6-13.5c-1.2,0.5-2.3,1-3.5,1.4c1.1-0.4,2.1-0.8,3.1-1.2c-10,4.1-19.9,8.3-29.4,13.4
		c0,0-0.1,0-0.1,0.1c-0.8,0.5-1.5,1.1-2.2,1.6c-2.3,1.9-4.3,4-6,6.3c9.3,6.7,19,11.9,29.2,15.8c6.9,2.5,14,4.5,21,6.3
		c3.7,0.8,7.5,1.6,11.4,2.2c11.3,1.8,22.5,3.2,33.9,4c5.3,0.4,24.7-0.9,25,3.4c-0.1,0-0.3,0-0.4,0c0,0.1,0.1,0.2,0.1,0.3
		c-40.4-2.6-98.2-3.2-130.1-32.2c1.2-0.9,2.3-1.7,3.5-2.6c17.1-12.2,36.6-19.9,57-24.8h-25.7c-19.7,6-37.9,16-54.8,27.9
		C270.1,31.4,271.5,32.6,272.9,33.9z M419.4,44.3c-0.1,0-0.2,0-0.3,0c0,0.1,0,0.2,0,0.3c-9-0.1-18-1-26.8-2.6
		c-14.6-1.1-28.8-6.5-42-12.4c0.1-0.1,0.3-0.1,0.4-0.2c0,0,0,0,0,0c11.4-6.9,23.6-11.8,36.2-14.8c10.6-2.9,21.5-4.4,32.6-3.9
		C419.4,21.9,419.4,33.1,419.4,44.3z"/>
	<path class="st1" d="M372.1,37.6c0.1,0,0.1,0.1,0.2,0.1C372.2,37.6,372.2,37.6,372.1,37.6C372.1,37.6,372.1,37.6,372.1,37.6z"/>
	<path class="st1" d="M372.1,37.6c0.1,0,0.1,0.1,0.2,0.1c0.3,0.1,0.5,0.2,0.8,0.2C372.8,37.8,372.4,37.7,372.1,37.6z"/>
	<path class="st1" d="M323.6,2.1L323.6,2.1c-0.5,0.1-0.9,0.2-1.4,0.3C322.7,2.4,323.2,2.3,323.6,2.1z"/>
	<path class="st1" d="M389.6,41.4c0.9,0.2,1.7,0.4,2.6,0.5c0.2,0,0.3,0,0.5,0c-0.1,0-0.3,0-0.4,0c8.8,1.6,17.8,2.5,26.8,2.6
		c0-0.1,0-0.2,0-0.3c-8.9-0.1-17.7-1.1-26.4-2.6C391.7,41.6,390.6,41.5,389.6,41.4z"/>
	<path class="st1" d="M321.8,2.6c-19,6.1-36.5,15.8-52.9,27.4c0,0,0,0,0,0c16.9-11.9,35-21.9,54.8-27.9h-0.1
		c-0.5,0.1-0.9,0.2-1.4,0.3C322.1,2.5,322,2.6,321.8,2.6z"/>
	<path class="st1" d="M307.4,21.7c-0.1,0.1-0.3,0.2-0.4,0.2c0,0,0,0-0.1,0c0,0,0.1,0,0.1-0.1c9.5-5.1,19.4-9.3,29.4-13.4
		c-1,0.4-2.1,0.8-3.1,1.2C324.5,13.4,315.8,17.2,307.4,21.7C307.4,21.7,307.4,21.7,307.4,21.7z"/>
	<path class="st1" d="M360.6,10.5c-0.3,0.1-0.7,0.2-1,0.3c-14.9,4.9-29.5,11.1-42.9,19.1c0,0,0,0,0,0c0,0,0,0,0,0
		c13.3-8,27.8-14,42.5-18.9c1-0.3,1.9-0.6,2.9-1C361.6,10.2,361.1,10.3,360.6,10.5z"/>
	<path class="st1" d="M392.2,41.9c-0.8-0.1-1.5-0.2-2.3-0.3c-0.3,0-0.5-0.1-0.8-0.1c-0.5-0.1-1-0.1-1.5-0.2c-0.3,0-0.6-0.1-0.9-0.1
		c-0.5-0.1-0.9-0.2-1.4-0.3c-0.3-0.1-0.6-0.1-0.9-0.2c-0.6-0.1-1.1-0.2-1.7-0.4c-0.6-0.1-1.1-0.3-1.7-0.4c-0.3-0.1-0.5-0.1-0.8-0.2
		c-0.5-0.1-1-0.2-1.5-0.4c-0.2,0-0.4-0.1-0.6-0.1c-0.5-0.1-1.1-0.3-1.6-0.4c0,0,0,0,0,0c0,0,0,0-0.1,0c-0.7-0.2-1.3-0.4-2-0.6
		c0,0,0,0,0,0c-0.3-0.1-0.6-0.2-0.9-0.3c-0.4-0.1-0.9-0.3-1.3-0.4c-0.1,0-0.1-0.1-0.2-0.1c-7.4-2.3-14.5-5.2-21.4-8.2
		c-0.1,0.1-0.3,0.1-0.4,0.2C363.5,35.4,377.8,40.8,392.2,41.9c0.2,0,0.3,0,0.5,0C392.5,41.9,392.4,41.9,392.2,41.9z"/>
	<path class="st1" d="M374.5,38.3c0.7,0.2,1.3,0.4,2,0.6c-0.3-0.1-0.5-0.1-0.8-0.2C375.3,38.5,374.9,38.4,374.5,38.3z"/>
	<path class="st1" d="M389.9,41.6c-0.3,0-0.5-0.1-0.8-0.1C389.4,41.6,389.7,41.6,389.9,41.6z"/>
	<path class="st1" d="M387.7,41.3c-0.3,0-0.6-0.1-0.9-0.1C387.1,41.2,387.4,41.3,387.7,41.3z"/>
	<path class="st1" d="M382.8,40.4c-0.6-0.1-1.1-0.3-1.7-0.4C381.6,40.1,382.2,40.3,382.8,40.4z"/>
	<path class="st1" d="M385.4,40.9c-0.3-0.1-0.6-0.1-0.9-0.2C384.7,40.8,385.1,40.9,385.4,40.9z"/>
	<path class="st1" d="M372.3,37.6c0.4,0.1,0.9,0.3,1.3,0.4c-0.2,0-0.3-0.1-0.5-0.1C372.8,37.8,372.6,37.7,372.3,37.6z"/>
	<path class="st1" d="M378.2,39.3c-0.5-0.1-1.1-0.3-1.6-0.4C377.1,39,377.7,39.2,378.2,39.3z"/>
	<path class="st1" d="M380.3,39.8c-0.5-0.1-1-0.2-1.5-0.4C379.3,39.6,379.8,39.7,380.3,39.8z"/>
	<path class="st1" d="M360.6,10.5c0.5-0.1,1-0.3,1.5-0.4c-1,0.3-1.9,0.6-2.9,1c2.6-0.8,5.3-1.6,7.9-2.4c4.6-1.4,25.7-4,39.5-6.5h-1
		c-13.8,2.5-33.7,4.9-38.1,6.3C365.2,9.1,362.9,9.8,360.6,10.5z"/>
	<path class="st1" d="M308.9,29.9c-0.1,0.1-0.2,0.1-0.4,0.2c10.7,11.5,31.4,15.8,46.2,18.6c21.3,4.1,42.6,6.4,64.2,8.3
		c0-0.1,0-0.2,0-0.3c-21.5-1.9-42.7-4.2-63.9-8.3C340.2,45.7,319.6,41.4,308.9,29.9z"/>
	<path class="st1" d="M292.3,27c-1.2,0.8-2.4,1.7-3.5,2.6c31.9,29,89.7,29.6,130.1,32.2c0-0.1,0-0.2-0.1-0.3
		c-40.4-2.6-97.9-3.3-129.7-32.2C290.2,28.5,291.3,27.7,292.3,27z"/>
	<path class="st1" d="M308.9,20.5c12.6-8.6,29.9-13.2,43.2-16.1c2.4-0.5,8.8-1.3,16.7-2.3h-1.6c-7,0.9-12.6,1.6-14.8,2.1
		C339,7.1,321.5,11.8,308.9,20.5z"/>
	<path class="st1" d="M322.3,2.5c0.4-0.1,0.8-0.2,1.3-0.3h-0.2c-0.5,0.2-1,0.3-1.5,0.5C322,2.6,322.1,2.5,322.3,2.5z"/>
	<path class="st1" d="M1,8.4C7.1,3.7,29.8,6,34.6,5.7C62.7,4.5,90.5,4,118.1,2.1H-0.3c0,2.5,0,5,0,7.5C0,9.2,0.5,8.8,1,8.4z"/>
	<path class="st1" d="M1,8.4C0.5,8.8,0,9.2-0.3,9.6c0,0.1,0,0.2,0,0.4C0,9.4,0.4,8.9,1,8.4z"/>
	<path class="st1" d="M1.6,29.5c5.6-4.4,23-1.4,28.6-1.4c24.3-0.4,48.7-0.8,73-1.2c27.9-0.5,55.8,1,83-6.4
		c18.4-5,36.2-11.9,54.1-18.4h-66.7C116.2,11.6,58,15.2-0.3,12.9c0,6.3,0,12.6,0,18.9C0.1,30.9,0.7,30.1,1.6,29.5z"/>
	<path class="st1" d="M0.4,67.8c0.3-0.3,0.7-0.4,1.2-0.4c3.6,0,7.3,0,11,0c32.8,0.1,65.6,1,98.3,3c26.7,1.6,57.5,1.6,84.3,8.8
		c2.4,0.6,4.8,1.3,7.1,2.2c2.4,0.8,4.8,1.7,7.1,2.6c0.5,0.2,0.9,0.4,1.4,0.6c14.6,4.9,28.9,10.8,43.5,15.5
		c10.2,2.7,20.5,4.9,30.9,6.9c-1.5-0.2-2.9-0.3-4.4-0.5c1.3,0.3,2.7,0.5,4,0.8c-0.3,0-0.6-0.1-0.9-0.1c0.9,0.1,1.8,0.3,2.7,0.4
		c44.2-0.5,88.5-1,132.7-1.4c0.2,1.2-0.3,2.1-1.2,2.7c-3.3,2.7-14.2,0.8-17.7,0.8c-16.3,0.1-32.5,0.2-48.8,0.4
		c-23,0.2-46,0.4-69,0.5c-5.8,0.8-11.6,1.8-17.4,2.9c2.3-0.3,4.5-0.6,6.8-0.9c-1.2,0.2-2.4,0.4-3.7,0.7c1.1-0.1,2.2-0.3,3.3-0.4
		c-7.5,1.4-15.7,2.7-23.7,4.6c-7,1.9-13.9,4-20.6,6.6c-0.1,0-0.2,0.1-0.2,0.1c-0.4,0.2-0.8,0.4-1.3,0.6c-3.3,1.6-6.5,3.5-9.5,5.6
		c0.2-0.1,0.4-0.3,0.6-0.4c-0.1,0.1-0.2,0.1-0.3,0.2c2.7-2,5.7-3.7,8.7-5.2c-7.2,3.1-13.7,7.7-20.7,11.4h22.7
		c1.3-0.6,2.6-1.1,3.9-1.7c27.5-12.7,63.1-9.8,92.9-10.7c31.7-0.9,63.5-1.1,95.2-1.1c0.1,0.4,0.2,0.7,0.3,1.1c0-9.1,0-17.8,0-26.1
		c-0.1,0.1-0.2,0.2-0.3,0.3c-0.1,0-0.1,0.1-0.2,0.1c-0.1,0-0.1,0.1-0.2,0.1c-1.8,1.4-10.7,0-12.9,0c-11.2,0-22.3,0-33.5,0
		c-33,0-65.7,1.8-98.3-3.7c-15.1-2.5-30.7-4.9-45.2-9.8c-14-4.7-26.9-10.6-41.5-13.8c-28.6-6.3-59.8-4.8-89-5.8
		c-23.2-0.8-46.3-1.6-69.5-2.4c-4.6-0.4-28.3,2.3-29.4-4.2c0,3.4,0,6.8,0,10.2C-0.1,68.3,0.1,68,0.4,67.8z"/>
	<path class="st1" d="M228.9,79.9c-9.7-4.6-20.4-9.8-31.2-12.3c-1.9-0.4-3.7-0.7-5.6-1C204.8,69.9,216.6,76.7,228.9,79.9z"/>
	<path class="st1" d="M16.4,123.4c-0.6-0.2-1.2-0.3-1.8-0.5c7,0.6,13.8,2.2,20.6,3.9c22.7,3.7,45.2,7.7,68.5,8.7
		c38.3,1.6,73.9-6.6,105.1-28.7c-31.1-14.9-68-19.4-102.1-21c-17.8-0.9-35.6-1.8-53.5-2.4c-17-0.6-36.8-3-53.5,1.2
		c0,5.6,0,11.2,0,16.8c0.1,0,0.2,0,0.3,0c0-0.1,0-0.2,0-0.2c12.4-0.1,27.2-1.2,39.1,2.7c-0.3,0-0.7,0-1.1,0c0.3,0.1,0.5,0.1,0.8,0.2
		c-6.3,0-38.2,2.4-39.1-2.5c0,4.1,0,8.2,0,12.3c0.3-1.9,1-3,2-3.6c2.6-2,7.7-0.6,13.8-0.7c5.2-0.1,10.5-0.6,15.7-0.3
		c-0.1,0-0.1,0-0.2,0c14.9,0.3,27.9,6.6,41.7,11.2c30.1,7.2,58.3,2.3,85.1-12.9c-23.4-11.8-54-15-79.7-12.9
		c-3.9,0.3-7.8,0.8-11.7,1.4c-6.1,2.1-14.6,4.8-20.5,1.5c-1.1,0-2.2-0.1-3.3-0.2c-14.5-1.2-28-1.8-42.7-1.4c0-1.3,0-2.5,0-3.7
		c0.1,0,0.2,0,0.3,0c0-0.1,0-0.2,0-0.2c28.3-0.3,56-3.1,84.4-1.9c24.8,1.1,51.9,1.1,76.5,7.7c8.4,1.7,16.5,4.3,23,8.8
		c-0.1,0.1-0.2,0.2-0.4,0.2c0,0,0,0,0,0c-27.7,18.2-62.7,20.9-94.8,20.8c-29.9-0.1-59.4-12.9-89.3-10.1c0,1.4,0,2.8,0,4.3
		c6.2,0.7,12.3,1.5,18.4,2.3c-1.3-0.3-2.6-0.7-3.9-1C15,123.2,15.7,123.3,16.4,123.4z M58.8,104.8c21.1-4,46.8-8.2,67.7,0.3
		c2.4,0.7,4.7,1.8,6.6,3.3c-0.1,0.1-0.3,0.1-0.4,0.2c0,0,0,0,0.1,0c-8.8,4.7-19.3,7.6-29.4,6.9c1.1,0,2.1-0.1,3.2-0.1
		c-1,0-1.9,0-2.9-0.1c7-0.1,14.2-1.4,20.7-4c-22.1,6-44.9,4.8-66-6.2c0.2,0,0.4-0.1,0.6-0.1C59,104.9,58.9,104.9,58.8,104.8z"/>
	<path class="st1" d="M-0.3,133.2c0,0.9,0,1.9,0,2.8h5.7C2.7,135.6,0.4,134.8-0.3,133.2z"/>
	<path class="st1" d="M225.6,124.6c-1,0.5-2,1-2.9,1.6c1-0.6,2.1-1.1,3.2-1.7c0.3-0.1,0.6-0.3,0.8-0.4
		C226.4,124.3,226,124.4,225.6,124.6z"/>
	<path class="st1" d="M0.2,80.8c0-0.1,0-0.2,0-0.2c38.2-1.2,76.8-3.2,114.9-0.1c29.8,2.4,68.8,3.6,97.6,17.3
		c0.4,0.2,0.8,0.3,1.2,0.5c4.8,2.1,9.2,3.5,10.4,6.1c0.6,0.4,1.3,0.9,1.9,1.3c-0.7,0.9-1.5,1.7-2.2,2.5c-0.3,0.7-0.8,1.5-1.5,2.3
		c-2.5,3.4-5.8,6.3-9.5,8.9c-6.1,4.3-13.5,7.5-20.8,9.9c-7.5,3-15.4,5.2-23.4,6.8h21.6c6.4-2.4,12.8-5.3,19.4-8.9
		c18.4-10,35.7-17.2,56.5-20.1c-28.2-2.2-54.1-17-82-21.8c-32.1-5.6-65.1-8.4-97.6-10.1c-17.1-0.9-34.1-1.8-51.2-2.4
		C24.4,72.2,13.2,71.8,2,71.4c-1.2,0-2-0.7-2.3-1.5c0,4.8,0,9.6,0,14.4c0.2-1.2,0.2-2.4,0.2-3.5C0,80.8,0.1,80.8,0.2,80.8z"/>
	<path class="st1" d="M287,60.8c2.7,0.7,5.4,1.3,8.2,2c-3.9-1-7.6-2-11.4-3.1c-17.7-5-35.2-11-52.9-15.9
		C249.4,49.6,267.8,56.1,287,60.8z"/>
	<path class="st1" d="M0.2,56.7c0-0.1,0-0.2,0.1-0.2c62.5,1.1,129.3-4.8,190.6,9.9c0.4,0.1,0.8,0.2,1.2,0.3c1.9,0.3,3.8,0.6,5.7,1
		c1.7,0.3,3.4,0.7,5.1,1c-1.6-0.5-3.2-0.9-4.8-1.3c-2.1-0.4-4.1-0.8-6.1-1.1c2,0.3,4.1,0.6,6.1,1.1c9.9,1.9,20.7,4.5,28.9,9.8
		c3,1.9,6.4,3.4,10,4.7c13,3.1,26.1,5.9,39.2,8.5c33.6,6.5,68.6,4.1,102.6,4.4c9.9,0.1,19.7,0.2,29.6,0.3c0.3,0,9.5-0.2,11.3,1.2
		c0-9.7,0-18.6-0.1-26.2c0,0.2-0.1,0.5-0.2,0.7c-0.1,0-0.2,0-0.3,0c0,0.1,0,0.2-0.1,0.3c-60-6.6-128.1-11.8-182.5-40.3
		c0.1-0.1,0.2-0.2,0.4-0.2c0,0,0,0,0,0c19.4-12,39.6-21.3,60.5-28.4h-41.6c-4.5,1.7-9.1,3.4-13.6,5.2c-3.4,2-6.7,4-10.2,5.4
		c-12,4.9-24.2,8.8-36.5,12c-7.3,2.3-14.7,4.2-22.3,5.8c22.4,2.7,44.9,6.6,66.3,13.7c15.2,5.1,29.5,10.7,44.6,15.2
		c5.6,1.6,11.2,3.1,16.9,4.4c-5.8-1.3-11.4-2.8-16.9-4.4c-4.5-1.3-9-2.6-13.5-4c4.4,1.5,8.7,2.9,13.2,4.2c4.7,1.3,9.5,2.6,14.2,3.8
		c18,4.1,36.2,7.6,54.5,9.9c12.7,1.6,25.3,2.8,38,3.8c6.2,0.5,29.1-1.8,28.7,3.5c-0.1,0-0.2,0-0.4,0c0,0.1,0,0.2,0,0.3
		c-31.8-1.5-63.9-3.1-95.4-7.8c-16.2-2.4-32.7-4.4-48.6-8.8c-15.6-4.3-30.1-11-45.7-15.2c-68.4-18.6-140.8-13.3-211-13.7
		c-6.2,0-12.3-0.1-18.5-0.1c0,3,0,5.9,0,8.9c0.1,0,0.2,0,0.3,0c0-0.1,0-0.2,0-0.2c31.9,0.1,63.8-0.5,95.8,0
		c33.1,0.6,68-0.8,100.5,6.2c2.4,0.5,4.8,1.1,7.1,1.7c-0.6-0.2-1.1-0.4-1.7-0.6c-4-1-8-1.9-12.1-2.7c4.1,0.5,8.1,1.4,12.1,2.7
		c1.6,0.4,3.3,0.9,4.9,1.3c-1.5-0.6-3-1.1-4.6-1.6c-4-1-8-1.9-12.1-2.7c4.1,0.5,8.1,1.4,12.1,2.7c27.8,7.2,53.5,20.3,82.2,25.4
		c-1.5-0.2-3-0.4-4.4-0.6c1.4,0.3,2.7,0.6,4.1,0.8c-2.5-0.3-4.9-0.6-7.4-1c2,0.4,3.9,0.8,5.9,1.1c31.2,5,63.3,7.4,94.8,9.9
		c14,1.1,28,2.2,42,1.1c0,0.9,0,1.9,0,2.8c-0.1,0-0.2,0-0.3,0c0,0.1,0,0.2,0,0.3c-62.5-1.7-124.1-5.7-184.8-21
		c-13.2-3.3-26.9-10.4-40-12.1c-16.2-2.1-32.4-3.5-48.7-4.8c-32.5-2.6-65.2-3-97.8-2.9c-16,0-31.9,0.6-47.8,1.1
		c0-0.6-0.1-1.2-0.2-1.9c0,2.7,0,5.4,0,8.1c0-0.2,0.1-0.4,0.2-0.7C0,56.7,0.1,56.7,0.2,56.7z"/>
	<path class="st1" d="M-0.1,131c10,0.9,19.8,2.9,29.4,5h28c-9.8-1.2-19.6-2.7-28.9-5.8c-6-2-25.8-1.2-28.7-6.4c0,2.5,0,4.9,0,7.4
		c0.1,0,0.1,0,0.2,0C-0.1,131.2-0.1,131.1-0.1,131z"/>
	<path class="st1" d="M46.9,97.6c-0.1,0-0.1,0-0.2-0.1c-0.3,0-0.6,0-0.8,0C46.3,97.6,46.6,97.6,46.9,97.6z"/>
	<path class="st1" d="M47.7,50c32.6-0.1,65.3,0.3,97.8,2.9c16.3,1.3,32.5,2.7,48.7,4.8c13.1,1.7,26.8,8.8,40,12.1
		c60.7,15.3,122.3,19.3,184.8,21c0-0.1,0-0.2,0-0.3c-62.4-1.7-123.9-5.7-184.5-21c-13.2-3.3-26.9-10.4-40-12.1
		c-16.2-2.1-32.4-3.5-48.7-4.8c-32.5-2.6-65.2-3-97.8-2.9c-16,0-31.9,0.6-47.8,1.1c-0.1-2.1-0.6-4.7-0.2-6.8c-0.1,0-0.2,0-0.3,0
		c0,1.7,0,3.4,0,5.1c0.1,0.7,0.1,1.3,0.2,1.9C15.8,50.6,31.7,50,47.7,50z"/>
	<path class="st1" d="M29.1,62.5c23.2,0.8,46.3,1.6,69.5,2.4c29.2,1,60.4-0.5,89,5.8c14.6,3.2,27.5,9.1,41.5,13.8
		c14.5,4.9,30.1,7.3,45.2,9.8c32.6,5.5,65.3,3.7,98.3,3.7c11.2,0,22.3,0,33.5,0c2.2,0,11.1,1.4,12.9,0c0.1,0,0.1-0.1,0.2-0.1
		c-2.1,1.2-10.6-0.1-12.7-0.1c-11.2,0-22.3,0-33.5,0c-33,0-65.7,1.8-98.3-3.7c-15.1-2.5-30.7-4.9-45.2-9.8
		c-14-4.7-26.9-10.6-41.5-13.8c-28.6-6.3-59.8-4.8-89-5.8c-23.2-0.8-46.3-1.6-69.5-2.4c-5-0.4-31.5,2.7-29.3-5.7c-0.1,0-0.2,0-0.3,0
		c-0.1,0.2-0.1,0.5-0.2,0.7c0,0.3,0,0.7,0,1C0.8,64.9,24.5,62.2,29.1,62.5z"/>
	<path class="st1" d="M229.1,123.1c-0.7,0.3-1.3,0.6-2,0.9c0.1,0,0.2-0.1,0.2-0.1c6.7-2.6,13.6-4.8,20.6-6.6
		c-1.6,0.4-3.3,0.8-4.9,1.2C238.4,119.8,233.7,121.4,229.1,123.1z"/>
	<path class="st1" d="M400.8,109.2c-16.3,0.1-32.5,0.2-48.8,0.4c-23,0.2-46,0.4-69,0.5c-7.1,1-14.1,2.2-21.2,3.6
		c1.1-0.2,2.3-0.3,3.4-0.5c5.8-1.1,11.6-2.1,17.4-2.9c23-0.2,46-0.4,69-0.5c16.3-0.2,32.5-0.3,48.8-0.4c3.5,0,14.4,1.9,17.7-0.8
		C414.6,111,404.3,109.2,400.8,109.2z"/>
	<path class="st1" d="M2,71.4c11.2,0.4,22.4,0.8,33.6,1.2c17.1,0.6,34.1,1.5,51.2,2.4c32.5,1.7,65.5,4.5,97.6,10.1
		c27.8,4.9,53.8,19.6,82,21.8c0.4-0.1,0.8-0.1,1.2-0.2c-28.5-2-54.7-17-82.8-21.9c-32.1-5.6-65.1-8.4-97.6-10.1
		C70,73.9,53,73,35.9,72.4C24.7,72,13.5,71.6,2.3,71.2c-2.3-0.1-2.9-2.4-1.9-3.4c-0.3,0.2-0.6,0.4-0.7,0.7c0,0.4,0,0.9,0,1.4
		C0,70.7,0.8,71.4,2,71.4z"/>
	<path class="st1" d="M226.7,124.1c0.6-0.3,1.2-0.5,1.7-0.8c-0.2,0.1-0.5,0.2-0.7,0.3c-0.1,0-0.2,0.1-0.2,0.1
		c-0.4,0.2-0.8,0.4-1.3,0.6c-0.2,0.1-0.4,0.2-0.6,0.3C226,124.4,226.4,124.3,226.7,124.1z"/>
	<path class="st1" d="M5.5,136h2.5c-4.6-0.4-8.5-1.5-8-4.8c-0.1,0-0.1,0-0.2,0c0,0.6,0,1.3,0,1.9C0.4,134.8,2.7,135.6,5.5,136z"/>
	<path class="st1" d="M226.2,124.3c0.3-0.1,0.6-0.3,0.8-0.4c-7.8,3.2-14.9,8.2-22.4,12.2h0.1c7-3.7,13.6-8.3,20.7-11.4
		C225.7,124.5,226,124.4,226.2,124.3z"/>
	<path class="st1" d="M28.4,130.2c9.4,3.1,19.1,4.6,28.9,5.8h2.4c-0.1,0-0.3,0-0.4,0c-10.4-1.2-20.7-2.7-30.6-6
		c-6.3-2.1-28.2-1.1-29-7.4c0,0.4,0,0.8,0,1.2C2.6,129,22.4,128.3,28.4,130.2z"/>
	<path class="st1" d="M192.3,129.3c-0.6,0.2-1.1,0.4-1.7,0.5c-7.3,2.8-14.9,4.8-22.7,6.2h1C176.9,134.5,184.8,132.3,192.3,129.3z"/>
	<path class="st1" d="M53.2,83.4c17.9,0.6,35.7,1.5,53.5,2.4c34.1,1.6,71,6.1,102.1,21c0.1-0.1,0.2-0.2,0.3-0.2
		c-31.1-14.9-68-19.4-102.1-21c-17.8-0.9-35.6-1.8-53.5-2.4c-17-0.6-36.8-3-53.5,1.2c0.2-1.2,0.2-2.4,0.2-3.6c-0.1,0-0.2,0-0.3,0
		c0,1.1,0,2.3-0.2,3.5c0,0.1,0,0.2,0,0.3C16.4,80.5,36.2,82.8,53.2,83.4z"/>
	<path class="st1" d="M66.7,95.9C66.7,95.9,66.7,95.9,66.7,95.9c0,0,0.1,0,0.2,0C66.8,95.8,66.8,95.8,66.7,95.9z"/>
	<path class="st1" d="M89,127.6c32.1,0.1,67.1-2.6,94.8-20.8c-0.3,0.2-0.5,0.3-0.8,0.5c-27.5,17.5-62,20.2-93.7,20.1
		c-29.9-0.1-59.4-12.9-89.3-10.1c-0.3-3.8,0.3-5.9,1.7-7c-1,0.7-1.7,1.8-2,3.6c0,1.2,0,2.4,0,3.6C29.6,114.8,59.1,127.5,89,127.6z"
		/>
	<path class="st1" d="M45.9,97.6c0.3,0,0.6,0,0.8,0c-0.2-0.1-0.4-0.2-0.5-0.3c-1.1,0-2.2-0.1-3.3-0.2c-14.5-1.2-28-1.8-42.7-1.4
		c0-1.2,0-2.3,0-3.5c-0.1,0-0.2,0-0.3,0c0,1.2,0,2.4,0,3.7c14.7-0.4,28.2,0.2,42.7,1.4C43.7,97.5,44.8,97.5,45.9,97.6
		C45.9,97.6,45.9,97.6,45.9,97.6C45.9,97.6,45.9,97.6,45.9,97.6z"/>
	<path class="st1" d="M78.4,94.5c-3.7,0.3-7.4,0.8-11.1,1.3c-0.3,0.1-0.6,0.2-0.9,0.3c3.9-0.5,7.8-1,11.7-1.4
		c25.8-2.1,56.4,1.1,79.7,12.9c0.1-0.1,0.3-0.1,0.4-0.2C134.8,95.6,104.2,92.4,78.4,94.5z"/>
	<path class="st1" d="M124.5,111.3c0.4-0.2,0.8-0.3,1.1-0.5c-22.3,6.3-45.3,5.2-66.5-5.9c-0.2,0-0.4,0.1-0.6,0.1
		C79.5,116.1,102.3,117.3,124.5,111.3z"/>
	<path class="st1" d="M38.8,104.1c-0.2-0.1-0.5-0.1-0.8-0.2c-8.2,0.2-37,2.2-38-2.5c-0.1,0-0.2,0-0.3,0c0,0.1,0,0.1,0,0.2
		C0.6,106.6,32.5,104.1,38.8,104.1z"/>
	<path class="st1" d="M298,63.4c-4.8-1.2-9.5-2.4-14.2-3.8c3.7,1.1,7.5,2.2,11.4,3.1C296.1,63,297.1,63.2,298,63.4z"/>
	<path class="st1" d="M201.8,51.2c-4-1.3-8-2.2-12.1-2.7C193.8,49.3,197.8,50.2,201.8,51.2z"/>
	<path class="st1" d="M276.6,75.7c2.5,0.4,4.9,0.7,7.4,1c-1.4-0.2-2.7-0.5-4.1-0.8c-2.5-0.3-5-0.7-7.5-1.1
		C273.8,75.1,275.2,75.4,276.6,75.7z"/>
	<path class="st1" d="M206.6,52.6c-1.6-0.5-3.3-0.9-4.9-1.3c0.6,0.2,1.1,0.4,1.7,0.6c1.5,0.4,2.9,0.8,4.4,1.2
		C207.4,52.9,207,52.7,206.6,52.6z"/>
	<path class="st1" d="M197.7,67.7c-1.9-0.4-3.8-0.8-5.7-1c0,0,0.1,0,0.1,0C194,67,195.8,67.3,197.7,67.7z"/>
	<path class="st1" d="M228.9,79.9c0.6,0.2,1.2,0.3,1.7,0.5c0.1,0,0.2,0.1,0.3,0.1c-0.5-0.2-1-0.4-1.5-0.7c-8.3-4-17.4-8.4-26.6-11.1
		c-1.7-0.4-3.4-0.7-5.1-1C208.5,70.1,219.2,75.3,228.9,79.9z"/>
	<path class="st1" d="M284,107c0.3,0,0.6,0.1,0.9,0.1c-1.3-0.3-2.7-0.5-4-0.8c-3.5-0.5-7-1.2-10.5-1.9
		C274.9,105.5,279.4,106.3,284,107z"/>
	<path class="st1" d="M213.1,119.4c-6.1,4.2-13.3,7.3-20.4,9.6c-0.7,0.3-1.4,0.5-2,0.8c0.6-0.2,1.1-0.3,1.7-0.5
		C199.6,126.9,206.9,123.7,213.1,119.4z"/>
	<path class="st1" d="M243.1,118.4c1.6-0.4,3.3-0.8,4.9-1.2c8.1-1.9,16.2-3.2,23.7-4.6c-1.1,0.1-2.2,0.3-3.3,0.4
		c-6.5,1.1-13.3,2.3-20.1,3.9C246.5,117.4,244.8,117.9,243.1,118.4z"/>
	<path class="st1" d="M228.5,123.3c-0.6,0.3-1.2,0.5-1.7,0.8c-0.3,0.1-0.6,0.3-0.8,0.4c0.4-0.2,0.8-0.4,1.3-0.6
		c0.7-0.3,1.3-0.6,2-0.9C228.9,123.2,228.7,123.2,228.5,123.3z"/>
	<path class="st1" d="M217,129.7c-0.2,0.1-0.4,0.3-0.6,0.4c3-2.1,6.2-4,9.5-5.6c-1.1,0.5-2.1,1.1-3.2,1.7
		C220.8,127.3,218.9,128.4,217,129.7z"/>
	<path class="st1" d="M183.8,106.8C183.8,106.8,183.8,106.8,183.8,106.8c-0.3,0.2-0.5,0.3-0.8,0.5
		C183.3,107.2,183.5,107,183.8,106.8z"/>
	<path class="st1" d="M106.6,115.4c-1.1,0.1-2.1,0.1-3.2,0.1c10.1,0.7,20.6-2.2,29.4-6.9c0,0,0,0-0.1,0
		C124.9,112.8,115.6,115.4,106.6,115.4z"/>
	<path class="st1" d="M66.9,95.8c-0.1,0-0.1,0-0.2,0c-5.9,2-13.9,4.5-19.7,1.8c-0.3,0-0.7-0.1-1-0.1c0,0,0,0,0,0c0,0,0,0,0,0
		c5.9,3.3,14.3,0.6,20.5-1.5c0.3-0.1,0.6-0.2,0.9-0.3C67.2,95.8,67,95.8,66.9,95.8z"/>
	<path class="st1" d="M16.4,123.4c-0.7-0.1-1.4-0.2-2.1-0.2c1.3,0.3,2.6,0.7,3.9,1c0.9,0.1,1.8,0.3,2.7,0.4
		C19.4,124.1,17.9,123.7,16.4,123.4z"/>
	<path class="st1" d="M232.4,12.5c-11.2,4.6-22.5,8.3-34.1,11.3c-0.9,0.3-1.9,0.6-2.8,0.9c12.4-3.2,24.5-7,36.5-12
		c3.5-1.5,6.9-3.4,10.2-5.4c-0.1,0-0.2,0.1-0.2,0.1C238.9,9.3,235.8,11.1,232.4,12.5z"/>
	<path class="st1" d="M230.9,43.8c17.7,4.9,35.1,10.8,52.9,15.9c-4.4-1.3-8.8-2.8-13.2-4.2c-15.9-4.8-31.6-10-47.6-14.1
		C225.7,42.1,228.3,43,230.9,43.8z"/>
	<path class="st1" d="M195.9,24.5c-7.6,2.4-15.3,4.4-23.2,5.9c0.2,0,0.3,0,0.5,0.1c7.6-1.5,15-3.5,22.3-5.8c0.9-0.3,1.9-0.6,2.8-0.9
		C197.6,24,196.7,24.3,195.9,24.5z"/>
	<path class="st1" d="M242.1,7.4c0.1,0,0.2-0.1,0.2-0.1c4.5-1.8,9-3.5,13.6-5.2h-0.3c-4.3,1.6-8.6,3.3-12.9,4.9
		C242.5,7.2,242.3,7.3,242.1,7.4z"/>
	<path class="st1" d="M236.6,30.7C291,59.2,359.1,64.4,419.1,71c0-0.1,0-0.2,0.1-0.3C359.2,64.2,291.3,59,237,30.5
		C236.8,30.6,236.7,30.7,236.6,30.7z"/>
	<path class="st1" d="M229.2,49c15.6,4.2,30.1,10.9,45.7,15.2c15.9,4.4,32.4,6.4,48.6,8.8c31.5,4.7,63.6,6.3,95.4,7.8
		c0-0.1,0-0.2,0-0.3c-31.7-1.5-63.7-3.1-95-7.8c-16.2-2.4-32.7-4.4-48.6-8.8c-15.6-4.3-30.1-11-45.7-15.2
		c-68.4-18.6-140.8-13.3-211-13.7C12.3,35.1,6.2,35,0,35c-0.7-2.5,0-4.3,1.5-5.5c-0.9,0.6-1.5,1.3-1.8,2.3c0,1.2,0,2.3,0,3.5
		c6.2,0,12.3,0.1,18.5,0.1C88.4,35.7,160.8,30.4,229.2,49z"/>
	<path class="st1" d="M173.6,2.1h-1.2c-57,9.3-114.8,12.8-172.6,10.5c0,0.1,0,0.2,0,0.3C58,15.2,116.2,11.6,173.6,2.1z"/>
</g>
<linearGradient id="SVGID_1_" gradientUnits="userSpaceOnUse" x1="128.0223" y1="-73.9137" x2="290.6777" y2="207.8137">
	<stop  offset="0" style="stop-color:#9B7B34"/>
	<stop  offset="0.3715" style="stop-color:#786126"/>
	<stop  offset="1" style="stop-color:#493C17"/>
</linearGradient>
<polygon class="st5" points="418.7,0 418.7,133.9 0,133.9 0,0 "/>
<rect x="142.4" y="-142.4" transform="matrix(6.123234e-17 -1 1 6.123234e-17 142.4 276.3)" class="st6" width="133.9" height="418.7"/>
<rect x="-97.7" y="-40.6" class="st7" width="51.5" height="44.9"/>
<rect x="-16.5" y="-60" class="st8" width="51.5" height="44.9"/>
</svg>
