<?xml version="1.0" encoding="utf-8"?>
<!-- Generator: Adobe Illustrator 28.0.0, SVG Export Plug-In . SVG Version: 6.00 Build 0)  -->
<svg version="1.1" id="Layer_1" xmlns="http://www.w3.org/2000/svg" xmlns:xlink="http://www.w3.org/1999/xlink" x="0px" y="0px"
	 viewBox="0 0 300 300" style="enable-background:new 0 0 300 300;" xml:space="preserve">
<style type="text/css">
	.st0{fill-rule:evenodd;clip-rule:evenodd;fill:#22D3CE;}
</style>
<path class="st0" d="M166.2,105.6c0.2-0.9,0.5-2.6,0.8-4.9c0.3-2.2,0.3-4.7-0.8-7.2c-0.6-0.2-1.2-0.3-1.9-0.4
	c-1.5-0.3-2.9-0.5-4.2-0.6c-10.1-2.1-22.3-5.1-29.4-10.1c-1.4-1-2.7-2-4.1-3c-1.4-1.1-2.7-2.1-4-3c-4-3-7-6.1-8.1-9.1l0,0
	c0-9.1-8.1-11.2-7-16.2c3,3,17.2,11.2,32.4,3c-9.1,1-23.3,1-35.4-10.1c-2.9,15.6,5.4,15.3,5.1,20.5c0,0.2,0,0.4-0.1,0.7
	c-2.1-1.1-4.8-2.3-8.1-3.5c-2.9-1.1-7.3-2.6-13.3-3.3c-2.3-0.3-5.5-0.5-9-0.3c-0.8,0.1-13.2,1.4-13.6,5.1c0,0.5,0,2.4,5.6,5.1
	c2.1,5.1,3,8.1,7,13.1c-10.1,1-19.3,4-25.3,13.1c10.1,14.2,25.3,3,34.4,18.2c10.1,18.2,25.3,20.3,43.5,9.1c6.1,2.1,25.3,1,33.4-11.2
	l0,0C164.9,109.4,165.7,107.8,166.2,105.6z M91.3,109.7C81.2,94.5,66,103.6,58.9,93.5c5.1-6.1,14.2-7,22.3-8.1
	c2.1,4,19.3,32.4,43.5,36.4C104.5,126.9,99.4,122.8,91.3,109.7z M133.9,118.8c-27.4,0-47.7-29.4-56.8-48.6c12.1,7,18.2,1,32.4,14.2
	c-1-6.1-7-12.1-17.2-13.1c-8.1-1-13.1-3-16.2-4C59,61.1,97.4,56.1,119.7,80.4c15.2,12.1,25.3,13.1,42.5,17.2
	C163.2,114.8,141.9,118.8,133.9,118.8z"/>
</svg>
