<?xml version="1.0" encoding="utf-8"?>
<!-- Generator: Adobe Illustrator 28.0.0, SVG Export Plug-In . SVG Version: 6.00 Build 0)  -->
<svg version="1.1" id="Layer_1" xmlns="http://www.w3.org/2000/svg" xmlns:xlink="http://www.w3.org/1999/xlink" x="0px" y="0px"
	 viewBox="0 0 300 300" style="enable-background:new 0 0 300 300;" xml:space="preserve">
<style type="text/css">
	.st0{fill-rule:evenodd;clip-rule:evenodd;}
</style>
<g>
	<path class="st0" d="M183.1,59l9.9-5.6c0-1.4,5.6-15.7,5.6-15.7l-2.9,12.8l5.6-1.4c0-1.4,5.6-15.7,5.6-14.2c0,0-1.4,14.2-1.4,12.8
		l5.6-2.9l5.6-15.7l-2.9,14.2l5.6-2.9l7.2-9.9l-4.3,8.5l19.9-5.6l-17.1,9.9l8.5,4.3l-12.8-4.3l-7.2,4.3l12.8,5.6l-15.7-4.3l-5.6,2.9
		L217,59l-15.7-5.6l-4.3,1.4l11.4,7.2l-14.2-5.6l-9.9,4.3L183.1,59z"/>
	<path class="st0" d="M144.8,286.6c2.9,0,5.6,0,9.9,0c-62.6-105.4,1.4-135.2,4.3-194.9l4.3-5.6c11.4-19.9,29.8-8.5,48.4-8.5
		l15.7-1.4l-4.3-2.9c2.9-1.4,7.2-1.4,8.5-2.9l14.2-5.6l-4.3-1.4c2.9-1.4,5.6-2.9,7.2-4.3l8.5-7.2h-1.4c1.4-1.4,1.4-1.4,2.9-2.9
		l7.2-7.2l-4.3-1.4c2.9-2.9,5.6-5.6,9.9-8.5l11.4-7.2l-12.8-4.3c-8.5-1.4-15.7-2.9-24.2-4.3l1.4-2.9h-11.4c-1.4,0-2.9,0-4.3,1.4
		v-1.4l-8.5,1.4c-4.3,0-7.2,1.4-9.9,2.9v-4.3l-7.2,2.9c-1.4,1.4-2.9,1.4-4.3,2.9v-1.4l-8.5,7.2l0,0v-4.3l-9.9,11.4
		c-5.6,5.6-9.9,17.1-12.8,25.6c0,1.4-7.2,4.3-14.2,8.5c-1.4-7.2-4.3-15.7-8.5-24.2c-2.9,1.4-5.6,2.9-8.5,2.9
		c17.1,35.6,9.9,59.7-1.4,85.4c-5.6-7.2-12.8-9.9-12.8-11.4c-1.4-8.5-4.3-19.9-9.9-27.1L106.7,79v4.3l0,0l-8.5-7.2l0,0
		c-1.4,0-2.9-1.4-2.9-1.4l-8.5-4.3v2.9c-2.9-1.4-5.6-2.9-8.5-4.3l-9.9-1.4v1.4c-1.4-1.4-2.9-1.4-4.3-1.4l-9.9-1.4l1.4,2.9
		c-8.5,0-17.1,0-25.6,1.4l-12.8,2.9l9.9,8.5c4.3,2.9,7.2,5.6,9.9,9.9l-4.3,1.4l5.6,7.2c0,1.4,1.4,1.4,2.9,2.9h-1.4l7.2,7.2
		c1.4,2.9,4.3,4.3,5.6,5.6l-4.3,1.4l14.2,7.2c1.4,1.4,5.6,1.4,8.5,2.9l-4.3,2.9l14.2,2.9c18.4,2.9,38.4-7.2,48.4,14.2v1.4
		C114.9,181.2,103.5,219.7,144.8,286.6z M158.9,80.3c0-2.9,0-4.3-1.4-7.2C163.2,66,173.2,66,176,59c2.8-7,7.2-18.4,11.4-24.2
		c0,1.4,0,2.9,0,2.9c2.9-1.4,5.6-7.2,8.5-8.5v1.4c2.9-1.4,8.5-7.2,11.4-8.5v2.9c4.3,0,11.4-4.3,15.7-4.3V22c2.9,0,9.9-1.4,12.8-1.4
		l-1.4,1.4c11.4,0,24.2,1.4,34.1,4.3c-7.2,5.6-12.8,11.4-18.4,17.1l4.3,1.4c-2.9,2.9-11.4,5.6-14.2,8.5l4.3,1.4
		c-2.9,2.9-14.2,7.2-18.4,8.5l4.3,1.4c-4.3,1.4-17.1,2.9-21.3,4.3l2.9,2.9C194.6,71.7,173.2,60.3,158.9,80.3z M134.7,135.7l-2.9,5.6
		c-11.4-21.3-34.1-11.4-49.8-14.2l2.9-2.9c-4.3,0-17.1-2.9-19.9-5.6l4.3-1.4c-4.3-1.4-15.7-7.2-18.4-9.9l4.3-1.4
		c-2.9-2.9-11.4-7.2-12.8-9.9h4.3c-4.3-7.2-9.9-14.2-15.7-19.9c9.9-1.4,22.8-1.4,32.7-1.4v-1.4c2.9,0,9.9,2.9,12.8,4.3v-2.9
		c4.3,1.4,11.4,5.6,14.2,7.2V79c2.9,1.4,8.5,8.5,11.4,9.9v-1.4c2.9,1.4,5.6,7.2,7.2,9.9c0,0,0-2.9,1.4-2.9
		c2.9,5.6,7.2,17.1,8.5,25.6C120.6,125.8,130.5,127.2,134.7,135.7z"/>
	<path class="st0" d="M112,117.3l-8.5-5.6c0-1.4-5.6-17.1-5.6-17.1l1.4,14.2l-5.6-2.9l-2.9-15.7c0,1.4,0,14.2,0,14.2l-5.6-2.9
		c0-1.4-4.3-17.1-4.3-17.1l1.4,14.2l-4.3-2.9l-5.8-11.1l1.4,9.9l-18.4-8.5l17.1,11.4l-11.4,2.9l14.2-1.4l5.6,4.3l-12.8,4.3l17.1-2.9
		l5.6,2.9l-12.8,7.2l15.7-4.3l4.3,2.9l-11.4,4.3l14.2-2.9l8.5,5.6L112,117.3z"/>
</g>
</svg>
