<?xml version="1.0" encoding="utf-8"?>
<!-- Generator: Adobe Illustrator 28.0.0, SVG Export Plug-In . SVG Version: 6.00 Build 0)  -->
<svg version="1.1" id="Layer_1" xmlns="http://www.w3.org/2000/svg" xmlns:xlink="http://www.w3.org/1999/xlink" x="0px" y="0px"
	 viewBox="0 0 300 300" style="enable-background:new 0 0 300 300;" xml:space="preserve">
<style type="text/css">
	.st0{fill-rule:evenodd;clip-rule:evenodd;fill:#22D3CE;}
</style>
<path class="st0" d="M182.4,59c16.2-12.1,18.2-24.3,12.1-37.5c-7-15.2-50.6-28.4-56.7-8.1c-2.1-5.1-7-5.1-13.1-5.1
	c-7,1-20.3,3-25.3,6.1c-6.1,4-6.1,8.1-10.1,12.1c-6.1,6.1-15.2,9.1-16.2,19.3c0,5.1,1,10.1,6.1,12.1c0.5,0.1,1.2,0.2,1.9,0.2
	c2.2,0,3.8-1,4.6-1.5c-1.4-0.6-2.5-1.2-3.3-1.8c-4-2.1-5.1-6.1-5.1-10.1c1-8.1,9.1-9.1,14.2-15.2c5.1-5.1,5.1-8.1,10.1-11.2
	c3-2.1,14.2-5.1,23.3-6.1c13.1-2.1,10.1,5.1,6.1,7c-5.1,2.1-10.1,0-16.2,4c-4,3-5.1,7-7,12.1c-4-1-10.1-1-13.1,0
	c-0.7,2.9-1.3,7.6-0.5,13.4c0.7,4.7,2.3,8.4,3.5,11c1,0.3,2.2,0.6,3.4,0.8c1.3,0.2,2.5,0.3,3.5,0.3c-4.2-4.9-6.7-12.8-6-20.3
	c10.1-1,10.1,1,16.2,5.1c9.1,6.1,22.3,8.1,38.5,0c-3.6,4.1-7.5,8.2-11.6,12.4c-6.4,6.5-12.6,12.4-18.8,17.9c1.3,1,2.6,2.1,4,3.1
	c1.4,1.1,2.7,2.1,4.1,3c4.6-2,10.1-4.6,15.8-8.4c5.1-3.3,9.2-6.8,12.6-9.8c1.3,2.8,2.7,7.1,3.1,12.5c0.5,7-1,12.6-2.2,15.9
	c1.3,0,2.6,0.2,4.2,0.6c0.7,0.2,1.3,0.3,1.9,0.5c7.3-12.4,7.1-29.3,19.3-30.4c9.3-0.9,19.2,5.6,23.3,16.2c-7,2.1-18.2,3-26.3,10.1
	c-7.8,7.8-12.7,12.7-14.9,14.9c-1.4,2.1-2.6,4-3.3,6.5c4.1,0,17.2-15.2,19.2-17.2c10.1-8.1,21.2-8.1,31.4-13.1
	C208.7,72.2,193.5,53,182.4,59z M131.8,22.6c3-1,4-3,5.1-5.1c0,2.1,0,4,0,6.1h2.1c2.1,1,4,0,6.1,0s5.1-1,8.1-1c-1,0-1,1-2.1,2.1
	c0,2.1,1,3,1,4c-3-3-7-4-12.1-4c-3,1-6.1,1-8.1,2.1c1-1,2.1-3,3-4L131.8,22.6L131.8,22.6z M111.5,37.8c2.1-7,3-9.1,6.1-10.1
	c2.1-2.1,3-2.1,11.2-3c-3,6.1-7,9.1-4,18.2C118.6,43.9,117.6,40.8,111.5,37.8z M124.8,45.9c2.1,0,4,0,6.1,0c5.1,1,9.1-1,13.1-5.1
	c1,2.1,2.1,3,3,4C140.9,46.9,133.9,48,124.8,45.9z M147.9,39.8c-3-6.1-10.1-13.1-16.2,0c5.1-3,6.1-5.1,10.1-1
	c-6.1,5.1-9.1,5.1-13.1,1C125.7,20.6,164.2,27.7,147.9,39.8z M151.1,41.8c2.1-2.1,4-3,4-5.1c1,1,1,2.1,1,4
	C154.1,40.8,152.1,41.8,151.1,41.8z M159.1,58c-7,9.1-31.4,20.3-33.4,20.3c2.1-3,7-7,10.1-11.2C148.9,56,165.2,47.9,157,29.7
	c-3-5.1,2.1-8.1,6.1-4C169.3,29.7,164.2,52,159.1,58z M166.2,84.4c1-7,0-18.2-2.1-23.3c8.1-2.1,21.2-15.2,15.2-24.3
	c0,4-2.1,16.2-15.2,19.3c9.1-11.2,7-33.4,1-36.4c-5.1-4-14.2,1-24.3,1c0-5.1,1-5.1,2.1-7c6.1-12.1,40.5-1,46.6,11.2
	c7,16.2-2.1,22.3-8.1,30.3C173.3,64.1,171.2,73.2,166.2,84.4z"/>
</svg>
