<?xml version="1.0" encoding="utf-8"?>
<!-- Generator: Adobe Illustrator 28.0.0, SVG Export Plug-In . SVG Version: 6.00 Build 0)  -->
<svg version="1.1" id="Layer_1" xmlns="http://www.w3.org/2000/svg" xmlns:xlink="http://www.w3.org/1999/xlink" x="0px" y="0px"
	 viewBox="0 0 300 300" style="enable-background:new 0 0 300 300;" xml:space="preserve">
<style type="text/css">
	.st0{fill-rule:evenodd;clip-rule:evenodd;}
</style>
<path class="st0" d="M229.1,177.2c0.3-1.2,0.7-3.7,1.1-6.9c0.4-3,0.4-6.6-1.1-10.2c-0.8-0.3-1.7-0.4-2.6-0.6
	c-2.1-0.4-4.1-0.7-5.9-0.8c-14.2-2.9-31.4-7.2-41.3-14.2c-1.9-1.4-3.9-2.8-5.8-4.3c-1.9-1.5-3.9-2.9-5.6-4.3
	c-5.6-4.3-9.9-8.5-11.4-12.8l0,0c0-12.8-11.4-15.7-9.9-22.8c4.3,4.3,24.2,15.7,45.5,4.3c-12.8,1.4-32.7,1.4-49.8-14.2
	c-4.1,22.1,7.6,21.6,7.2,29.1c0,0.3,0,0.6-0.1,1c-2.9-1.5-6.7-3.3-11.4-5c-4.1-1.5-10.3-3.7-18.7-4.7c-3.4-0.4-7.8-0.7-12.8-0.4
	c-1.1,0.1-18.6,1.9-19.1,7.2c0,0.7,0,3.4,7.8,7.2c2.9,7.2,4.3,11.4,9.9,18.4c-14.2,1.4-27.1,5.6-35.6,18.4
	c14.2,19.9,35.7,4.2,48.5,25.5c14.2,25.6,35.6,28.5,61.2,12.8c8.5,2.9,35.6,1.4,46.9-15.7l0,0C227.2,182.6,228.3,180.3,229.1,177.2z
	 M123.7,183c-14.1-21.3-35.6-8.5-45.5-22.8c7.2-8.5,19.9-9.9,31.4-11.4c2.9,5.6,27.1,45.5,61.2,51.1
	C142.3,207.2,135.2,201.4,123.7,183z M183.6,195.8c-38.5,0-67-41.3-79.8-68.4c17.1,9.9,25.6,1.4,45.5,19.9
	c-1.4-8.5-9.9-17.1-24.2-18.4c-11.4-1.3-18.4-4.2-22.8-5.6c-24.1-8.7,30-15.7,61.3,18.4c21.3,17.1,35.6,18.5,59.7,24.3
	C224.8,190.2,194.8,195.8,183.6,195.8z"/>
</svg>
