<?xml version="1.0" encoding="utf-8"?>
<!-- Generator: Adobe Illustrator 28.0.0, SVG Export Plug-In . SVG Version: 6.00 Build 0)  -->
<svg version="1.1" id="Layer_1" xmlns="http://www.w3.org/2000/svg" xmlns:xlink="http://www.w3.org/1999/xlink" x="0px" y="0px"
	 viewBox="0 0 300 300" style="enable-background:new 0 0 300 300;" xml:space="preserve">
<style type="text/css">
	.st0{fill-rule:evenodd;clip-rule:evenodd;}
</style>
<path class="st0" d="M203.9,152.9c22.8-17.1,25.6-34.1,17.1-52.7c-9.9-21.3-71.1-39.9-79.6-11.4c-2.9-7.2-9.9-7.2-18.4-7.2
	c-9.9,1.4-28.5,4.3-35.6,8.5c-8.5,5.6-8.5,11.4-14.2,17.1c-8.5,8.5-21.3,12.8-22.8,27.1c0,7.2,1.4,14.2,8.5,17.1
	c0.7,0.1,1.7,0.3,2.6,0.3c3,0,5.4-1.4,6.5-2.1c-1.9-0.8-3.6-1.7-4.7-2.5c-5.6-2.9-7.2-8.5-7.2-14.2c1.4-11.4,12.8-12.8,19.9-21.3
	c7.2-7.2,7.2-11.4,14.2-15.7c4.3-2.9,19.9-7.2,32.7-8.5c18.4-2.9,14.2,7.2,8.5,9.9c-7.2,2.9-14.2,0-22.8,5.6
	c-5.6,4.3-7.2,9.9-9.9,17.1c-5.6-1.4-14.2-1.4-18.4,0c-1,4.1-1.8,10.7-0.7,18.8c1,6.6,3.2,11.8,5,15.4c1.4,0.4,3,0.8,4.8,1.1
	c1.8,0.3,3.6,0.4,5,0.4c-5.9-6.9-9.4-18-8.4-28.5c14.2-1.4,14.2,1.4,22.8,7.2c12.8,8.5,31.4,11.4,54.1,0
	c-5.1,5.8-10.6,11.6-16.4,17.5c-8.9,9.1-17.7,17.5-26.4,25.2c1.8,1.4,3.7,2.9,5.6,4.4c1.9,1.5,3.9,2.9,5.8,4.3
	c6.5-2.8,14.2-6.5,22.1-11.8c7.2-4.7,12.9-9.5,17.7-13.8c1.8,4,3.9,10,4.4,17.6c0.7,9.9-1.4,17.7-3,22.3c1.8,0,3.7,0.3,5.9,0.8
	c1,0.3,1.8,0.4,2.6,0.7c10.3-17.5,10-41.1,27.1-42.8c13.1-1.2,27,7.8,32.7,22.8c-9.9,2.9-25.6,4.3-37,14.2
	c-11,11-17.9,17.9-20.9,20.9c-1.9,2.9-3.7,5.6-4.7,9.1c5.8,0,24.2-21.3,27-24.2c14.2-11.4,29.9-11.4,44.2-18.4
	C240.9,171.5,219.6,144.4,203.9,152.9z M132.8,101.7c4.3-1.4,5.6-4.3,7.2-7.2c0,2.9,0,5.6,0,8.5h2.9c2.9,1.4,5.6,0,8.5,0
	s7.2-1.4,11.4-1.4c-1.4,0-1.4,1.4-2.9,2.9c0,2.9,1.4,4.3,1.4,5.6c-4.3-4.3-9.9-5.6-17.1-5.6c-4.3,1.4-8.5,1.4-11.4,2.9
	c1.4-1.4,2.9-4.3,4.3-5.6h-4.3L132.8,101.7L132.8,101.7z M104.4,123.1c2.9-9.9,4.3-12.8,8.5-14.2c2.9-2.9,4.3-2.9,15.7-4.3
	c-4.3,8.5-9.9,12.8-5.6,25.6C114.3,131.6,112.9,127.3,104.4,123.1z M122.9,134.5c2.9,0,5.6,0,8.5,0c7.2,1.4,12.8-1.4,18.4-7.2
	c1.4,2.9,2.9,4.3,4.3,5.6C145.6,135.8,135.7,137.4,122.9,134.5z M155.5,125.9c-4.3-8.5-14.2-18.4-22.8,0c7.2-4.3,8.5-7.2,14.2-1.4
	c-8.5,7.2-12.8,7.2-18.4,1.4C124.3,98.8,178.4,108.9,155.5,125.9z M159.9,128.7c2.9-2.9,5.6-4.3,5.6-7.2c1.4,1.4,1.4,2.9,1.4,5.6
	C164.2,127.3,161.3,128.7,159.9,128.7z M171.2,151.5c-9.9,12.8-44.1,28.5-46.9,28.5c2.9-4.3,9.9-9.9,14.2-15.7
	c18.4-15.7,41.3-27.1,29.8-52.7c-4.3-7.2,2.9-11.4,8.5-5.6C185.5,111.6,178.4,143,171.2,151.5z M181.2,188.5
	c1.4-9.9,0-25.6-2.9-32.7c11.4-2.9,29.8-21.3,21.3-34.1c0,5.6-2.9,22.8-21.3,27.1c12.8-15.7,9.9-46.9,1.4-51.2
	c-7.2-5.6-19.9,1.4-34.1,1.4c0-7.2,1.4-7.2,2.9-9.9c8.5-17.1,56.9-1.4,65.5,15.7c9.9,22.8-2.9,31.4-11.4,42.6
	C191.1,160,188.3,172.8,181.2,188.5z"/>
</svg>
