<?xml version="1.0" encoding="utf-8"?>
<!-- Generator: Adobe Illustrator 28.0.0, SVG Export Plug-In . SVG Version: 6.00 Build 0)  -->
<svg version="1.1" id="Layer_1" xmlns="http://www.w3.org/2000/svg" xmlns:xlink="http://www.w3.org/1999/xlink" x="0px" y="0px"
	 viewBox="0 0 300 300" style="enable-background:new 0 0 300 300;" xml:space="preserve">
<style type="text/css">
	.st0{fill-rule:evenodd;clip-rule:evenodd;fill:#22D3CE;}
</style>
<g>
	<path class="st0" d="M176.3,135l7-4c0-1,4-11.2,4-11.2l-2.1,9.1l4-1c0-1,4-11.2,4-10.1c0,0-1,10.1-1,9.1l4-2.1l4-11.2l-2.1,10.1
		l4-2.1l5.1-7l-3,6.1l14.2-4l-12.1,7l6.1,3l-9.1-3l-5.1,3l9.1,4l-11.2-3l-4,2.1l8.1,5.1l-11.2-4l-3,1l8.1,5.1l-10.1-4l-7,3
		L176.3,135z"/>
	<path class="st0" d="M149,296.9c2.1,0,4,0,7,0c-44.5-75,1-96.2,3-138.7l3-4c8.1-14.2,21.2-6.1,34.4-6.1l11.2-1l-3-2.1
		c2.1-1,5.1-1,6.1-2.1l10.1-4l-3-1c2.1-1,4-2.1,5.1-3l6.1-5.1h-1c1-1,1-1,2.1-2.1l5.1-5.1l-3-1c2.1-2.1,4-4,7-6.1l8.1-5.1l-9.1-3
		c-6.1-1-11.2-2.1-17.2-3l1-2.1h-8.1c-1,0-2.1,0-3,1v-1l-6.1,1c-3,0-5.1,1-7,2.1v-3l-5.1,2.1c-1,1-2.1,1-3,2.1v-1l-6.1,5.1l0,0v-3
		l-7,8.1c-4,4-7,12.1-9.1,18.2c0,1-5.1,3-10.1,6.1c-1-5.1-3-11.2-6.1-17.2c-2.1,1-4,2.1-6.1,2.1c12.1,25.3,7,42.5-1,60.8
		c-4-5.1-9.1-7-9.1-8.1c-1-6.1-3-14.2-7-19.3l-6.1-9.1v3l0,0l-6.1-5.1l0,0c-1,0-2.1-1-2.1-1l-6.1-3v2.1c-2.1-1-4-2.1-6.1-3l-7-1v1
		c-1-1-2.1-1-3-1l-7-1l1,2.1c-6.1,0-12.1,0-18.2,1l-9.1,2.1l7,6.1c3,2.1,5.1,4,7,7l-3,1l4,5.1c0,1,1,1,2.1,2.1h-1l5.1,5.1
		c1,2.1,3,3,4,4l-3,1l10.1,5.1c1,1,4,1,6.1,2.1l-3,2.1l10.1,2.1c13.1,2.1,27.3-5.1,34.4,10.1v1C127.8,222,119.7,249.4,149,296.9z
		 M159.1,150.1c0-2.1,0-3-1-5.1c4-5.1,11.2-5.1,13.1-10.1c2-5,5.1-13.1,8.1-17.2c0,1,0,2.1,0,2.1c2.1-1,4-5.1,6.1-6.1v1
		c2.1-1,6.1-5.1,8.1-6.1v2.1c3,0,8.1-3,11.2-3v1c2.1,0,7-1,9.1-1l-1,1c8.1,0,17.2,1,24.3,3c-5.1,4-9.1,8.1-13.1,12.1l3,1
		c-2.1,2.1-8.1,4-10.1,6.1l3,1c-2.1,2.1-10.1,5.1-13.1,6.1l3,1c-3,1-12.1,2.1-15.2,3l2.1,2.1C184.4,144.1,169.3,135.9,159.1,150.1z
		 M141.9,189.6l-2.1,4c-8.1-15.2-24.3-8.1-35.4-10.1l2.1-2.1c-3,0-12.1-2.1-14.2-4l3-1c-3-1-11.2-5.1-13.1-7l3-1
		c-2.1-2.1-8.1-5.1-9.1-7h3c-3-5.1-7-10.1-11.2-14.2c7-1,16.2-1,23.3-1v-1c2.1,0,7,2.1,9.1,3v-2.1c3,1,8.1,4,10.1,5.1v-2.1
		c2.1,1,6.1,6.1,8.1,7v-1c2.1,1,4,5.1,5.1,7c0,0,0-2.1,1-2.1c2.1,4,5.1,12.1,6.1,18.2C131.8,182.5,138.8,183.5,141.9,189.6z"/>
	<path class="st0" d="M125.7,176.5l-6.1-4c0-1-4-12.1-4-12.1l1,10.1l-4-2.1l-2.1-11.2c0,1,0,10.1,0,10.1l-4-2.1c0-1-3-12.1-3-12.1
		l1,10.1l-3-2.1l-4.1-7.9l1,7l-13.1-6.1l12.1,8.1l-8.1,2.1l10.1-1l4,3l-9.1,3l12.1-2.1l4,2.1l-9.1,5.1l11.2-3l3,2.1l-8.1,3l10.1-2.1
		l6.1,4L125.7,176.5z"/>
</g>
</svg>
