<?xml version="1.0" encoding="utf-8"?>
<!-- Generator: Adobe Illustrator 28.0.0, SVG Export Plug-In . SVG Version: 6.00 Build 0)  -->
<svg version="1.1" id="Layer_1" xmlns="http://www.w3.org/2000/svg" xmlns:xlink="http://www.w3.org/1999/xlink" x="0px" y="0px"
	 viewBox="0 0 300 300" style="enable-background:new 0 0 300 300;" xml:space="preserve">
<style type="text/css">
	.st0{fill-rule:evenodd;clip-rule:evenodd;}
</style>
<path class="st0" d="M240.8,58.4c16.6-12.4,18.6-24.8,12.4-38.3c-7.2-15.5-51.7-29-57.9-8.3c-2.1-5.2-7.2-5.2-13.4-5.2
	c-7.2,1-20.7,3.1-25.9,6.2c-6.2,4.1-6.2,8.3-10.3,12.4c-6.2,6.2-15.5,9.3-16.6,19.7c0,5.2,1,10.3,6.2,12.4c0.5,0.1,1.2,0.2,1.9,0.2
	c2.2,0,3.9-1,4.7-1.5c-1.4-0.6-2.6-1.2-3.4-1.8c-4.1-2.1-5.2-6.2-5.2-10.3c1-8.3,9.3-9.3,14.5-15.5c5.2-5.2,5.2-8.3,10.3-11.4
	c3.1-2.1,14.5-5.2,23.8-6.2c13.4-2.1,10.3,5.2,6.2,7.2c-5.2,2.1-10.3,0-16.6,4.1c-4.1,3.1-5.2,7.2-7.2,12.4c-4.1-1-10.3-1-13.4,0
	c-0.7,3-1.3,7.8-0.5,13.7c0.7,4.8,2.3,8.6,3.6,11.2c1,0.3,2.2,0.6,3.5,0.8c1.3,0.2,2.6,0.3,3.6,0.3c-4.3-5-6.8-13.1-6.1-20.7
	c10.3-1,10.3,1,16.6,5.2c9.3,6.2,22.8,8.3,39.3,0c-3.7,4.2-7.7,8.4-11.9,12.7c-6.5,6.6-12.9,12.7-19.2,18.3c1.3,1,2.7,2.1,4.1,3.2
	c1.4,1.1,2.8,2.1,4.2,3.1c4.7-2,10.3-4.7,16.1-8.6c5.2-3.4,9.4-6.9,12.9-10c1.3,2.9,2.8,7.3,3.2,12.8c0.5,7.2-1,12.9-2.2,16.2
	c1.3,0,2.7,0.2,4.3,0.6c0.7,0.2,1.3,0.3,1.9,0.5c7.5-12.7,7.3-29.9,19.7-31.1c9.5-0.9,19.6,5.7,23.8,16.6
	c-7.2,2.1-18.6,3.1-26.9,10.3c-8,8-13,13-15.2,15.2c-1.4,2.1-2.7,4.1-3.4,6.6c4.2,0,17.6-15.5,19.6-17.6
	c10.3-8.3,21.7-8.3,32.1-13.4C267.7,71.9,252.2,52.2,240.8,58.4z M189.1,21.2c3.1-1,4.1-3.1,5.2-5.2c0,2.1,0,4.1,0,6.2h2.1
	c2.1,1,4.1,0,6.2,0s5.2-1,8.3-1c-1,0-1,1-2.1,2.1c0,2.1,1,3.1,1,4.1c-3.1-3.1-7.2-4.1-12.4-4.1c-3.1,1-6.2,1-8.3,2.1
	c1-1,2.1-3.1,3.1-4.1H189.1z M168.4,36.7c2.1-7.2,3.1-9.3,6.2-10.3c2.1-2.1,3.1-2.1,11.4-3.1c-3.1,6.2-7.2,9.3-4.1,18.6
	C175.6,42.9,174.6,39.8,168.4,36.7z M181.9,45c2.1,0,4.1,0,6.2,0c5.2,1,9.3-1,13.4-5.2c1,2.1,2.1,3.1,3.1,4.1
	C198.4,46,191.2,47.1,181.9,45z M205.6,38.8c-3.1-6.2-10.3-13.4-16.6,0c5.2-3.1,6.2-5.2,10.3-1c-6.2,5.2-9.3,5.2-13.4,1
	C182.9,19.1,222.2,26.4,205.6,38.8z M208.8,40.8c2.1-2.1,4.1-3.1,4.1-5.2c1,1,1,2.1,1,4.1C211.9,39.8,209.8,40.8,208.8,40.8z
	 M217,57.4c-7.2,9.3-32.1,20.7-34.1,20.7c2.1-3.1,7.2-7.2,10.3-11.4c13.4-11.4,30-19.7,21.7-38.3c-3.1-5.2,2.1-8.3,6.2-4.1
	C227.4,28.4,222.2,51.2,217,57.4z M224.3,84.3c1-7.2,0-18.6-2.1-23.8c8.3-2.1,21.7-15.5,15.5-24.8c0,4.1-2.1,16.6-15.5,19.7
	c9.3-11.4,7.2-34.1,1-37.2c-5.2-4.1-14.5,1-24.8,1c0-5.2,1-5.2,2.1-7.2c6.2-12.4,41.4-1,47.6,11.4c7.2,16.6-2.1,22.8-8.3,31
	C231.5,63.6,229.4,72.9,224.3,84.3z"/>
<path class="st0" d="M142.1,127.5c0.2-0.9,0.5-2.7,0.8-5c0.3-2.2,0.3-4.8-0.8-7.4c-0.6-0.2-1.2-0.3-1.9-0.4c-1.5-0.3-3-0.5-4.3-0.6
	c-10.3-2.1-22.8-5.2-30-10.3c-1.4-1-2.8-2-4.2-3.1c-1.4-1.1-2.8-2.1-4.1-3.1c-4.1-3.1-7.2-6.2-8.3-9.3c0,0,0,0,0,0
	c0-9.3-8.3-11.4-7.2-16.6c3.1,3.1,17.6,11.4,33.1,3.1c-9.3,1-23.8,1-36.2-10.3c-3,15.9,5.5,15.6,5.2,21c0,0.2,0,0.4-0.1,0.7
	c-2.1-1.1-4.9-2.4-8.3-3.6c-3-1.1-7.5-2.7-13.6-3.4c-2.4-0.3-5.6-0.5-9.2-0.3c-0.8,0.1-13.5,1.4-13.9,5.2c0,0.5,0,2.5,5.7,5.2
	c2.1,5.2,3.1,8.3,7.2,13.4c-10.3,1-19.7,4.1-25.9,13.4c10.3,14.5,25.9,3.1,35.2,18.6c10.3,18.6,25.9,20.7,44.5,9.3
	c6.2,2.1,25.9,1,34.1-11.4c0,0,0,0,0,0C140.7,131.4,141.5,129.7,142.1,127.5z M65.5,131.7c-10.3-15.5-25.9-6.2-33.1-16.6
	c5.2-6.2,14.5-7.2,22.8-8.3c2.1,4.1,19.7,33.1,44.5,37.2C79,149.3,73.8,145.1,65.5,131.7z M109,141C81,141,60.3,111,51,91.3
	c12.4,7.2,18.6,1,33.1,14.5c-1-6.2-7.2-12.4-17.6-13.4c-8.3-1-13.4-3.1-16.6-4.1C32.4,82,71.7,76.9,94.5,101.7
	c15.5,12.4,25.9,13.4,43.4,17.6C139,136.9,117.2,141,109,141z"/>
<g>
	<path class="st0" d="M192.7,161.4l7.2-4.1c0-1,4.1-11.4,4.1-11.4l-2.1,9.3l4.1-1c0-1,4.1-11.4,4.1-10.3c0,0-1,10.3-1,9.3l4.1-2.1
		l4.1-11.4l-2.1,10.3l4.1-2.1l5.2-7.2l-3.1,6.2l14.5-4.1l-12.4,7.2l6.2,3.1l-9.3-3.1l-5.2,3.1l9.3,4.1l-11.4-3.1l-4.1,2.1l8.3,5.2
		l-11.4-4.1l-3.1,1l8.3,5.2l-10.3-4.1l-7.2,3.1L192.7,161.4z"/>
	<path class="st0" d="M164.8,326.9c2.1,0,4.1,0,7.2,0c-45.5-76.6,1-98.3,3.1-141.7l3.1-4.1c8.3-14.5,21.7-6.2,35.2-6.2l11.4-1
		l-3.1-2.1c2.1-1,5.2-1,6.2-2.1l10.3-4.1l-3.1-1c2.1-1,4.1-2.1,5.2-3.1l6.2-5.2h-1c1-1,1-1,2.1-2.1l5.2-5.2l-3.1-1
		c2.1-2.1,4.1-4.1,7.2-6.2l8.3-5.2l-9.3-3.1c-6.2-1-11.4-2.1-17.6-3.1l1-2.1H231c-1,0-2.1,0-3.1,1v-1l-6.2,1c-3.1,0-5.2,1-7.2,2.1
		v-3.1l-5.2,2.1c-1,1-2.1,1-3.1,2.1v-1l-6.2,5.2l0,0v-3.1l-7.2,8.3c-4.1,4.1-7.2,12.4-9.3,18.6c0,1-5.2,3.1-10.3,6.2
		c-1-5.2-3.1-11.4-6.2-17.6c-2.1,1-4.1,2.1-6.2,2.1c12.4,25.9,7.2,43.4-1,62.1c-4.1-5.2-9.3-7.2-9.3-8.3c-1-6.2-3.1-14.5-7.2-19.7
		l-6.2-9.3v3.1l0,0l-6.2-5.2l0,0c-1,0-2.1-1-2.1-1l-6.2-3.1v2.1c-2.1-1-4.1-2.1-6.2-3.1l-7.2-1v1c-1-1-2.1-1-3.1-1l-7.2-1l1,2.1
		c-6.2,0-12.4,0-18.6,1l-9.3,2.1l7.2,6.2c3.1,2.1,5.2,4.1,7.2,7.2l-3.1,1l4.1,5.2c0,1,1,1,2.1,2.1h-1l5.2,5.2c1,2.1,3.1,3.1,4.1,4.1
		l-3.1,1l10.3,5.2c1,1,4.1,1,6.2,2.1l-3.1,2.1l10.3,2.1c13.4,2.1,27.9-5.2,35.2,10.3v1C143.1,250.3,134.8,278.3,164.8,326.9z
		 M175.1,176.9c0-2.1,0-3.1-1-5.2c4.1-5.2,11.4-5.2,13.4-10.3s5.2-13.4,8.3-17.6c0,1,0,2.1,0,2.1c2.1-1,4.1-5.2,6.2-6.2v1
		c2.1-1,6.2-5.2,8.3-6.2v2.1c3.1,0,8.3-3.1,11.4-3.1v1c2.1,0,7.2-1,9.3-1l-1,1c8.3,0,17.6,1,24.8,3.1c-5.2,4.1-9.3,8.3-13.4,12.4
		l3.1,1c-2.1,2.1-8.3,4.1-10.3,6.2l3.1,1c-2.1,2.1-10.3,5.2-13.4,6.2l3.1,1c-3.1,1-12.4,2.1-15.5,3.1l2.1,2.1
		C201,170.7,185.5,162.4,175.1,176.9z M157.5,217.2l-2.1,4.1c-8.3-15.5-24.8-8.3-36.2-10.3l2.1-2.1c-3.1,0-12.4-2.1-14.5-4.1l3.1-1
		c-3.1-1-11.4-5.2-13.4-7.2l3.1-1c-2.1-2.1-8.3-5.2-9.3-7.2h3.1c-3.1-5.2-7.2-10.3-11.4-14.5c7.2-1,16.6-1,23.8-1v-1
		c2.1,0,7.2,2.1,9.3,3.1v-2.1c3.1,1,8.3,4.1,10.3,5.2v-2.1c2.1,1,6.2,6.2,8.3,7.2v-1c2.1,1,4.1,5.2,5.2,7.2c0,0,0-2.1,1-2.1
		c2.1,4.1,5.2,12.4,6.2,18.6C147.2,210,154.4,211,157.5,217.2z"/>
	<path class="st0" d="M141,203.8l-6.2-4.1c0-1-4.1-12.4-4.1-12.4l1,10.3l-4.1-2.1l-2.1-11.4c0,1,0,10.3,0,10.3l-4.1-2.1
		c0-1-3.1-12.4-3.1-12.4l1,10.3l-3.1-2.1L112,180l1,7.2L99.6,181l12.4,8.3l-8.3,2.1l10.3-1l4.1,3.1l-9.3,3.1l12.4-2.1l4.1,2.1
		l-9.3,5.2l11.4-3.1l3.1,2.1l-8.3,3.1l10.3-2.1l6.2,4.1L141,203.8z"/>
</g>
<path class="st0" d="M-130.3,56.9c16.6-12.4,18.6-24.8,12.4-38.3c-7.2-15.5-51.7-29-57.9-8.3c-2.1-5.2-7.2-5.2-13.4-5.2
	c-7.2,1-20.7,3.1-25.9,6.2c-6.2,4.1-6.2,8.3-10.3,12.4c-6.2,6.2-15.5,9.3-16.6,19.7c0,5.2,1,10.3,6.2,12.4c0.5,0.1,1.2,0.2,1.9,0.2
	c2.2,0,3.9-1,4.7-1.5c-1.4-0.6-2.6-1.2-3.4-1.8c-4.1-2.1-5.2-6.2-5.2-10.3c1-8.3,9.3-9.3,14.5-15.5c5.2-5.2,5.2-8.3,10.3-11.4
	c3.1-2.1,14.5-5.2,23.8-6.2c13.4-2.1,10.3,5.2,6.2,7.2c-5.2,2.1-10.3,0-16.6,4.1c-4.1,3.1-5.2,7.2-7.2,12.4c-4.1-1-10.3-1-13.4,0
	c-0.7,3-1.3,7.8-0.5,13.7c0.7,4.8,2.3,8.6,3.6,11.2c1,0.3,2.2,0.6,3.5,0.8c1.3,0.2,2.6,0.3,3.6,0.3c-4.3-5-6.8-13.1-6.1-20.7
	c10.3-1,10.3,1,16.6,5.2c9.3,6.2,22.8,8.3,39.3,0c-3.7,4.2-7.7,8.4-11.9,12.7c-6.5,6.6-12.9,12.7-19.2,18.3c1.3,1,2.7,2.1,4.1,3.2
	c1.4,1.1,2.8,2.1,4.2,3.1c4.7-2,10.3-4.7,16.1-8.6c5.2-3.4,9.4-6.9,12.9-10c1.3,2.9,2.8,7.3,3.2,12.8c0.5,7.2-1,12.9-2.2,16.2
	c1.3,0,2.7,0.2,4.3,0.6c0.7,0.2,1.3,0.3,1.9,0.5c7.5-12.7,7.3-29.9,19.7-31.1c9.5-0.9,19.6,5.7,23.8,16.6
	c-7.2,2.1-18.6,3.1-26.9,10.3c-8,8-13,13-15.2,15.2c-1.4,2.1-2.7,4.1-3.4,6.6c4.2,0,17.6-15.5,19.6-17.6
	c10.3-8.3,21.7-8.3,32.1-13.4C-103.4,70.3-118.9,50.7-130.3,56.9z M-182,19.7c3.1-1,4.1-3.1,5.2-5.2c0,2.1,0,4.1,0,6.2h2.1
	c2.1,1,4.1,0,6.2,0s5.2-1,8.3-1c-1,0-1,1-2.1,2.1c0,2.1,1,3.1,1,4.1c-3.1-3.1-7.2-4.1-12.4-4.1c-3.1,1-6.2,1-8.3,2.1
	c1-1,2.1-3.1,3.1-4.1H-182z M-202.7,35.2c2.1-7.2,3.1-9.3,6.2-10.3c2.1-2.1,3.1-2.1,11.4-3.1c-3.1,6.2-7.2,9.3-4.1,18.6
	C-195.4,41.4-196.5,38.3-202.7,35.2z M-189.2,43.4c2.1,0,4.1,0,6.2,0c5.2,1,9.3-1,13.4-5.2c1,2.1,2.1,3.1,3.1,4.1
	C-172.7,44.5-179.9,45.5-189.2,43.4z M-165.4,37.2c-3.1-6.2-10.3-13.4-16.6,0c5.2-3.1,6.2-5.2,10.3-1c-6.2,5.2-9.3,5.2-13.4,1
	C-188.2,17.6-148.9,24.8-165.4,37.2z M-162.3,39.3c2.1-2.1,4.1-3.1,4.1-5.2c1,1,1,2.1,1,4.1C-159.2,38.3-161.3,39.3-162.3,39.3z
	 M-154,55.9c-7.2,9.3-32.1,20.7-34.1,20.7c2.1-3.1,7.2-7.2,10.3-11.4c13.4-11.4,30-19.7,21.7-38.3c-3.1-5.2,2.1-8.3,6.2-4.1
	C-143.7,26.9-148.9,49.7-154,55.9z M-146.8,82.8c1-7.2,0-18.6-2.1-23.8c8.3-2.1,21.7-15.5,15.5-24.8c0,4.1-2.1,16.6-15.5,19.7
	c9.3-11.4,7.2-34.1,1-37.2c-5.2-4.1-14.5,1-24.8,1c0-5.2,1-5.2,2.1-7.2c6.2-12.4,41.4-1,47.6,11.4c7.2,16.6-2.1,22.8-8.3,31
	C-139.6,62.1-141.6,71.4-146.8,82.8z"/>
<path class="st0" d="M-146.8,104.5c0-2.1,2.1-7.2,0-12.4c-0.6-0.2-1.2-0.3-1.9-0.4c-1.5-0.3-3-0.5-4.3-0.6
	c-10.3-2.1-22.8-5.2-30-10.3c-1.4-1-2.8-2-4.2-3.1c-1.4-1.1-2.8-2.1-4.1-3.1c-4.1-3.1-7.2-6.2-8.3-9.3c0,0,0,0,0,0
	c0-9.3-8.3-11.4-7.2-16.6c3.1,3.1,17.6,11.4,33.1,3.1c-9.3,1-23.8,1-36.2-10.3c-3,15.9,5.5,15.6,5.2,21c0,0.2,0,0.4-0.1,0.7
	c-1.9-0.8-3.7-2.3-5.3-4.1c-1.1,0-2.3-0.1-3.6-0.3c-1.3-0.2-2.5-0.5-3.5-0.8c-2.9,0-8-1.6-11.8-3.2c-0.2-0.1-0.4-0.1-0.6,0
	c-0.9,0.5-2.4,1.3-4.4,1.3c-0.7,0-1.4-0.1-1.9-0.2c-0.8,0.1-13.5,1.4-13.9,5.2c0,0.5,0,2.5,5.7,5.2c2.1,5.2,3.1,8.3,7.2,13.4
	c-10.3,1-19.7,4.1-25.9,13.4c10.3,14.5,25.9,3.1,35.2,18.6c10.3,18.6,25.9,20.7,44.5,9.3c6.2,2.1,25.9,1,34.1-11.4c0,0,0,0,0,0
	c0.7-2.4,2.1-4.5,3.4-6.6C-146.3,104-146.8,104.5-146.8,104.5z M-223.4,108.6c-10.3-15.5-25.9-6.2-33.1-16.6
	c5.2-6.2,14.5-7.2,22.8-8.3c2.1,4.1,19.7,33.1,44.5,37.2C-209.9,126.2-215.1,122.1-223.4,108.6z M-179.9,117.9
	c-27.9,0-48.6-30-57.9-49.7c12.4,7.2,18.6,1,33.1,14.5c-1-6.2-7.2-12.4-17.6-13.4c-8.3-1-13.4-3.1-16.6-4.1
	c-17.6-6.2,21.7-11.4,44.5,13.4c15.5,12.4,25.9,13.4,43.4,17.6C-149.9,113.8-171.6,117.9-179.9,117.9z"/>
<g>
	<path class="st0" d="M-136.5,134.5l7.2-4.1c0-1,4.1-11.4,4.1-11.4l-2.1,9.3l4.1-1c0-1,4.1-11.4,4.1-10.3c0,0-1,10.3-1,9.3l4.1-2.1
		l4.1-11.4l-2.1,10.3l4.1-2.1l5.2-7.2l-3.1,6.2l14.5-4.1l-12.4,7.2l6.2,3.1l-9.3-3.1l-5.2,3.1l9.3,4.1l-11.4-3.1l-4.1,2.1l8.3,5.2
		l-11.4-4.1l-3.1,1l8.3,5.2l-10.3-4.1l-7.2,3.1L-136.5,134.5z"/>
	<path class="st0" d="M-164.4,300c2.1,0,4.1,0,7.2,0c-45.5-76.6,1-98.3,3.1-141.7l3.1-4.1c8.3-14.5,21.7-6.2,35.2-6.2l11.4-1
		l-3.1-2.1c2.1-1,5.2-1,6.2-2.1l10.3-4.1l-3.1-1c2.1-1,4.1-2.1,5.2-3.1l6.2-5.2h-1c1-1,1-1,2.1-2.1l5.2-5.2l-3.1-1
		c2.1-2.1,4.1-4.1,7.2-6.2l8.3-5.2l-9.3-3.1c-6.2-1-11.4-2.1-17.6-3.1l1-2.1h-8.3c-1,0-2.1,0-3.1,1v-1l-6.2,1c-3.1,0-5.2,1-7.2,2.1
		v-3.1l-5.2,2.1c-1,1-2.1,1-3.1,2.1v-1l-6.2,5.2l0,0v-3.1l-7.2,8.3c-4.1,4.1-7.2,12.4-9.3,18.6c0,1-5.2,3.1-10.3,6.2
		c-1-5.2-3.1-11.4-6.2-17.6c-2.1,1-4.1,2.1-6.2,2.1c12.4,25.9,7.2,43.4-1,62.1c-4.1-5.2-9.3-7.2-9.3-8.3c-1-6.2-3.1-14.5-7.2-19.7
		l-6.2-9.3v3.1l0,0l-6.2-5.2l0,0c-1,0-2.1-1-2.1-1l-6.2-3.1v2.1c-2.1-1-4.1-2.1-6.2-3.1l-7.2-1v1c-1-1-2.1-1-3.1-1l-7.2-1l1,2.1
		c-6.2,0-12.4,0-18.6,1l-9.3,2.1l7.2,6.2c3.1,2.1,5.2,4.1,7.2,7.2l-3.1,1l4.1,5.2c0,1,1,1,2.1,2.1h-1l5.2,5.2c1,2.1,3.1,3.1,4.1,4.1
		l-3.1,1l10.3,5.2c1,1,4.1,1,6.2,2.1l-3.1,2.1l10.3,2.1c13.4,2.1,27.9-5.2,35.2,10.3v1C-186.1,223.4-194.4,251.4-164.4,300z
		 M-154,150c0-2.1,0-3.1-1-5.2c4.1-5.2,11.4-5.2,13.4-10.3c2.1-5.2,5.2-13.4,8.3-17.6c0,1,0,2.1,0,2.1c2.1-1,4.1-5.2,6.2-6.2v1
		c2.1-1,6.2-5.2,8.3-6.2v2.1c3.1,0,8.3-3.1,11.4-3.1v1c2.1,0,7.2-1,9.3-1l-1,1c8.3,0,17.6,1,24.8,3.1c-5.2,4.1-9.3,8.3-13.4,12.4
		l3.1,1c-2.1,2.1-8.3,4.1-10.3,6.2l3.1,1c-2.1,2.1-10.3,5.2-13.4,6.2l3.1,1c-3.1,1-12.4,2.1-15.5,3.1l2.1,2.1
		C-128.2,143.8-143.7,135.5-154,150z M-171.6,190.3l-2.1,4.1c-8.3-15.5-24.8-8.3-36.2-10.3l2.1-2.1c-3.1,0-12.4-2.1-14.5-4.1l3.1-1
		c-3.1-1-11.4-5.2-13.4-7.2l3.1-1c-2.1-2.1-8.3-5.2-9.3-7.2h3.1c-3.1-5.2-7.2-10.3-11.4-14.5c7.2-1,16.6-1,23.8-1v-1
		c2.1,0,7.2,2.1,9.3,3.1v-2.1c3.1,1,8.3,4.1,10.3,5.2V149c2.1,1,6.2,6.2,8.3,7.2v-1c2.1,1,4.1,5.2,5.2,7.2c0,0,0-2.1,1-2.1
		c2.1,4.1,5.2,12.4,6.2,18.6C-182,183.1-174.7,184.1-171.6,190.3z"/>
	<path class="st0" d="M-188.2,176.9l-6.2-4.1c0-1-4.1-12.4-4.1-12.4l1,10.3l-4.1-2.1l-2.1-11.4c0,1,0,10.3,0,10.3l-4.1-2.1
		c0-1-3.1-12.4-3.1-12.4l1,10.3l-3.1-2.1l-4.1-8.3l1,7.2l-13.4-6.2l12.4,8.3l-8.3,2.1l10.3-1l4.1,3.1l-9.3,3.1l12.4-2.1l4.1,2.1
		l-9.3,5.2l11.4-3.1l3.1,2.1l-8.3,3.1l10.3-2.1l6.2,4.1L-188.2,176.9z"/>
</g>
<path class="st0" d="M-349.5,56.9c16.6-12.4,18.6-24.8,12.4-38.3c-7.2-15.5-51.7-29-57.9-8.3c-2.1-5.2-7.2-5.2-13.4-5.2
	c-7.2,1-20.7,3.1-25.9,6.2c-6.2,4.1-6.2,8.3-10.3,12.4c-6.2,6.2-15.5,9.3-16.6,19.7c0,5.2,1,10.3,6.2,12.4c0.5,0.1,1.2,0.2,1.9,0.2
	c2.2,0,3.9-1,4.7-1.5c-1.4-0.6-2.6-1.2-3.4-1.8c-4.1-2.1-5.2-6.2-5.2-10.3c1-8.3,9.3-9.3,14.5-15.5c5.2-5.2,5.2-8.3,10.3-11.4
	c3.1-2.1,14.5-5.2,23.8-6.2c13.4-2.1,10.3,5.2,6.2,7.2c-5.2,2.1-10.3,0-16.6,4.1c-4.1,3.1-5.2,7.2-7.2,12.4c-4.1-1-10.3-1-13.4,0
	c-0.7,3-1.3,7.8-0.5,13.7c0.7,4.8,2.3,8.6,3.6,11.2c1,0.3,2.2,0.6,3.5,0.8c1.3,0.2,2.6,0.3,3.6,0.3c-4.3-5-6.8-13.1-6.1-20.7
	c10.3-1,10.3,1,16.6,5.2c9.3,6.2,22.8,8.3,39.3,0c-3.7,4.2-7.7,8.4-11.9,12.7c-6.5,6.6-12.9,12.7-19.2,18.3c1.3,1,2.7,2.1,4.1,3.2
	c1.4,1.1,2.8,2.1,4.2,3.1c4.7-2,10.3-4.7,16.1-8.6c5.2-3.4,9.4-6.9,12.9-10c1.3,2.9,2.8,7.3,3.2,12.8c0.5,7.2-1,12.9-2.2,16.2
	c1.3,0,2.7,0.2,4.3,0.6c0.7,0.2,1.3,0.3,1.9,0.5c7.5-12.7,7.3-29.9,19.7-31.1c9.5-0.9,19.6,5.7,23.8,16.6
	c-7.2,2.1-18.6,3.1-26.9,10.3c-8,8-13,13-15.2,15.2c-1.4,2.1-2.7,4.1-3.4,6.6c4.2,0,17.6-15.5,19.6-17.6
	c10.3-8.3,21.7-8.3,32.1-13.4C-322.6,70.3-338.2,50.7-349.5,56.9z M-401.3,19.7c3.1-1,4.1-3.1,5.2-5.2c0,2.1,0,4.1,0,6.2h2.1
	c2.1,1,4.1,0,6.2,0s5.2-1,8.3-1c-1,0-1,1-2.1,2.1c0,2.1,1,3.1,1,4.1c-3.1-3.1-7.2-4.1-12.4-4.1c-3.1,1-6.2,1-8.3,2.1
	c1-1,2.1-3.1,3.1-4.1H-401.3z M-422,35.2c2.1-7.2,3.1-9.3,6.2-10.3c2.1-2.1,3.1-2.1,11.4-3.1c-3.1,6.2-7.2,9.3-4.1,18.6
	C-414.7,41.4-415.8,38.3-422,35.2z M-408.5,43.4c2.1,0,4.1,0,6.2,0c5.2,1,9.3-1,13.4-5.2c1,2.1,2.1,3.1,3.1,4.1
	C-392,44.5-399.2,45.5-408.5,43.4z M-384.7,37.2c-3.1-6.2-10.3-13.4-16.6,0c5.2-3.1,6.2-5.2,10.3-1c-6.2,5.2-9.3,5.2-13.4,1
	C-407.5,17.6-368.2,24.8-384.7,37.2z M-381.6,39.3c2.1-2.1,4.1-3.1,4.1-5.2c1,1,1,2.1,1,4.1C-378.5,38.3-380.6,39.3-381.6,39.3z
	 M-373.3,55.9c-7.2,9.3-32.1,20.7-34.1,20.7c2.1-3.1,7.2-7.2,10.3-11.4c13.4-11.4,30-19.7,21.7-38.3c-3.1-5.2,2.1-8.3,6.2-4.1
	C-363,26.9-368.2,49.7-373.3,55.9z M-366.1,82.8c1-7.2,0-18.6-2.1-23.8c8.3-2.1,21.7-15.5,15.5-24.8c0,4.1-2.1,16.6-15.5,19.7
	c9.3-11.4,7.2-34.1,1-37.2c-5.2-4.1-14.5,1-24.8,1c0-5.2,1-5.2,2.1-7.2c6.2-12.4,41.4-1,47.6,11.4c7.2,16.6-2.1,22.8-8.3,31
	C-358.9,62.1-360.9,71.4-366.1,82.8z"/>
<path class="st0" d="M-366.1,104.5c0-2.1,2.1-7.2,0-12.4c-0.6-0.2-1.2-0.3-1.9-0.4c-1.5-0.3-3-0.5-4.3-0.6
	c-10.3-2.1-22.8-5.2-30-10.3c-1.4-1-2.8-2-4.2-3.1c-1.4-1.1-2.8-2.1-4.1-3.1c-4.1-3.1-7.2-6.2-8.3-9.3c0,0,0,0,0,0
	c0-9.3-8.3-11.4-7.2-16.6c3.1,3.1,17.6,11.4,33.1,3.1c-9.3,1-23.8,1-36.2-10.3c-3,15.9,5.5,15.6,5.2,21c0,0.2,0,0.4-0.1,0.7
	c-1.9-0.8-3.7-2.3-5.3-4.1c-1.1,0-2.3-0.1-3.6-0.3c-1.3-0.2-2.5-0.5-3.5-0.8c-2.9,0-8-1.6-11.8-3.2c-0.2-0.1-0.4-0.1-0.6,0
	c-0.9,0.5-2.4,1.3-4.4,1.3c-0.7,0-1.4-0.1-1.9-0.2c-0.8,0.1-13.5,1.4-13.9,5.2c0,0.5,0,2.5,5.7,5.2c2.1,5.2,3.1,8.3,7.2,13.4
	c-10.3,1-19.7,4.1-25.9,13.4c10.3,14.5,25.9,3.1,35.2,18.6c10.3,18.6,25.9,20.7,44.5,9.3c6.2,2.1,25.9,1,34.1-11.4c0,0,0,0,0,0
	c0.7-2.4,2.1-4.5,3.4-6.6C-365.6,104-366.1,104.5-366.1,104.5z M-442.6,108.6c-10.3-15.5-25.9-6.2-33.1-16.6
	c5.2-6.2,14.5-7.2,22.8-8.3c2.1,4.1,19.7,33.1,44.5,37.2C-429.2,126.2-434.4,122.1-442.6,108.6z M-399.2,117.9
	c-27.9,0-48.6-30-57.9-49.7c12.4,7.2,18.6,1,33.1,14.5c-1-6.2-7.2-12.4-17.6-13.4c-8.3-1-13.4-3.1-16.6-4.1
	c-17.6-6.2,21.7-11.4,44.5,13.4c15.5,12.4,25.9,13.4,43.4,17.6C-369.2,113.8-390.9,117.9-399.2,117.9z"/>
<g>
	<path class="st0" d="M-355.8,134.5l7.2-4.1c0-1,4.1-11.4,4.1-11.4l-2.1,9.3l4.1-1c0-1,4.1-11.4,4.1-10.3c0,0-1,10.3-1,9.3l4.1-2.1
		l4.1-11.4l-2.1,10.3l4.1-2.1l5.2-7.2l-3.1,6.2l14.5-4.1l-12.4,7.2l6.2,3.1l-9.3-3.1l-5.2,3.1l9.3,4.1l-11.4-3.1l-4.1,2.1l8.3,5.2
		l-11.4-4.1l-3.1,1l8.3,5.2l-10.3-4.1l-7.2,3.1L-355.8,134.5z"/>
	<path class="st0" d="M-383.7,300c2.1,0,4.1,0,7.2,0c-45.5-76.6,1-98.3,3.1-141.7l3.1-4.1c8.3-14.5,21.7-6.2,35.2-6.2l11.4-1
		l-3.1-2.1c2.1-1,5.2-1,6.2-2.1l10.3-4.1l-3.1-1c2.1-1,4.1-2.1,5.2-3.1l6.2-5.2h-1c1-1,1-1,2.1-2.1l5.2-5.2l-3.1-1
		c2.1-2.1,4.1-4.1,7.2-6.2l8.3-5.2l-9.3-3.1c-6.2-1-11.4-2.1-17.6-3.1l1-2.1h-8.3c-1,0-2.1,0-3.1,1v-1l-6.2,1c-3.1,0-5.2,1-7.2,2.1
		v-3.1l-5.2,2.1c-1,1-2.1,1-3.1,2.1v-1l-6.2,5.2l0,0v-3.1l-7.2,8.3c-4.1,4.1-7.2,12.4-9.3,18.6c0,1-5.2,3.1-10.3,6.2
		c-1-5.2-3.1-11.4-6.2-17.6c-2.1,1-4.1,2.1-6.2,2.1c12.4,25.9,7.2,43.4-1,62.1c-4.1-5.2-9.3-7.2-9.3-8.3c-1-6.2-3.1-14.5-7.2-19.7
		l-6.2-9.3v3.1l0,0l-6.2-5.2l0,0c-1,0-2.1-1-2.1-1l-6.2-3.1v2.1c-2.1-1-4.1-2.1-6.2-3.1l-7.2-1v1c-1-1-2.1-1-3.1-1l-7.2-1l1,2.1
		c-6.2,0-12.4,0-18.6,1l-9.3,2.1l7.2,6.2c3.1,2.1,5.2,4.1,7.2,7.2l-3.1,1l4.1,5.2c0,1,1,1,2.1,2.1h-1l5.2,5.2c1,2.1,3.1,3.1,4.1,4.1
		l-3.1,1l10.3,5.2c1,1,4.1,1,6.2,2.1l-3.1,2.1l10.3,2.1c13.4,2.1,27.9-5.2,35.2,10.3v1C-405.4,223.4-413.7,251.4-383.7,300z
		 M-373.3,150c0-2.1,0-3.1-1-5.2c4.1-5.2,11.4-5.2,13.4-10.3c2.1-5.2,5.2-13.4,8.3-17.6c0,1,0,2.1,0,2.1c2.1-1,4.1-5.2,6.2-6.2v1
		c2.1-1,6.2-5.2,8.3-6.2v2.1c3.1,0,8.3-3.1,11.4-3.1v1c2.1,0,7.2-1,9.3-1l-1,1c8.3,0,17.6,1,24.8,3.1c-5.2,4.1-9.3,8.3-13.4,12.4
		l3.1,1c-2.1,2.1-8.3,4.1-10.3,6.2l3.1,1c-2.1,2.1-10.3,5.2-13.4,6.2l3.1,1c-3.1,1-12.4,2.1-15.5,3.1l2.1,2.1
		C-347.5,143.8-363,135.5-373.3,150z M-390.9,190.3l-2.1,4.1c-8.3-15.5-24.8-8.3-36.2-10.3l2.1-2.1c-3.1,0-12.4-2.1-14.5-4.1l3.1-1
		c-3.1-1-11.4-5.2-13.4-7.2l3.1-1c-2.1-2.1-8.3-5.2-9.3-7.2h3.1c-3.1-5.2-7.2-10.3-11.4-14.5c7.2-1,16.6-1,23.8-1v-1
		c2.1,0,7.2,2.1,9.3,3.1v-2.1c3.1,1,8.3,4.1,10.3,5.2V149c2.1,1,6.2,6.2,8.3,7.2v-1c2.1,1,4.1,5.2,5.2,7.2c0,0,0-2.1,1-2.1
		c2.1,4.1,5.2,12.4,6.2,18.6C-401.3,183.1-394,184.1-390.9,190.3z"/>
	<path class="st0" d="M-407.5,176.9l-6.2-4.1c0-1-4.1-12.4-4.1-12.4l1,10.3l-4.1-2.1l-2.1-11.4c0,1,0,10.3,0,10.3l-4.1-2.1
		c0-1-3.1-12.4-3.1-12.4l1,10.3l-3.1-2.1l-4.1-8.3l1,7.2l-13.4-6.2l12.4,8.3l-8.3,2.1l10.3-1l4.1,3.1l-9.3,3.1l12.4-2.1l4.1,2.1
		l-9.3,5.2l11.4-3.1l3.1,2.1l-8.3,3.1l10.3-2.1l6.2,4.1L-407.5,176.9z"/>
</g>
<path class="st0" d="M426.1,121c-18.6,11.4-34.1,9.3-44.5-9.3c-9.3-15.5-24.8-4.1-35.2-18.6c6.2-9.3,15.5-12.4,25.9-13.4
	c-4.1-5.2-5.2-8.3-7.2-13.4c-12.4-5.2-2.1-11.4,8.3-10.3c-5.2-2.1-6.2-7.2-6.2-12.4c1-10.3,10.3-13.4,16.6-19.7
	c4.1-4.1,4.1-8.3,10.3-12.4c5.2-3.1,18.6-5.2,25.9-6.2c6.2,0,11.4,0,13.4,5.2c6.2-20.7,50.7-7.2,57.9,8.3
	c6.2,13.4,4.1,25.9-12.4,38.3c11.4-6.2,26.9,13.4,33.1,21.7c-10.3,5.2-21.7,5.2-32.1,13.4c-2.1,2.1-15.5,17.6-19.7,17.6
	C452,122.1,432.3,123.1,426.1,121z M386.8,69.3c10.3,1,16.6,7.2,17.6,13.4c-14.5-13.4-20.7-7.2-33.1-14.5
	c9.3,19.7,30,49.7,57.9,49.7c8.3,0,30-4.1,29-21.7c-17.6-4.1-27.9-5.2-43.4-17.6C392,53.8,352.7,59,370.3,65.2
	C373.4,66.2,378.5,68.3,386.8,69.3z M436.5,17.6c10.3,0,19.7-5.2,24.8-1c6.2,3.1,8.3,25.9-1,37.2c13.4-3.1,15.5-15.5,15.5-19.7
	c6.2,9.3-7.2,22.8-15.5,24.8c2.1,5.2,3.1,16.6,2.1,23.8c5.2-11.4,7.2-20.7,15.5-30c6.2-8.3,15.5-14.5,8.3-31
	c-6.2-12.4-41.4-23.8-47.6-11.4C437.5,12.4,436.5,12.4,436.5,17.6z M426.1,80.7c7.2,5.2,19.7,8.3,30,10.3c2.1-9.3,4.1-16.6-1-29
	C447.8,70.3,437.5,74.5,426.1,80.7z M453,26.9c8.3,18.6-8.3,26.9-21.7,38.3c-3.1,4.1-8.3,8.3-10.3,11.4c2.1,0,26.9-11.4,34.1-20.7
	c5.2-6.2,10.3-29,4.1-33.1C455.1,18.6,449.9,21.7,453,26.9z M392,57.9c-1-4.1-7.2-16.6-3.1-24.8c3.1-1,9.3-1,13.4,0
	c2.1-5.2,3.1-9.3,7.2-12.4c6.2-4.1,11.4-2.1,16.6-4.1c4.1-2.1,7.2-9.3-6.2-7.2c-9.3,1-20.7,4.1-23.8,6.2c-5.2,3.1-5.2,6.2-10.3,11.4
	c-5.2,6.2-13.4,7.2-14.5,15.5c0,4.1,1,8.3,5.2,10.3C379.6,54.8,387.8,57.9,392,57.9z M462.3,92.1c2.1,5.2,0,10.3,0,12.4
	c0,0,5.2-5.2,16.6-16.6c8.3-7.2,19.7-8.3,26.9-10.3C493.4,62.1,487.2,60,482,61C471.6,63.1,469.6,83.8,462.3,92.1z M352.7,92.1
	c7.2,10.3,22.8,1,33.1,16.6c8.3,13.4,13.4,17.6,34.1,12.4c-24.8-4.1-42.4-33.1-44.5-37.2C367.2,84.8,357.8,85.9,352.7,92.1z
	 M404.4,63.1c1-6.2-8.3-5.2-5.2-21.7c12.4,11.4,26.9,11.4,36.2,10.3c-15.5,8.3-30,0-33.1-3.1c-1,5.2,7.2,7.2,7.2,16.6
	c1,3.1,4.1,6.2,8.3,9.3c14.5-19.7,25.9-18.6,31-31c-16.6,8.3-30,6.2-39.3,0c-6.2-4.1-6.2-6.2-16.6-5.2C392,48.6,397.2,60,404.4,63.1
	z M424,37.2c4.1,4.1,7.2,4.1,13.4-1c-4.1-4.1-5.2-2.1-10.3,1c6.2-13.4,13.4-6.2,16.6,0C460.3,24.8,420.9,17.6,424,37.2z M406.5,35.2
	c6.2,3.1,7.2,6.2,13.4,5.2c-3.1-9.3,1-12.4,4.1-18.6c-8.3,1-9.3,1-11.4,3.1C409.6,25.9,408.5,27.9,406.5,35.2z M427.2,23.8
	c2.1-1,5.2-1,8.3-2.1c5.2,0,9.3,1,12.4,4.1c0-1-1-2.1-1-4.1c1-1,1-2.1,2.1-2.1c-3.1,0-6.2,1-8.3,1c-2.1,0-4.1,1-6.2,0h-2.1
	c0-2.1,0-4.1,0-6.2c-1,2.1-2.1,4.1-5.2,5.2h3.1C429.2,20.7,428.2,22.8,427.2,23.8z M426.1,43.4c-2.1,0-4.1,0-6.2,0
	c9.3,2.1,16.6,1,22.8-1c-1-1-2.1-2.1-3.1-4.1C435.4,42.4,431.3,44.5,426.1,43.4z M446.8,39.3c1,0,3.1-1,5.2-1c0-2.1,0-3.1-1-4.1
	C450.9,36.2,448.9,37.2,446.8,39.3z"/>
<path class="st0" d="M472.7,134.5l7.2-4.1c0-1,4.1-11.4,4.1-11.4l-2.1,9.3l4.1-1c0-1,4.1-11.4,4.1-10.3c0,0-1,10.3-1,9.3l4.1-2.1
	l4.1-11.4l-2.1,10.3l4.1-2.1l5.2-7.2l-3.1,6.2l14.5-4.1l-12.4,7.2l6.2,3.1l-9.3-3.1l-5.2,3.1l9.3,4.1l-11.4-3.1l-4.1,2.1l8.3,5.2
	l-11.4-4.1l-3.1,1l8.3,5.2l-10.3-4.1l-7.2,3.1L472.7,134.5z"/>
<path class="st0" d="M444.7,300c2.1,0,4.1,0,7.2,0c-45.5-76.6,1-98.3,3.1-141.7l3.1-4.1c8.3-14.5,21.7-6.2,35.2-6.2l11.4-1l-3.1-2.1
	c2.1-1,5.2-1,6.2-2.1l10.3-4.1l-3.1-1c2.1-1,4.1-2.1,5.2-3.1l6.2-5.2h-1c1-1,1-1,2.1-2.1l5.2-5.2l-3.1-1c2.1-2.1,4.1-4.1,7.2-6.2
	l8.3-5.2l-9.3-3.1c-6.2-1-11.4-2.1-17.6-3.1l1-2.1h-8.3c-1,0-2.1,0-3.1,1v-1l-6.2,1c-3.1,0-5.2,1-7.2,2.1v-3.1l-5.2,2.1
	c-1,1-2.1,1-3.1,2.1v-1l-6.2,5.2l0,0v-3.1l-7.2,8.3c-4.1,4.1-7.2,12.4-9.3,18.6c0,1-5.2,3.1-10.3,6.2c-1-5.2-3.1-11.4-6.2-17.6
	c-2.1,1-4.1,2.1-6.2,2.1c12.4,25.9,7.2,43.4-1,62.1c-4.1-5.2-9.3-7.2-9.3-8.3c-1-6.2-3.1-14.5-7.2-19.7l-6.2-9.3v3.1l0,0l-6.2-5.2
	l0,0c-1,0-2.1-1-2.1-1l-6.2-3.1v2.1c-2.1-1-4.1-2.1-6.2-3.1l-7.2-1v1c-1-1-2.1-1-3.1-1l-7.2-1l1,2.1c-6.2,0-12.4,0-18.6,1l-9.3,2.1
	l7.2,6.2c3.1,2.1,5.2,4.1,7.2,7.2l-3.1,1l4.1,5.2c0,1,1,1,2.1,2.1h-1l5.2,5.2c1,2.1,3.1,3.1,4.1,4.1l-3.1,1l10.3,5.2
	c1,1,4.1,1,6.2,2.1l-3.1,2.1l10.3,2.1c13.4,2.1,27.9-5.2,35.2,10.3v1C423,223.4,414.7,251.4,444.7,300z M455.1,150
	c0-2.1,0-3.1-1-5.2c4.1-5.2,11.4-5.2,13.4-10.3c2.1-5.2,5.2-13.4,8.3-17.6c0,1,0,2.1,0,2.1c2.1-1,4.1-5.2,6.2-6.2v1
	c2.1-1,6.2-5.2,8.3-6.2v2.1c3.1,0,8.3-3.1,11.4-3.1v1c2.1,0,7.2-1,9.3-1l-1,1c8.3,0,17.6,1,24.8,3.1c-5.2,4.1-9.3,8.3-13.4,12.4
	l3.1,1c-2.1,2.1-8.3,4.1-10.3,6.2l3.1,1c-2.1,2.1-10.3,5.2-13.4,6.2l3.1,1c-3.1,1-12.4,2.1-15.5,3.1l2.1,2.1
	C480.9,143.8,465.4,135.5,455.1,150z M437.5,190.3l-2.1,4.1c-8.3-15.5-24.8-8.3-36.2-10.3l2.1-2.1c-3.1,0-12.4-2.1-14.5-4.1l3.1-1
	c-3.1-1-11.4-5.2-13.4-7.2l3.1-1c-2.1-2.1-8.3-5.2-9.3-7.2h3.1c-3.1-5.2-7.2-10.3-11.4-14.5c7.2-1,16.6-1,23.8-1v-1
	c2.1,0,7.2,2.1,9.3,3.1v-2.1c3.1,1,8.3,4.1,10.3,5.2V149c2.1,1,6.2,6.2,8.3,7.2v-1c2.1,1,4.1,5.2,5.2,7.2c0,0,0-2.1,1-2.1
	c2.1,4.1,5.2,12.4,6.2,18.6C427.2,183.1,434.4,184.1,437.5,190.3z"/>
<path class="st0" d="M420.9,176.9l-6.2-4.1c0-1-4.1-12.4-4.1-12.4l1,10.3l-4.1-2.1l-2.1-11.4c0,1,0,10.3,0,10.3l-4.1-2.1
	c0-1-3.1-12.4-3.1-12.4l1,10.3l-3.1-2.1l-4.1-8.3l1,7.2l-13.4-6.2l12.4,8.3l-8.3,2.1l10.3-1l4.1,3.1l-9.3,3.1l12.4-2.1l4.1,2.1
	l-9.3,5.2l11.4-3.1l3.1,2.1l-8.3,3.1l10.3-2.1l6.2,4.1L420.9,176.9z"/>
</svg>
