<?xml version="1.0" encoding="utf-8"?>
<!-- Generator: Adobe Illustrator 28.0.0, SVG Export Plug-In . SVG Version: 6.00 Build 0)  -->
<svg version="1.1" id="Layer_1" xmlns="http://www.w3.org/2000/svg" xmlns:xlink="http://www.w3.org/1999/xlink" x="0px" y="0px"
	 viewBox="0 0 300 300" style="enable-background:new 0 0 300 300;" xml:space="preserve">
<style type="text/css">
	.st0{fill-rule:evenodd;clip-rule:evenodd;fill:#FFFFFF;}
</style>
<g>
	<path class="st0" d="M183.2,57c16.6-12.4,18.6-24.8,12.4-38.3c-7.2-15.5-51.7-29-57.9-8.3c-2.1-5.2-7.2-5.2-13.4-5.2
		c-7.2,1-20.7,3.1-25.9,6.2c-6.2,4.1-6.2,8.3-10.3,12.4c-6.2,6.2-15.5,9.3-16.6,19.7c0,5.2,1,10.3,6.2,12.4c0.5,0.1,1.2,0.2,1.9,0.2
		c2.2,0,3.9-1,4.7-1.5c-1.4-0.6-2.6-1.2-3.4-1.8c-4.1-2.1-5.2-6.2-5.2-10.3c1-8.3,9.3-9.3,14.5-15.5c5.2-5.2,5.2-8.3,10.3-11.4
		c3.1-2.1,14.5-5.2,23.8-6.2c13.4-2.1,10.3,5.2,6.2,7.2c-5.2,2.1-10.3,0-16.6,4.1c-4.1,3.1-5.2,7.2-7.2,12.4c-4.1-1-10.3-1-13.4,0
		c-0.7,3-1.3,7.8-0.5,13.7c0.7,4.8,2.3,8.6,3.6,11.2c1,0.3,2.2,0.6,3.5,0.8s2.6,0.3,3.6,0.3c-4.3-5-6.8-13.1-6.1-20.7
		c10.3-1,10.3,1,16.6,5.2c9.3,6.2,22.8,8.3,39.3,0c-3.7,4.2-7.7,8.4-11.9,12.7c-6.5,6.6-12.9,12.7-19.2,18.3c1.3,1,2.7,2.1,4.1,3.2
		s2.8,2.1,4.2,3.1c4.7-2,10.3-4.7,16.1-8.6c5.2-3.4,9.4-6.9,12.9-10c1.3,2.9,2.8,7.3,3.2,12.8c0.5,7.2-1,12.9-2.2,16.2
		c1.3,0,2.7,0.2,4.3,0.6c0.7,0.2,1.3,0.3,1.9,0.5c7.5-12.7,7.3-29.9,19.7-31.1c9.5-0.9,19.6,5.7,23.8,16.6
		C203,80,191.6,81,183.3,88.2c-8,8-13,13-15.2,15.2c-1.4,2.1-2.7,4.1-3.4,6.6c4.2,0,17.6-15.5,19.6-17.6
		c10.3-8.3,21.7-8.3,32.1-13.4C210.1,70.4,194.5,50.8,183.2,57z M131.4,19.8c3.1-1,4.1-3.1,5.2-5.2c0,2.1,0,4.1,0,6.2h2.1
		c2.1,1,4.1,0,6.2,0s5.2-1,8.3-1c-1,0-1,1-2.1,2.1c0,2.1,1,3.1,1,4.1c-3.1-3.1-7.2-4.1-12.4-4.1c-3.1,1-6.2,1-8.3,2.1
		c1-1,2.1-3.1,3.1-4.1h-3.1V19.8z M110.7,35.3c2.1-7.2,3.1-9.3,6.2-10.3c2.1-2.1,3.1-2.1,11.4-3.1c-3.1,6.2-7.2,9.3-4.1,18.6
		C118,41.5,116.9,38.4,110.7,35.3z M124.2,43.5c2.1,0,4.1,0,6.2,0c5.2,1,9.3-1,13.4-5.2c1,2.1,2.1,3.1,3.1,4.1
		C140.7,44.6,133.5,45.6,124.2,43.5z M148,37.3c-3.1-6.2-10.3-13.4-16.6,0c5.2-3.1,6.2-5.2,10.3-1c-6.2,5.2-9.3,5.2-13.4,1
		C125.2,17.7,164.5,24.9,148,37.3z M151.1,39.4c2.1-2.1,4.1-3.1,4.1-5.2c1,1,1,2.1,1,4.1C154.2,38.4,152.1,39.4,151.1,39.4z
		 M159.4,56c-7.2,9.3-32.1,20.7-34.1,20.7c2.1-3.1,7.2-7.2,10.3-11.4c13.4-11.4,30-19.7,21.7-38.3c-3.1-5.2,2.1-8.3,6.2-4.1
		C169.7,27,164.5,49.8,159.4,56z M166.6,82.9c1-7.2,0-18.6-2.1-23.8c8.3-2.1,21.7-15.5,15.5-24.8c0,4.1-2.1,16.6-15.5,19.7
		c9.3-11.4,7.2-34.1,1-37.2c-5.2-4.1-14.5,1-24.8,1c0-5.2,1-5.2,2.1-7.2c6.2-12.4,41.4-1,47.6,11.4c7.2,16.6-2.1,22.8-8.3,31
		C173.8,62.2,171.8,71.5,166.6,82.9z"/>
	<path class="st0" d="M166.6,104.6c0-2.1,2.1-7.2,0-12.4c-0.6-0.2-1.2-0.3-1.9-0.4c-1.5-0.3-3-0.5-4.3-0.6
		c-10.3-2.1-22.8-5.2-30-10.3c-1.4-1-2.8-2-4.2-3.1c-1.4-1.1-2.8-2.1-4.1-3.1c-4.1-3.1-7.2-6.2-8.3-9.3l0,0c0-9.3-8.3-11.4-7.2-16.6
		c3.1,3.1,17.6,11.4,33.1,3.1c-9.3,1-23.8,1-36.2-10.3c-3,15.9,5.5,15.6,5.2,21c0,0.2,0,0.4-0.1,0.7c-1.9-0.8-3.7-2.3-5.3-4.1
		c-1.1,0-2.3-0.1-3.6-0.3c-1.3-0.2-2.5-0.5-3.5-0.8c-2.9,0-8-1.6-11.8-3.2c-0.2-0.1-0.4-0.1-0.6,0c-0.9,0.5-2.4,1.3-4.4,1.3
		c-0.7,0-1.4-0.1-1.9-0.2c-0.8,0.1-13.5,1.4-13.9,5.2c0,0.5,0,2.5,5.7,5.2c2.1,5.2,3.1,8.3,7.2,13.4c-10.3,1-19.7,4.1-25.9,13.4
		c10.3,14.5,25.9,3.1,35.2,18.6c10.3,18.6,25.9,20.7,44.5,9.3c6.2,2.1,25.9,1,34.1-11.4l0,0c0.7-2.4,2.1-4.5,3.4-6.6
		C167.1,104.1,166.6,104.6,166.6,104.6z M90.1,108.7C79.8,93.2,64.2,102.5,57,92.1c5.2-6.2,14.5-7.2,22.8-8.3
		c2.1,4.1,19.7,33.1,44.5,37.2C103.5,126.3,98.3,122.2,90.1,108.7z M133.5,118c-27.9,0-48.6-30-57.9-49.7c12.4,7.2,18.6,1,33.1,14.5
		c-1-6.2-7.2-12.4-17.6-13.4c-8.3-1-13.4-3.1-16.6-4.1C56.9,59.1,96.2,53.9,119,78.7c15.5,12.4,25.9,13.4,43.4,17.6
		C163.5,113.9,141.8,118,133.5,118z"/>
	<g>
		<path class="st0" d="M176.9,134.6l7.2-4.1c0-1,4.1-11.4,4.1-11.4l-2.1,9.3l4.1-1c0-1,4.1-11.4,4.1-10.3c0,0-1,10.3-1,9.3l4.1-2.1
			l4.1-11.4l-2.1,10.3l4.1-2.1l5.2-7.2l-3.1,6.2l14.5-4.1l-12.4,7.2l6.2,3.1l-9.3-3.1l-5.2,3.1l9.3,4.1l-11.4-3.1l-4.1,2.1l8.3,5.2
			l-11.4-4.1l-3.1,1l8.3,5.2l-10.3-4.1l-7.2,3.1L176.9,134.6z"/>
		<path class="st0" d="M149,300.1c2.1,0,4.1,0,7.2,0c-45.5-76.6,1-98.3,3.1-141.7l3.1-4.1c8.3-14.5,21.7-6.2,35.2-6.2l11.4-1
			l-3.1-2.1c2.1-1,5.2-1,6.2-2.1l10.3-4.1l-3.1-1c2.1-1,4.1-2.1,5.2-3.1l6.2-5.2h-1c1-1,1-1,2.1-2.1l5.2-5.2l-3.1-1
			c2.1-2.1,4.1-4.1,7.2-6.2l8.3-5.2l-9.3-3.1c-6.2-1-11.4-2.1-17.6-3.1l1-2.1h-8.3c-1,0-2.1,0-3.1,1v-1l-6.2,1c-3.1,0-5.2,1-7.2,2.1
			v-3.1l-5.2,2.1c-1,1-2.1,1-3.1,2.1v-1l-6.2,5.2l0,0v-3.1l-7.2,8.3c-4.1,4.1-7.2,12.4-9.3,18.6c0,1-5.2,3.1-10.3,6.2
			c-1-5.2-3.1-11.4-6.2-17.6c-2.1,1-4.1,2.1-6.2,2.1c12.4,25.9,7.2,43.4-1,62.1c-4.1-5.2-9.3-7.2-9.3-8.3c-1-6.2-3.1-14.5-7.2-19.7
			l-6.2-9.3v3.1l0,0l-6.2-5.2l0,0c-1,0-2.1-1-2.1-1l-6.2-3.1v2.1c-2.1-1-4.1-2.1-6.2-3.1l-7.2-1v1c-1-1-2.1-1-3.1-1l-7.2-1l1,2.1
			c-6.2,0-12.4,0-18.6,1l-9.3,2.1l7.2,6.2c3.1,2.1,5.2,4.1,7.2,7.2l-3.1,1l4.1,5.2c0,1,1,1,2.1,2.1h-1l5.2,5.2
			c1,2.1,3.1,3.1,4.1,4.1l-3.1,1l10.3,5.2c1,1,4.1,1,6.2,2.1l-3.1,2.1l10.3,2.1c13.4,2.1,27.9-5.2,35.2,10.3v1
			C127.3,223.5,119,251.5,149,300.1z M159.4,150.1c0-2.1,0-3.1-1-5.2c4.1-5.2,11.4-5.2,13.4-10.3c2.1-5.2,5.2-13.4,8.3-17.6
			c0,1,0,2.1,0,2.1c2.1-1,4.1-5.2,6.2-6.2v1c2.1-1,6.2-5.2,8.3-6.2v2.1c3.1,0,8.3-3.1,11.4-3.1v1c2.1,0,7.2-1,9.3-1l-1,1
			c8.3,0,17.6,1,24.8,3.1c-5.2,4.1-9.3,8.3-13.4,12.4l3.1,1c-2.1,2.1-8.3,4.1-10.3,6.2l3.1,1c-2.1,2.1-10.3,5.2-13.4,6.2l3.1,1
			c-3.1,1-12.4,2.1-15.5,3.1l2.1,2.1C185.2,143.9,169.7,135.6,159.4,150.1z M141.8,190.4l-2.1,4.1c-8.3-15.5-24.8-8.3-36.2-10.3
			l2.1-2.1c-3.1,0-12.4-2.1-14.5-4.1l3.1-1c-3.1-1-11.4-5.2-13.4-7.2l3.1-1c-2.1-2.1-8.3-5.2-9.3-7.2h3.1
			c-3.1-5.2-7.2-10.3-11.4-14.5c7.2-1,16.6-1,23.8-1v-1c2.1,0,7.2,2.1,9.3,3.1v-2.1c3.1,1,8.3,4.1,10.3,5.2v-2.2
			c2.1,1,6.2,6.2,8.3,7.2v-1c2.1,1,4.1,5.2,5.2,7.2c0,0,0-2.1,1-2.1c2.1,4.1,5.2,12.4,6.2,18.6C131.4,183.2,138.7,184.2,141.8,190.4
			z"/>
		<path class="st0" d="M125.2,177l-6.2-4.1c0-1-4.1-12.4-4.1-12.4l1,10.3l-4.1-2.1l-2.1-11.4c0,1,0,10.3,0,10.3l-4.1-2.1
			c0-1-3.1-12.4-3.1-12.4l1,10.3l-3.1-2.1l-4.1-8.3l1,7.2L83.9,154l12.4,8.3l-8.3,2.1l10.3-1l4.1,3.1l-9.3,3.1l12.4-2.1l4.1,2.1
			l-9.3,5.2l11.4-3.1l3.1,2.1l-8.3,3.1l10.3-2.1l6.2,4.1L125.2,177z"/>
	</g>
</g>
</svg>
